<svg width="200" height="200" viewBox="0 0 200 200" fill="none" xmlns="http://www.w3.org/2000/svg">
<rect width="200" height="200" fill="#00AB37"/>
<path d="M59.9205 153.682V162.409H58.8977L54.1421 155.557H54.0568V162.409H53V153.682H54.0227L58.7955 160.551H58.8807V153.682H59.9205ZM66.0238 159.733V155.864H67.0295V162.409H66.0238V161.301H65.9556C65.8022 161.633 65.5636 161.916 65.2397 162.149C64.9159 162.379 64.5068 162.494 64.0124 162.494C63.6034 162.494 63.2397 162.405 62.9215 162.226C62.6034 162.044 62.3534 161.771 62.1715 161.408C61.9897 161.041 61.8988 160.579 61.8988 160.023V155.864H62.9045V159.954C62.9045 160.432 63.038 160.812 63.3051 161.097C63.5749 161.381 63.9187 161.523 64.3363 161.523C64.5863 161.523 64.8406 161.459 65.0991 161.331C65.3605 161.203 65.5792 161.007 65.7553 160.743C65.9343 160.479 66.0238 160.142 66.0238 159.733ZM64.0124 154.977L65.0522 153H66.2284L64.8988 154.977H64.0124ZM68.8715 162.409V155.864H69.8431V156.886H69.9283C70.0646 156.537 70.2848 156.266 70.5888 156.072C70.8928 155.876 71.2578 155.778 71.684 155.778C72.1158 155.778 72.4752 155.876 72.7621 156.072C73.0519 156.266 73.2777 156.537 73.4396 156.886H73.5078C73.6754 156.548 73.9269 156.28 74.2621 156.081C74.5973 155.879 74.9993 155.778 75.4681 155.778C76.0533 155.778 76.532 155.962 76.9041 156.328C77.2763 156.692 77.4624 157.258 77.4624 158.028V162.409H76.4567V158.028C76.4567 157.545 76.3246 157.2 76.0604 156.993C75.7962 156.785 75.4851 156.682 75.1271 156.682C74.6669 156.682 74.3104 156.821 74.0575 157.099C73.8047 157.375 73.6783 157.724 73.6783 158.148V162.409H72.6556V157.926C72.6556 157.554 72.5348 157.254 72.2933 157.027C72.0519 156.797 71.7408 156.682 71.3601 156.682C71.0987 156.682 70.8544 156.751 70.6271 156.891C70.4027 157.03 70.2209 157.223 70.0817 157.47C69.9453 157.714 69.8771 157.997 69.8771 158.318V162.409H68.8715ZM82.0455 162.545C81.4148 162.545 80.8708 162.406 80.4134 162.128C79.9588 161.847 79.608 161.454 79.3608 160.952C79.1165 160.446 78.9943 159.858 78.9943 159.187C78.9943 158.517 79.1165 157.926 79.3608 157.415C79.608 156.9 79.9517 156.5 80.3921 156.213C80.8352 155.923 81.3523 155.778 81.9432 155.778C82.2841 155.778 82.6208 155.835 82.9531 155.949C83.2855 156.062 83.5881 156.247 83.8608 156.503C84.1335 156.756 84.3509 157.091 84.5128 157.508C84.6747 157.926 84.7557 158.44 84.7557 159.051V159.477H79.7102V158.608H83.733C83.733 158.239 83.6591 157.909 83.5114 157.619C83.3665 157.329 83.1591 157.101 82.8892 156.933C82.6222 156.766 82.3068 156.682 81.9432 156.682C81.5426 156.682 81.196 156.781 80.9034 156.98C80.6137 157.176 80.3906 157.432 80.2344 157.747C80.0781 158.062 80 158.4 80 158.761V159.341C80 159.835 80.0852 160.254 80.2557 160.598C80.429 160.939 80.6691 161.199 80.9759 161.378C81.2827 161.554 81.6392 161.642 82.0455 161.642C82.3097 161.642 82.5483 161.605 82.7614 161.531C82.9773 161.454 83.1634 161.341 83.3196 161.19C83.4759 161.037 83.5966 160.846 83.6818 160.619L84.6534 160.892C84.5512 161.221 84.3793 161.511 84.1378 161.761C83.8963 162.008 83.598 162.202 83.2429 162.341C82.8878 162.477 82.4887 162.545 82.0455 162.545ZM86.2855 162.409V155.864H87.2571V156.852H87.3253C87.4446 156.528 87.6605 156.266 87.973 156.064C88.2855 155.862 88.6378 155.761 89.0298 155.761C89.1037 155.761 89.196 155.763 89.3068 155.766C89.4176 155.768 89.5014 155.773 89.5583 155.778V156.801C89.5242 156.793 89.446 156.78 89.3239 156.763C89.2046 156.743 89.0781 156.733 88.9446 156.733C88.6264 156.733 88.3423 156.8 88.0923 156.933C87.8452 157.064 87.6492 157.246 87.5043 157.479C87.3622 157.709 87.2912 157.971 87.2912 158.267V162.409H86.2855ZM93.2102 162.545C92.6193 162.545 92.1009 162.405 91.6548 162.123C91.2117 161.842 90.8651 161.449 90.6151 160.943C90.3679 160.437 90.2443 159.846 90.2443 159.17C90.2443 158.489 90.3679 157.893 90.6151 157.385C90.8651 156.876 91.2117 156.481 91.6548 156.2C92.1009 155.919 92.6193 155.778 93.2102 155.778C93.8012 155.778 94.3182 155.919 94.7614 156.2C95.2074 156.481 95.554 156.876 95.8012 157.385C96.0512 157.893 96.1762 158.489 96.1762 159.17C96.1762 159.846 96.0512 160.437 95.8012 160.943C95.554 161.449 95.2074 161.842 94.7614 162.123C94.3182 162.405 93.8012 162.545 93.2102 162.545ZM93.2102 161.642C93.6591 161.642 94.0284 161.527 94.3182 161.297C94.608 161.067 94.8225 160.764 94.9617 160.389C95.1009 160.014 95.1705 159.608 95.1705 159.17C95.1705 158.733 95.1009 158.325 94.9617 157.947C94.8225 157.57 94.608 157.264 94.3182 157.031C94.0284 156.798 93.6591 156.682 93.2102 156.682C92.7614 156.682 92.3921 156.798 92.1023 157.031C91.8125 157.264 91.598 157.57 91.4588 157.947C91.3196 158.325 91.25 158.733 91.25 159.17C91.25 159.608 91.3196 160.014 91.4588 160.389C91.598 160.764 91.8125 161.067 92.1023 161.297C92.3921 161.527 92.7614 161.642 93.2102 161.642ZM103.558 162.545C103.012 162.545 102.531 162.408 102.113 162.132C101.696 161.854 101.369 161.462 101.133 160.956C100.897 160.447 100.78 159.847 100.78 159.153C100.78 158.466 100.897 157.869 101.133 157.364C101.369 156.858 101.697 156.467 102.118 156.192C102.538 155.916 103.024 155.778 103.575 155.778C104.001 155.778 104.338 155.849 104.585 155.991C104.835 156.131 105.025 156.29 105.156 156.469C105.289 156.645 105.393 156.79 105.467 156.903H105.552V153.682H106.558V162.409H105.586V161.403H105.467C105.393 161.523 105.288 161.673 105.152 161.855C105.015 162.034 104.821 162.195 104.568 162.337C104.315 162.476 103.978 162.545 103.558 162.545ZM103.694 161.642C104.098 161.642 104.439 161.537 104.717 161.327C104.995 161.114 105.207 160.82 105.352 160.445C105.497 160.067 105.569 159.631 105.569 159.136C105.569 158.648 105.498 158.22 105.356 157.854C105.214 157.484 105.004 157.197 104.726 156.993C104.447 156.785 104.103 156.682 103.694 156.682C103.268 156.682 102.913 156.791 102.629 157.01C102.348 157.226 102.136 157.52 101.994 157.892C101.855 158.261 101.785 158.676 101.785 159.136C101.785 159.602 101.856 160.025 101.998 160.406C102.143 160.784 102.356 161.085 102.637 161.31C102.921 161.531 103.274 161.642 103.694 161.642ZM110.466 162.562C110.051 162.562 109.674 162.484 109.336 162.328C108.998 162.169 108.73 161.94 108.531 161.642C108.332 161.341 108.233 160.977 108.233 160.551C108.233 160.176 108.306 159.872 108.454 159.639C108.602 159.403 108.799 159.219 109.047 159.085C109.294 158.952 109.566 158.852 109.865 158.787C110.166 158.719 110.468 158.665 110.772 158.625C111.17 158.574 111.492 158.535 111.74 158.51C111.99 158.481 112.171 158.435 112.285 158.369C112.401 158.304 112.46 158.19 112.46 158.028V157.994C112.46 157.574 112.345 157.247 112.115 157.014C111.887 156.781 111.542 156.665 111.079 156.665C110.599 156.665 110.223 156.77 109.95 156.98C109.677 157.19 109.486 157.415 109.375 157.653L108.42 157.312C108.591 156.915 108.818 156.605 109.102 156.383C109.389 156.159 109.701 156.003 110.039 155.915C110.38 155.824 110.716 155.778 111.045 155.778C111.255 155.778 111.497 155.804 111.769 155.855C112.045 155.903 112.311 156.004 112.566 156.158C112.825 156.311 113.039 156.543 113.21 156.852C113.38 157.162 113.465 157.577 113.465 158.097V162.409H112.46V161.523H112.409C112.34 161.665 112.227 161.817 112.068 161.979C111.909 162.141 111.697 162.278 111.433 162.392C111.168 162.506 110.846 162.562 110.466 162.562ZM110.619 161.659C111.017 161.659 111.352 161.581 111.624 161.425C111.9 161.268 112.107 161.067 112.247 160.82C112.389 160.572 112.46 160.312 112.46 160.04V159.119C112.417 159.17 112.323 159.217 112.178 159.26C112.036 159.3 111.872 159.335 111.684 159.366C111.499 159.395 111.319 159.42 111.143 159.443C110.97 159.463 110.829 159.48 110.721 159.494C110.46 159.528 110.216 159.584 109.988 159.66C109.764 159.734 109.582 159.846 109.443 159.997C109.307 160.145 109.238 160.346 109.238 160.602C109.238 160.952 109.368 161.216 109.626 161.395C109.887 161.571 110.218 161.659 110.619 161.659ZM123.312 157.329L122.409 157.585C122.352 157.435 122.268 157.288 122.157 157.146C122.05 157.001 121.902 156.882 121.714 156.788C121.527 156.695 121.287 156.648 120.994 156.648C120.594 156.648 120.26 156.74 119.993 156.925C119.729 157.106 119.596 157.338 119.596 157.619C119.596 157.869 119.687 158.067 119.869 158.212C120.051 158.356 120.335 158.477 120.721 158.574L121.693 158.812C122.278 158.954 122.714 159.172 123.001 159.464C123.288 159.754 123.432 160.128 123.432 160.585C123.432 160.96 123.324 161.295 123.108 161.591C122.895 161.886 122.596 162.119 122.213 162.29C121.829 162.46 121.383 162.545 120.875 162.545C120.207 162.545 119.655 162.4 119.217 162.111C118.78 161.821 118.503 161.398 118.386 160.841L119.341 160.602C119.432 160.954 119.604 161.219 119.856 161.395C120.112 161.571 120.446 161.659 120.858 161.659C121.327 161.659 121.699 161.56 121.974 161.361C122.253 161.159 122.392 160.918 122.392 160.636C122.392 160.409 122.312 160.219 122.153 160.065C121.994 159.909 121.75 159.793 121.42 159.716L120.329 159.46C119.73 159.318 119.29 159.098 119.008 158.8C118.73 158.498 118.591 158.122 118.591 157.67C118.591 157.301 118.694 156.974 118.902 156.69C119.112 156.406 119.398 156.183 119.758 156.021C120.122 155.859 120.534 155.778 120.994 155.778C121.642 155.778 122.15 155.92 122.52 156.204C122.892 156.489 123.156 156.864 123.312 157.329ZM127.605 162.545C127.014 162.545 126.495 162.405 126.049 162.123C125.606 161.842 125.259 161.449 125.009 160.943C124.762 160.437 124.639 159.846 124.639 159.17C124.639 158.489 124.762 157.893 125.009 157.385C125.259 156.876 125.606 156.481 126.049 156.2C126.495 155.919 127.014 155.778 127.605 155.778C128.195 155.778 128.713 155.919 129.156 156.2C129.602 156.481 129.948 156.876 130.195 157.385C130.445 157.893 130.57 158.489 130.57 159.17C130.57 159.846 130.445 160.437 130.195 160.943C129.948 161.449 129.602 161.842 129.156 162.123C128.713 162.405 128.195 162.545 127.605 162.545ZM127.605 161.642C128.053 161.642 128.423 161.527 128.713 161.297C129.002 161.067 129.217 160.764 129.356 160.389C129.495 160.014 129.565 159.608 129.565 159.17C129.565 158.733 129.495 158.325 129.356 157.947C129.217 157.57 129.002 157.264 128.713 157.031C128.423 156.798 128.053 156.682 127.605 156.682C127.156 156.682 126.786 156.798 126.497 157.031C126.207 157.264 125.992 157.57 125.853 157.947C125.714 158.325 125.644 158.733 125.644 159.17C125.644 159.608 125.714 160.014 125.853 160.389C125.992 160.764 126.207 161.067 126.497 161.297C126.786 161.527 127.156 161.642 127.605 161.642ZM132.106 162.409V155.864H133.077V156.852H133.145C133.265 156.528 133.481 156.266 133.793 156.064C134.106 155.862 134.458 155.761 134.85 155.761C134.924 155.761 135.016 155.763 135.127 155.766C135.238 155.768 135.322 155.773 135.378 155.778V156.801C135.344 156.793 135.266 156.78 135.144 156.763C135.025 156.743 134.898 156.733 134.765 156.733C134.447 156.733 134.162 156.8 133.912 156.933C133.665 157.064 133.469 157.246 133.324 157.479C133.182 157.709 133.111 157.971 133.111 158.267V162.409H132.106ZM139.827 155.864V156.716H136.435V155.864H139.827ZM137.424 154.295H138.43V160.534C138.43 160.818 138.471 161.031 138.553 161.173C138.638 161.312 138.746 161.406 138.877 161.454C139.01 161.5 139.151 161.523 139.299 161.523C139.41 161.523 139.501 161.517 139.572 161.506C139.643 161.491 139.699 161.48 139.742 161.471L139.947 162.375C139.878 162.4 139.783 162.426 139.661 162.452C139.539 162.48 139.384 162.494 139.197 162.494C138.912 162.494 138.634 162.433 138.361 162.311C138.091 162.189 137.867 162.003 137.688 161.753C137.512 161.503 137.424 161.187 137.424 160.807V154.295ZM144.014 162.545C143.383 162.545 142.839 162.406 142.382 162.128C141.927 161.847 141.577 161.454 141.329 160.952C141.085 160.446 140.963 159.858 140.963 159.187C140.963 158.517 141.085 157.926 141.329 157.415C141.577 156.9 141.92 156.5 142.361 156.213C142.804 155.923 143.321 155.778 143.912 155.778C144.253 155.778 144.589 155.835 144.922 155.949C145.254 156.062 145.557 156.247 145.829 156.503C146.102 156.756 146.319 157.091 146.481 157.508C146.643 157.926 146.724 158.44 146.724 159.051V159.477H141.679V158.608H145.702C145.702 158.239 145.628 157.909 145.48 157.619C145.335 157.329 145.128 157.101 144.858 156.933C144.591 156.766 144.275 156.682 143.912 156.682C143.511 156.682 143.165 156.781 142.872 156.98C142.582 157.176 142.359 157.432 142.203 157.747C142.047 158.062 141.969 158.4 141.969 158.761V159.341C141.969 159.835 142.054 160.254 142.224 160.598C142.398 160.939 142.638 161.199 142.944 161.378C143.251 161.554 143.608 161.642 144.014 161.642C144.278 161.642 144.517 161.605 144.73 161.531C144.946 161.454 145.132 161.341 145.288 161.19C145.444 161.037 145.565 160.846 145.65 160.619L146.622 160.892C146.52 161.221 146.348 161.511 146.106 161.761C145.865 162.008 145.567 162.202 145.211 162.341C144.856 162.477 144.457 162.545 144.014 162.545Z" fill="white"/>
<path fill-rule="evenodd" clip-rule="evenodd" d="M122.777 69.0358C111.257 66.8091 102.457 64.6891 100.524 64.2091L100.511 64.0625L100.497 64.0225C102.524 63.5958 112.471 61.7025 123.257 62.6891C142.724 64.4758 140.471 38.2358 124.964 42.7958C130.604 28.0091 108.791 22.0758 105.044 41.4491C102.804 53.0491 100.657 61.8758 100.204 63.7292C100.164 63.7158 100.124 63.7158 100.084 63.7158L100.031 63.7292C99.6174 61.7158 97.7108 51.7692 98.6974 40.9692C100.484 21.5025 74.2441 23.7558 78.8041 39.2624C64.0041 33.6224 58.0841 55.4224 77.4574 59.1691C89.0441 61.4224 97.8708 63.5558 99.7374 64.0091C99.7241 64.0491 99.7108 64.1025 99.7241 64.1425V64.1958C97.6708 64.6225 87.7374 66.5158 76.9641 65.5291C57.5108 63.7425 59.7508 89.9824 75.2574 85.4224C69.6174 100.209 91.4308 106.129 95.1774 86.7558C97.1641 76.5558 99.0574 68.4891 99.7908 65.4358C100.097 71.4491 99.4841 77.4758 98.2441 83.3424C96.9241 89.6491 94.9374 95.8091 92.8574 101.942C90.6841 108.036 88.6841 114.423 87.8574 121.009C86.9641 127.596 87.1108 134.382 88.4041 140.969V140.982L88.4174 141.049C88.6574 142.076 89.6841 142.716 90.7108 142.476C91.7508 142.223 92.3908 141.196 92.1508 140.169C90.7108 134.036 90.3108 127.676 90.9241 121.369C91.2174 118.209 91.7508 115.062 92.4841 111.956C93.2041 108.836 94.1508 105.782 95.0841 102.649C96.9374 96.4091 98.6974 90.1025 99.7774 83.6358C100.657 78.4625 101.057 73.1958 100.817 67.9558C101.457 72.2225 102.231 79.5158 101.524 87.2491C99.7374 106.702 125.991 104.463 121.431 88.9558C136.217 94.5958 142.151 72.7825 122.777 69.0358Z" fill="white"/>
</svg>
