<?xml version="1.0" standalone="no"?>
<!DOCTYPE svg PUBLIC "-//W3C//DTD SVG 20010904//EN"
 "http://www.w3.org/TR/2001/REC-SVG-20010904/DTD/svg10.dtd">
<svg version="1.0" xmlns="http://www.w3.org/2000/svg"
 width="681.000000pt" height="1024.000000pt" viewBox="0 0 681.000000 1024.000000"
 preserveAspectRatio="xMidYMid meet">

<g transform="translate(0.000000,1024.000000) scale(0.100000,-0.100000)"
fill="#000000" stroke="none">
<path d="M800 10159 c191 -94 513 -252 785 -384 105 -51 372 -182 595 -292
223 -111 427 -211 454 -223 27 -12 132 -62 233 -111 101 -49 186 -89 189 -89
23 0 -45 37 -293 161 -1564 775 -2066 1019 -2102 1019 -17 0 33 -29 139 -81z"/>
<path d="M5730 10225 c-30 -7 -84 -19 -120 -28 -280 -64 -519 -124 -502 -126
10 -1 528 110 717 153 l60 14 -50 0 c-27 0 -75 -6 -105 -13z"/>
<path d="M6300 10218 c-47 -11 -175 -42 -285 -70 -110 -28 -281 -68 -380 -88
-226 -48 -306 -68 -280 -69 11 0 85 13 165 30 261 55 652 137 805 168 249 51
242 49 145 49 -50 0 -120 -8 -170 -20z"/>
<path d="M6784 10225 c-17 -13 -17 -14 -2 -15 9 0 20 5 23 11 11 17 0 20 -21
4z"/>
<path d="M5128 10223 c7 -3 16 -2 19 1 4 3 -2 6 -13 5 -11 0 -14 -3 -6 -6z"/>
<path d="M6698 10223 c7 -3 16 -2 19 1 4 3 -2 6 -13 5 -11 0 -14 -3 -6 -6z"/>
<path d="M5 10149 c2 -33 6 -63 9 -66 5 -6 10 21 7 40 0 4 4 7 9 7 16 0 12
-46 -5 -60 -21 -17 -19 -30 5 -30 29 0 37 59 16 115 -27 69 -45 66 -41 -6z"/>
<path d="M6700 10171 c-41 -11 -109 -26 -150 -35 -41 -9 -122 -27 -180 -41
-58 -13 -150 -33 -205 -44 -140 -28 -437 -103 -430 -109 2 -3 37 2 77 11 133
29 485 100 683 138 55 10 120 23 145 29 25 5 72 16 105 22 43 9 61 18 63 31 4
22 -11 21 -108 -2z"/>
<path d="M6780 10130 l-25 -6 23 -8 c24 -8 37 -3 31 12 -2 4 -15 5 -29 2z"/>
<path d="M6671 10096 c2 -2 20 -6 39 -10 25 -4 31 -3 20 4 -14 9 -69 15 -59 6z"/>
<path d="M4002 10038 c42 -29 111 -77 154 -107 44 -30 81 -58 82 -63 5 -12 40
-10 44 4 2 6 -23 25 -56 42 -64 31 -86 48 -86 64 0 5 -15 12 -32 16 -34 6
-116 59 -131 83 -4 7 -18 13 -29 13 -15 0 2 -16 54 -52z"/>
<path d="M6684 10065 c-18 -14 -18 -14 4 -8 12 3 22 9 22 14 0 12 -3 11 -26
-6z"/>
<path d="M6777 10064 c-4 -4 -55 -17 -114 -30 -266 -56 -659 -146 -673 -154
-33 -20 45 -7 425 69 341 68 390 81 390 96 0 19 -17 30 -28 19z"/>
<path d="M5018 10053 c7 -3 16 -2 19 1 4 3 -2 6 -13 5 -11 0 -14 -3 -6 -6z"/>
<path d="M4950 10040 c-8 -5 -10 -10 -5 -10 6 0 17 5 25 10 8 5 11 10 5 10 -5
0 -17 -5 -25 -10z"/>
<path d="M100 10031 c0 -6 -6 -11 -13 -9 -13 3 -57 -36 -57 -52 0 -5 -7 -10
-15 -10 -13 0 -15 -63 -13 -522 3 -472 5 -528 21 -573 10 -27 22 -58 27 -67
13 -23 13 -28 -3 -28 -7 0 -20 12 -29 28 l-17 27 -1 -57 c0 -48 3 -59 21 -69
19 -10 21 -17 16 -67 -3 -32 -8 -68 -11 -82 -18 -81 -21 -120 -13 -141 22 -60
47 -215 47 -300 1 -52 -10 -177 -24 -277 -25 -174 -34 -379 -20 -417 11 -29
52 -38 75 -16 17 16 19 25 12 72 -5 30 -8 61 -8 69 3 60 40 233 57 267 6 12 8
32 4 45 -4 13 -9 64 -12 114 -4 81 -3 92 13 98 13 5 14 9 5 15 -9 6 -8 15 5
42 20 40 23 107 4 118 -10 6 -7 15 13 36 14 15 27 35 28 44 0 9 3 41 5 71 1
30 6 80 9 111 6 54 5 55 -37 98 -41 41 -43 44 -24 57 10 8 25 14 32 14 7 0 13
5 13 10 0 6 18 10 40 10 29 0 40 4 40 15 0 8 -7 15 -16 15 -15 0 -15 2 0 25
21 31 20 34 -4 28 -17 -5 -20 0 -20 26 0 18 -4 30 -9 26 -15 -9 -52 47 -49 74
2 21 9 27 33 29 30 4 65 32 65 52 0 5 5 10 10 10 14 0 12 -27 -3 -33 -9 -4 -9
-8 2 -15 12 -9 12 -13 2 -26 -8 -10 -9 -16 -3 -16 17 0 72 63 79 90 3 14 10
31 16 38 7 9 7 16 -1 24 -7 7 -12 27 -12 46 0 26 3 33 15 28 10 -4 15 1 15 15
0 11 -5 17 -10 14 -7 -4 -8 3 -4 20 6 25 5 27 -17 20 -22 -7 -23 -6 -5 7 17
14 17 16 2 46 -9 18 -23 32 -31 32 -18 0 -38 37 -31 55 3 8 -1 27 -9 42 -8 15
-15 33 -15 40 0 6 -12 21 -27 32 -14 12 -23 24 -20 28 4 3 0 14 -9 24 -9 10
-14 26 -10 35 6 15 8 15 26 -1 11 -10 20 -26 20 -37 0 -10 5 -18 10 -18 6 0
10 8 10 18 0 10 5 23 12 30 8 8 8 15 -2 26 -7 10 -9 23 -5 33 10 22 8 41 -8
73 -16 34 -92 110 -109 110 -12 0 -48 33 -48 44 0 3 8 7 18 9 10 3 6 5 -11 6
-38 1 -127 40 -127 56 0 19 12 26 26 15 9 -8 12 -6 10 7 0 9 7 19 16 21 13 2
16 -1 12 -12 -3 -9 -2 -16 3 -16 11 0 37 129 28 138 -3 3 -5 0 -5 -7z m17
-247 c-3 -3 -12 -4 -19 -1 -8 3 -5 6 6 6 11 1 17 -2 13 -5z m23 -22 c0 -5 10
-14 23 -20 l22 -11 -22 0 c-13 -1 -27 8 -33 19 -7 14 -7 20 0 20 5 0 10 -4 10
-8z m140 -132 c0 -5 -2 -10 -4 -10 -3 0 -8 5 -11 10 -3 6 -1 10 4 10 6 0 11
-4 11 -10z m-133 -96 c-3 -3 -12 -4 -19 -1 -8 3 -5 6 6 6 11 1 17 -2 13 -5z
m23 -38 c0 -3 -4 -8 -10 -11 -5 -3 -10 -1 -10 4 0 6 5 11 10 11 6 0 10 -2 10
-4z m30 -1121 c0 -14 -4 -25 -10 -25 -5 0 -10 11 -10 25 0 14 5 25 10 25 6 0
10 -11 10 -25z"/>
<path d="M4858 10013 c7 -3 16 -2 19 1 4 3 -2 6 -13 5 -11 0 -14 -3 -6 -6z"/>
<path d="M4758 9993 c7 -3 16 -2 19 1 4 3 -2 6 -13 5 -11 0 -14 -3 -6 -6z"/>
<path d="M5270 9980 c-12 -8 -10 -10 10 -10 14 0 32 5 40 10 12 8 10 10 -10
10 -14 0 -32 -5 -40 -10z"/>
<path d="M4532 9960 c-95 -8 -156 -25 -146 -41 3 -5 0 -9 -6 -9 -6 0 -21 -9
-33 -21 l-22 -21 36 4 c28 3 35 0 32 -10 -3 -8 3 -15 16 -19 15 -4 20 -11 16
-23 -3 -10 2 -75 11 -146 9 -71 17 -136 18 -144 1 -8 7 -24 13 -35 11 -21 20
-85 30 -217 3 -43 9 -78 13 -78 10 0 30 -89 30 -136 0 -19 4 -33 9 -30 4 3 11
-20 15 -52 3 -31 9 -68 12 -81 6 -19 4 -22 -7 -17 -8 4 -5 -1 6 -11 11 -10 19
-27 17 -38 -2 -12 2 -54 8 -95 6 -41 11 -83 11 -92 0 -10 6 -15 14 -12 8 3 11
12 9 19 -3 7 -1 16 5 20 15 9 14 -28 -1 -43 -9 -9 -8 -15 7 -25 11 -9 18 -26
17 -45 0 -18 4 -34 9 -37 5 -4 7 37 4 102 -3 74 -2 96 4 68 5 -22 7 -43 5 -47
-2 -4 0 -9 4 -12 20 -12 -4 -196 -28 -211 -12 -7 -5 -66 36 -290 25 -140 44
-256 51 -302 3 -24 8 -43 12 -43 3 0 7 -18 9 -41 3 -46 -12 -45 -21 1 -4 16
-6 32 -4 34 1 1 -4 10 -11 19 -8 9 -11 21 -7 27 3 5 2 10 -3 10 -5 0 -12 24
-16 53 -3 28 -15 97 -26 152 -11 55 -22 120 -25 145 -3 25 -10 63 -15 85 -5
22 -12 53 -15 69 -3 15 -13 35 -20 43 -17 16 -21 68 -5 58 14 -8 13 0 -7 68
-14 46 -21 57 -35 53 -13 -3 -18 2 -18 15 0 10 5 19 11 19 7 0 9 10 4 28 -4
15 -9 58 -11 96 -2 37 -6 72 -9 76 -3 4 -8 41 -11 81 -3 41 -10 82 -15 91 -11
21 -11 31 0 24 5 -3 8 9 6 26 -1 18 -7 34 -14 36 -6 2 -11 19 -11 37 0 19 -5
46 -11 62 -7 20 -7 29 1 31 8 3 8 8 -1 18 -6 8 -9 23 -6 34 3 11 1 22 -3 25
-5 3 -13 38 -20 78 -6 39 -16 92 -21 117 -5 25 -11 59 -15 75 -3 17 -7 46 -9
65 -2 19 -9 53 -15 75 -6 22 -14 51 -18 65 -4 14 -18 27 -32 31 -16 4 -19 7
-7 8 21 1 22 8 1 28 -20 20 -43 9 -62 -29 -10 -22 -9 -51 8 -170 12 -78 27
-165 35 -191 8 -26 12 -54 8 -62 -8 -22 6 -18 28 8 16 19 20 20 29 7 5 -8 10
-26 11 -40 1 -14 3 -36 6 -50 2 -14 5 -35 7 -47 1 -13 6 -26 9 -30 4 -3 7 -16
7 -29 0 -20 -17 -34 -41 -34 -12 0 -12 67 1 75 17 11 11 36 -7 33 -14 -2 -18
4 -18 30 0 17 -4 30 -10 29 -15 -6 -6 -108 15 -161 5 -15 8 -26 5 -26 -2 0 3
-23 11 -51 9 -28 13 -58 10 -66 -5 -13 40 -280 105 -618 83 -435 166 -783 189
-790 9 -3 35 -24 58 -47 23 -22 42 -36 42 -30 0 6 -18 28 -41 50 -26 27 -36
42 -29 47 11 7 79 -60 80 -78 0 -5 4 -6 9 -3 22 14 121 -165 121 -219 0 -19 5
-36 10 -36 6 -1 16 -2 22 -3 7 0 14 -9 16 -20 3 -11 0 -16 -7 -12 -15 10 -14
-7 2 -22 6 -7 12 -33 12 -58 0 -38 -3 -46 -22 -50 -13 -4 -29 -4 -37 -1 -11 4
-14 -2 -14 -22 1 -38 -24 -161 -33 -161 -9 0 -29 -57 -22 -63 11 -11 33 6 34
27 1 16 2 17 6 4 2 -10 5 -18 6 -18 1 0 24 7 51 15 27 8 75 15 108 15 34 0 58
4 58 11 0 5 5 7 10 4 12 -8 12 -2 0 105 -5 47 -16 182 -25 300 -30 412 -95
1056 -125 1230 -33 195 -51 303 -60 360 -14 86 -29 162 -41 197 -14 42 -48
349 -42 374 3 10 13 19 22 20 9 1 5 4 -9 8 -28 8 -51 74 -32 93 8 8 7 14 -3
22 -8 6 -17 36 -21 66 -4 30 -10 65 -15 78 -5 13 -9 38 -9 56 0 27 -9 41 -47
75 -63 56 -71 61 -80 60 -4 -1 -50 -5 -101 -9z m88 -829 c0 -25 -18 1 -25 34
l-6 30 15 -25 c8 -14 15 -32 16 -39z m-10 -184 c16 -117 18 -159 8 -149 -5 5
-11 36 -14 68 -3 33 -7 70 -9 84 -3 14 -7 48 -10 75 -9 83 13 17 25 -78z m29
49 c1 -56 -7 -41 -13 24 -3 36 -2 48 4 35 5 -11 9 -38 9 -59z m41 17 c0 -10 2
-52 5 -93 4 -66 3 -69 -4 -25 -16 92 -19 135 -10 135 5 0 9 -8 9 -17z m-193
-55 c-3 -7 -5 -2 -5 12 0 14 2 19 5 13 2 -7 2 -19 0 -25z m223 0 c0 -36 -4
-35 -14 5 -4 16 -2 27 4 27 5 0 10 -14 10 -32z m-52 -105 c14 -112 10 -135 -7
-36 -7 37 -14 83 -17 101 -4 17 -2 32 3 32 5 0 14 -43 21 -97z m-150 -36 c5
-42 5 -74 1 -70 -4 5 -9 46 -12 93 -7 100 0 88 11 -23z m-36 8 c3 -13 1 -22
-3 -19 -9 5 -13 44 -5 44 2 0 6 -11 8 -25z m315 -12 c-3 -10 -5 -4 -5 12 0 17
2 24 5 18 2 -7 2 -21 0 -30z m-41 -30 c-10 -10 -19 5 -10 18 6 11 8 11 12 0 2
-7 1 -15 -2 -18z m1 -60 c-3 -10 -5 -4 -5 12 0 17 2 24 5 18 2 -7 2 -21 0 -30z
m-98 -25 c1 -5 -3 -8 -9 -8 -5 0 -10 12 -9 28 0 24 1 25 9 7 5 -11 9 -23 9
-27z m68 10 c-3 -8 -6 -5 -6 6 -1 11 2 17 5 13 3 -3 4 -12 1 -19z m-196 -51
c-8 -8 -11 -5 -11 9 0 27 14 41 18 19 2 -9 -1 -22 -7 -28z m443 -167 c5 -65 2
-59 -13 33 -5 28 -5 45 0 40 5 -5 11 -38 13 -73z m-385 -103 c-1 -18 -3 -24
-6 -14 -2 9 -8 17 -13 17 -4 0 -6 9 -3 20 8 30 23 13 22 -23z m167 -11 c18
-19 18 -27 0 -20 -14 5 -31 34 -20 34 3 0 12 -6 20 -14z m-156 -68 c0 -18 -2
-20 -9 -8 -6 8 -7 18 -5 22 9 14 14 9 14 -14z m30 2 c0 -5 -2 -10 -4 -10 -3 0
-8 5 -11 10 -3 6 -1 10 4 10 6 0 11 -4 11 -10z m229 -183 c-1 -31 -1 -31 -9
-7 -11 36 -11 52 0 45 6 -3 10 -21 9 -38z m-64 -73 c2 -11 4 -19 5 -19 1 0 2
-20 4 -44 1 -25 9 -48 18 -55 28 -21 28 -146 -1 -146 -5 0 -11 7 -14 14 -4 11
-1 13 11 9 16 -6 16 -5 0 13 -11 13 -18 40 -19 79 -1 33 -6 71 -10 85 -13 39
-18 103 -7 92 5 -5 11 -18 13 -28z m-37 -26 c-1 -47 -2 -50 -10 -25 -9 25 -4
77 7 77 2 0 4 -24 3 -52z m-101 -10 c-3 -8 -6 -5 -6 6 -1 11 2 17 5 13 3 -3 4
-12 1 -19z m180 -70 c-3 -8 -6 -5 -6 6 -1 11 2 17 5 13 3 -3 4 -12 1 -19z
m-67 -4 c0 -8 -4 -12 -10 -9 -5 3 -10 10 -10 16 0 5 5 9 10 9 6 0 10 -7 10
-16z m9 -84 c1 -20 -1 -22 -9 -10 -5 8 -9 29 -9 45 0 26 2 27 9 10 5 -11 9
-31 9 -45z m-69 -35 c0 -5 -5 -3 -10 5 -5 8 -10 20 -10 25 0 6 5 3 10 -5 5 -8
10 -19 10 -25z m340 -56 c0 -5 -4 -9 -10 -9 -5 0 -10 7 -10 16 0 8 5 12 10 9
6 -3 10 -10 10 -16z m-315 -89 c3 -5 1 -10 -4 -10 -6 0 -11 5 -11 10 0 6 2 10
4 10 3 0 8 -4 11 -10z m322 -72 c-3 -8 -6 -5 -6 6 -1 11 2 17 5 13 3 -3 4 -12
1 -19z m10 -70 c-3 -8 -6 -5 -6 6 -1 11 2 17 5 13 3 -3 4 -12 1 -19z m-97
-448 c0 -5 -7 -10 -16 -10 -8 0 -12 5 -9 10 3 6 10 10 16 10 5 0 9 -4 9 -10z
m4 -46 c4 -15 2 -32 -3 -37 -8 -8 -11 -5 -11 10 0 12 -3 28 -6 37 -3 9 -2 16
4 16 5 0 13 -12 16 -26z m19 -88 c6 -16 -2 -28 -14 -20 -12 7 -11 34 0 34 5 0
11 -6 14 -14z"/>
<path d="M5185 9960 c-14 -7 -8 -8 20 -3 22 3 42 7 44 9 9 8 -45 2 -64 -6z"/>
<path d="M5128 9943 c7 -3 16 -2 19 1 4 3 -2 6 -13 5 -11 0 -14 -3 -6 -6z"/>
<path d="M5640 9929 c-108 -20 -160 -32 -156 -36 5 -5 236 37 236 43 0 6 -27
3 -80 -7z"/>
<path d="M6640 9905 c-85 -19 -200 -44 -255 -55 -153 -34 -448 -100 -468 -106
-10 -3 -16 -8 -13 -11 6 -7 349 57 772 142 67 14 124 25 128 25 3 0 6 9 6 20
0 11 -3 20 -7 19 -5 0 -78 -16 -163 -34z"/>
<path d="M5048 9923 c7 -3 16 -2 19 1 4 3 -2 6 -13 5 -11 0 -14 -3 -6 -6z"/>
<path d="M4868 9883 c7 -3 16 -2 19 1 4 3 -2 6 -13 5 -11 0 -14 -3 -6 -6z"/>
<path d="M5448 9883 c7 -3 16 -2 19 1 4 3 -2 6 -13 5 -11 0 -14 -3 -6 -6z"/>
<path d="M4808 9873 c6 -2 18 -2 25 0 6 3 1 5 -13 5 -14 0 -19 -2 -12 -5z"/>
<path d="M5348 9863 c7 -3 16 -2 19 1 4 3 -2 6 -13 5 -11 0 -14 -3 -6 -6z"/>
<path d="M5938 9863 c6 -2 18 -2 25 0 6 3 1 5 -13 5 -14 0 -19 -2 -12 -5z"/>
<path d="M4308 9853 c6 -2 18 -2 25 0 6 3 1 5 -13 5 -14 0 -19 -2 -12 -5z"/>
<path d="M6720 9795 c-30 -7 -134 -29 -230 -49 -382 -80 -404 -85 -396 -93 7
-8 145 17 579 103 94 19 137 31 137 41 0 15 -15 15 -90 -2z"/>
<path d="M5355 9740 c-3 -6 1 -7 9 -4 18 7 21 14 7 14 -6 0 -13 -4 -16 -10z"/>
<path d="M5098 9683 c7 -3 16 -2 19 1 4 3 -2 6 -13 5 -11 0 -14 -3 -6 -6z"/>
<path d="M5658 9683 c7 -3 16 -2 19 1 4 3 -2 6 -13 5 -11 0 -14 -3 -6 -6z"/>
<path d="M6585 9649 c-104 -22 -213 -43 -241 -48 -58 -11 -167 -41 -162 -46 2
-2 66 8 143 22 357 64 479 89 483 101 5 17 -11 15 -223 -29z"/>
<path d="M5608 9673 c7 -3 16 -2 19 1 4 3 -2 6 -13 5 -11 0 -14 -3 -6 -6z"/>
<path d="M5486 9654 c-38 -8 -72 -17 -75 -20 -9 -10 99 7 138 22 45 16 25 15
-63 -2z"/>
<path d="M5340 9620 c-20 -6 -21 -8 -5 -8 11 0 31 4 45 8 20 6 21 8 5 8 -11 0
-31 -4 -45 -8z"/>
<path d="M300 9580 c0 -5 5 -10 10 -10 6 0 10 5 10 10 0 6 -4 10 -10 10 -5 0
-10 -4 -10 -10z"/>
<path d="M6700 9563 c-36 -7 -99 -21 -140 -30 -94 -20 -111 -32 -28 -20 199
30 272 45 276 55 5 15 -24 14 -108 -5z"/>
<path d="M6650 9453 c-69 -13 -141 -28 -160 -33 -19 -5 -53 -14 -75 -19 -72
-19 81 -3 238 24 78 14 145 25 150 25 4 0 7 7 7 15 0 19 -6 18 -160 -12z"/>
<path d="M4925 9420 c3 -5 13 -10 21 -10 8 0 12 5 9 10 -3 6 -13 10 -21 10 -8
0 -12 -4 -9 -10z"/>
<path d="M6719 9360 c-79 -13 -200 -42 -196 -46 9 -9 287 38 287 48 0 9 -27 9
-91 -2z"/>
<path d="M6705 9260 c-16 -5 -57 -14 -90 -21 -33 -6 -55 -14 -48 -16 7 -2 50
3 96 11 46 9 95 16 110 16 14 0 29 5 32 10 7 12 -56 12 -100 0z"/>
<path d="M5264 9195 c20 -12 31 -14 39 -6 8 8 7 11 -3 11 -8 0 -26 3 -40 6
-24 5 -24 4 4 -11z"/>
<path d="M6458 9203 c6 -2 18 -2 25 0 6 3 1 5 -13 5 -14 0 -19 -2 -12 -5z"/>
<path d="M4380 9186 c0 -8 5 -18 10 -21 6 -3 10 3 10 14 0 12 -4 21 -10 21 -5
0 -10 -6 -10 -14z"/>
<path d="M6408 9193 c7 -3 16 -2 19 1 4 3 -2 6 -13 5 -11 0 -14 -3 -6 -6z"/>
<path d="M6735 9174 c-211 -39 -299 -56 -380 -73 -82 -18 -85 -19 -30 -15 33
3 74 9 90 14 17 5 53 11 80 15 117 14 301 48 309 56 17 16 2 16 -69 3z"/>
<path d="M5382 9108 c3 -7 15 -14 29 -16 23 -2 23 -2 5 13 -24 18 -39 20 -34
3z"/>
<path d="M6750 9090 c-196 -36 -410 -75 -540 -100 -85 -16 -232 -39 -326 -50
-151 -18 -173 -19 -198 -6 l-29 14 44 12 c24 7 57 16 73 21 16 5 42 9 57 9 15
0 31 5 34 10 8 13 -2 13 -131 -6 -119 -17 -175 -9 -195 28 -5 10 -17 18 -27
18 -9 0 -26 7 -36 15 -30 22 -44 18 -16 -4 132 -104 151 -118 330 -243 164
-114 163 -113 290 -93 58 10 146 21 195 26 50 4 126 15 170 23 193 38 251 48
273 48 12 0 22 4 22 8 0 4 16 11 35 14 29 6 35 11 35 32 0 14 -4 23 -8 20 -5
-3 -84 -17 -178 -31 -189 -30 -230 -37 -359 -59 -49 -9 -115 -20 -146 -25 -32
-5 -65 -14 -76 -19 -10 -6 -34 -7 -53 -3 l-35 7 55 16 c30 8 89 20 130 26 41
6 147 22 235 36 88 15 187 31 220 36 166 26 206 34 211 42 11 18 -4 18 -112
-2 -60 -11 -136 -25 -169 -30 -33 -5 -152 -25 -265 -44 -276 -47 -337 -52
-374 -32 l-30 15 28 11 c15 5 33 10 39 10 7 0 19 5 27 10 10 7 -13 8 -69 4
-65 -5 -85 -4 -92 7 -14 23 -11 27 34 34 23 4 78 15 122 25 44 11 175 35 290
55 326 56 385 66 453 81 35 8 76 14 93 14 19 0 29 5 29 15 0 8 -3 14 -7 14 -5
-1 -28 -5 -53 -9z"/>
<path d="M6145 9060 c-14 -7 -8 -8 20 -3 22 3 42 7 44 9 9 8 -45 2 -64 -6z"/>
<path d="M5975 9030 c-27 -7 -28 -8 -5 -8 14 0 34 3 45 8 25 11 2 11 -40 0z"/>
<path d="M5898 9013 c7 -3 16 -2 19 1 4 3 -2 6 -13 5 -11 0 -14 -3 -6 -6z"/>
<path d="M6138 8883 c7 -3 16 -2 19 1 4 3 -2 6 -13 5 -11 0 -14 -3 -6 -6z"/>
<path d="M4630 8536 c0 -33 14 -76 23 -73 15 5 17 36 5 63 -12 26 -28 32 -28
10z"/>
<path d="M2110 8410 c0 -5 7 -10 15 -10 8 0 15 5 15 10 0 6 -7 10 -15 10 -8 0
-15 -4 -15 -10z"/>
<path d="M2000 8330 c0 -5 5 -10 11 -10 5 0 7 5 4 10 -3 6 -8 10 -11 10 -2 0
-4 -4 -4 -10z"/>
<path d="M2180 8320 c0 -5 5 -10 10 -10 6 0 10 5 10 10 0 6 -4 10 -10 10 -5 0
-10 -4 -10 -10z"/>
<path d="M1955 8310 c-3 -6 -3 -19 0 -30 4 -11 2 -20 -4 -20 -5 0 -13 -9 -16
-20 -5 -15 -12 -19 -30 -14 -17 4 -26 0 -34 -15 -7 -13 -8 -22 -1 -26 16 -10
11 -25 -8 -25 -10 0 -23 -5 -30 -12 -7 -7 -12 -8 -12 -4 0 5 7 14 16 20 13 10
9 12 -18 11 l-33 0 -3 -60 c-1 -33 -3 -72 -4 -87 0 -18 -6 -28 -16 -28 -11 0
-13 -8 -8 -40 4 -27 3 -40 -5 -40 -8 0 -8 -4 0 -14 9 -10 9 -15 0 -18 -6 -2
-11 -20 -11 -40 0 -23 -5 -39 -15 -42 -11 -4 -13 -14 -8 -36 4 -19 2 -36 -5
-45 -7 -8 -10 -24 -7 -35 3 -11 0 -23 -7 -28 -17 -10 -37 -60 -26 -67 12 -8
41 24 34 37 -5 8 3 9 24 5 29 -6 32 -4 32 18 0 17 4 23 14 19 8 -3 19 3 26 15
6 12 15 21 21 21 5 0 22 11 37 25 15 14 31 25 36 25 22 0 70 73 73 112 3 24
12 47 23 57 13 11 23 41 32 98 8 54 15 78 21 68 4 -8 12 -15 17 -15 18 0 10
37 -18 80 -2 2 -7 -2 -12 -10 -5 -8 -12 -11 -17 -7 -4 5 -1 12 6 16 8 5 11 17
7 29 -4 12 -2 31 4 42 15 28 4 58 -23 62 -12 2 -21 9 -19 16 3 14 -24 16 -33
2z m60 -60 c3 -6 -4 -10 -17 -10 -18 0 -20 2 -8 10 19 12 18 12 25 0z m1 -160
c-1 -23 -9 -34 -30 -46 -32 -16 -56 -5 -32 15 8 7 12 19 9 27 -3 8 4 18 18 23
35 14 37 14 35 -19z m-174 -5 c-3 -20 0 -25 17 -25 31 0 24 -43 -8 -52 -14 -4
-25 -6 -26 -5 -5 9 9 107 15 107 4 0 5 -11 2 -25z"/>
<path d="M2065 8290 c-3 -5 0 -18 7 -29 9 -15 9 -23 -1 -35 -15 -18 -6 -37 15
-29 11 4 12 9 4 18 -8 10 -8 15 0 20 8 5 8 11 -1 21 -9 11 -8 15 5 20 9 3 16
10 16 15 0 12 -37 12 -45 -1z"/>
<path d="M2667 7745 c-5 -66 -11 -145 -13 -177 -3 -31 -1 -59 5 -62 11 -7 24
187 19 289 -3 64 -4 59 -11 -50z"/>
<path d="M2585 7770 c-3 -5 -1 -10 4 -10 6 0 11 5 11 10 0 6 -2 10 -4 10 -3 0
-8 -4 -11 -10z"/>
<path d="M2935 7716 c-34 -36 -42 -66 -29 -100 3 -9 11 -13 18 -10 6 3 4 0 -5
-8 -9 -7 -18 -36 -22 -65 -5 -48 -4 -53 13 -53 23 0 37 20 20 30 -8 5 -5 9 9
13 12 3 21 0 21 -6 0 -6 3 -8 6 -5 3 4 -2 20 -10 37 -12 23 -14 40 -8 68 6 24
5 47 -1 61 -13 29 -1 41 17 17 12 -17 14 -17 44 1 32 18 43 44 20 44 -7 0 -23
3 -36 6 -17 5 -30 -2 -57 -30z m5 -51 c0 -8 -4 -15 -10 -15 -5 0 -10 7 -10 15
0 8 5 15 10 15 6 0 10 -7 10 -15z"/>
<path d="M2567 7653 c-4 -3 -7 -18 -7 -32 -1 -14 -7 -37 -15 -51 -8 -14 -14
-34 -15 -45 0 -17 2 -16 13 5 15 29 40 120 34 126 -2 2 -7 1 -10 -3z"/>
<path d="M3056 7625 c4 -8 8 -15 10 -15 2 0 4 7 4 15 0 8 -4 15 -10 15 -5 0
-7 -7 -4 -15z"/>
<path d="M3007 7615 c-13 -10 -17 -23 -15 -52 l3 -38 18 37 c24 47 20 73 -6
53z"/>
<path d="M3117 7564 c-10 -11 3 -24 23 -24 13 0 17 5 14 15 -6 15 -26 20 -37
9z"/>
<path d="M2452 7548 c-7 -7 -12 -18 -12 -25 0 -7 -4 -13 -9 -13 -14 0 -30 -85
-37 -201 -4 -73 -3 -101 4 -94 6 6 13 28 16 50 2 22 5 40 6 40 1 0 4 13 6 30
3 16 10 35 16 43 6 7 12 46 14 87 1 41 5 79 9 84 8 15 2 14 -13 -1z"/>
<path d="M4683 7538 c4 -12 7 -31 7 -42 0 -15 3 -16 15 -6 12 10 15 10 15 -2
0 -8 -4 -18 -10 -24 -6 -6 -4 -28 5 -63 23 -89 36 -74 14 18 -6 28 -6 48 0 54
18 18 29 -28 29 -130 0 -113 6 -140 34 -167 26 -25 33 -14 20 31 -5 21 -13 58
-17 83 -5 35 -3 41 5 27 6 -10 13 -38 14 -63 1 -25 8 -49 15 -53 7 -5 12 -11
11 -15 -2 -6 5 -50 24 -141 2 -11 4 15 5 59 0 43 -6 106 -15 140 -20 80 -65
196 -76 196 -4 0 -8 5 -8 11 0 16 -52 85 -74 99 -17 11 -18 9 -13 -12z"/>
<path d="M2590 7529 c0 -5 5 -7 10 -4 6 3 10 8 10 11 0 2 -4 4 -10 4 -5 0 -10
-5 -10 -11z"/>
<path d="M3015 7521 c-3 -2 7 -10 22 -18 29 -15 36 -13 27 10 -5 14 -38 20
-49 8z"/>
<path d="M2775 7500 c-30 -12 -45 -33 -39 -57 8 -30 42 -19 37 12 -3 12 0 26
6 29 7 5 11 -2 12 -16 2 -29 2 -28 -6 -61 -6 -21 -4 -27 9 -27 9 0 21 11 26
24 8 22 47 52 60 48 3 -1 5 6 5 16 0 12 -7 16 -26 14 -15 -1 -32 4 -39 13 -14
17 -17 17 -45 5z"/>
<path d="M2996 7492 c-3 -6 -2 -22 4 -37 5 -14 10 -41 10 -59 0 -37 14 -56 39
-49 13 3 17 14 16 41 -1 20 3 41 9 45 7 5 6 7 -4 6 -29 -3 -40 1 -40 14 0 21
-26 52 -34 39z"/>
<path d="M4790 7488 c0 -8 7 -21 15 -28 19 -16 19 -1 0 24 -12 16 -15 17 -15
4z"/>
<path d="M3045 7470 c-3 -5 1 -10 9 -10 9 0 16 5 16 10 0 6 -4 10 -9 10 -6 0
-13 -4 -16 -10z"/>
<path d="M4841 7390 c12 -30 24 -63 26 -72 3 -11 14 -18 27 -17 14 1 16 3 5 6
-8 2 -23 26 -33 52 -9 27 -24 57 -32 67 -9 12 -6 -2 7 -36z"/>
<path d="M2235 7379 c-4 -22 -4 -43 -1 -46 3 -4 6 3 6 15 0 11 5 24 10 27 13
8 13 45 1 45 -5 0 -12 -18 -16 -41z"/>
<path d="M2572 7408 c-7 -7 -12 -16 -12 -20 0 -4 -16 -24 -35 -44 -19 -20 -38
-47 -41 -60 -3 -13 -10 -24 -15 -24 -5 0 -16 -16 -24 -36 -14 -34 -14 -38 2
-51 16 -12 15 -13 -12 -7 -16 4 -32 11 -33 16 -6 13 -22 -2 -22 -20 0 -31 -28
-61 -51 -55 -16 4 -19 11 -14 27 4 11 8 32 10 46 1 14 0 17 -2 8 -4 -17 -16
-23 -36 -19 -5 1 -7 -11 -6 -27 2 -17 -3 -36 -14 -46 -20 -20 -21 -36 -6 -70
9 -18 21 -26 48 -29 l36 -4 -37 -1 c-36 -2 -37 -3 -31 -37 4 -28 2 -35 -11
-35 -10 0 -16 8 -16 24 0 54 -31 77 -45 34 l-7 -23 -7 25 c-4 14 -13 24 -20
22 -7 -1 -26 8 -43 20 -18 12 -28 17 -24 10 4 -7 1 -12 -9 -12 -12 0 -15 5
-11 16 7 19 -3 64 -15 64 -5 0 -9 -7 -9 -15 0 -18 -26 -20 -33 -2 -3 6 -6 -1
-6 -16 -1 -24 2 -27 19 -22 15 5 22 1 29 -17 11 -28 6 -38 -20 -38 -11 0 -19
-6 -17 -12 3 -19 -12 -60 -29 -80 -12 -13 -13 -26 -6 -55 7 -31 14 -39 36 -41
15 -2 27 -9 27 -17 0 -19 -38 -29 -55 -15 -9 8 -15 8 -20 0 -4 -6 -16 -8 -27
-4 -19 6 -20 3 -14 -29 5 -29 3 -38 -13 -46 -15 -9 -18 -18 -14 -49 4 -31 1
-44 -20 -65 -13 -15 -32 -27 -41 -27 -24 0 -19 13 14 35 23 16 26 21 15 28
-21 12 -59 -26 -52 -52 8 -30 -11 -36 -24 -8 -8 18 -7 32 5 62 20 47 21 45
-11 46 -28 0 -28 0 -5 11 18 9 29 8 51 -5 30 -17 54 -7 44 19 -6 16 -33 19
-33 4 0 -5 -4 -10 -10 -10 -19 0 -10 42 10 47 12 3 27 18 36 34 8 17 23 29 34
29 11 0 20 4 20 9 0 5 3 16 6 24 8 21 -47 13 -63 -9 -12 -17 -15 -16 -38 6
-19 18 -24 20 -19 7 3 -9 3 -25 -1 -34 -4 -10 -8 -29 -9 -42 -1 -13 -16 -36
-34 -51 -18 -14 -32 -31 -32 -38 0 -21 -21 -24 -41 -6 -16 15 -22 16 -28 5 -5
-7 -6 -21 -4 -31 3 -10 0 -28 -7 -40 -9 -16 -9 -25 1 -36 7 -9 8 -14 1 -14 -6
0 -17 9 -25 20 -18 25 -76 35 -84 14 -3 -7 -9 -11 -14 -8 -6 3 -16 0 -24 -6
-11 -9 -15 -9 -15 -1 0 20 -16 11 -17 -10 -2 -26 -14 -39 -20 -21 -3 6 -9 9
-14 6 -6 -3 -17 0 -26 8 -12 9 -15 10 -9 0 4 -7 1 -15 -8 -18 -9 -3 -16 -10
-16 -16 0 -5 5 -6 10 -3 6 3 10 1 10 -4 0 -6 -13 -11 -30 -11 -21 0 -30 5 -30
17 0 15 -1 15 -18 0 -25 -23 -35 -21 -27 3 5 16 2 20 -14 20 -12 0 -21 6 -21
13 0 7 -13 14 -30 15 -25 2 -30 -1 -30 -19 0 -15 5 -19 15 -15 11 4 15 -2 15
-22 0 -20 -3 -23 -10 -12 -5 8 -12 11 -16 7 -4 -3 5 -24 19 -46 25 -37 29 -39
57 -31 23 7 32 5 36 -4 10 -26 -5 -151 -22 -185 -22 -45 -14 -57 66 -88 36
-14 74 -33 85 -43 35 -31 83 -38 77 -11 -3 9 3 12 17 8 27 -7 37 9 14 22 -17
10 -17 12 5 30 12 11 22 25 22 33 1 9 5 7 14 -5 10 -13 16 -15 21 -7 5 9 10 9
14 1 4 -5 17 -8 29 -4 19 5 22 10 17 34 -5 23 -3 29 11 29 16 0 16 1 2 13 -19
15 -32 97 -14 97 13 0 32 -41 41 -92 9 -45 34 -57 69 -31 28 20 34 36 11 27
-8 -4 -15 -1 -15 5 0 6 11 16 24 21 13 4 33 24 45 43 12 19 28 38 37 41 22 9
71 7 58 -2 -5 -4 -16 -22 -24 -41 -7 -18 -22 -42 -33 -52 -25 -22 -16 -69 12
-69 11 0 49 29 86 65 36 36 70 65 75 65 4 0 4 -16 0 -34 -4 -19 -5 -37 -2 -40
3 -4 0 -6 -6 -6 -7 0 -12 -9 -12 -20 0 -21 -16 -28 -22 -9 -4 11 -30 -7 -85
-59 -21 -19 -24 -30 -21 -68 2 -35 0 -44 -12 -43 -28 2 -33 -1 -21 -15 6 -7
12 -26 12 -42 2 -46 9 -64 25 -64 8 0 14 -5 14 -11 0 -7 12 -9 36 -4 33 6 36
4 29 -12 -4 -10 -10 -40 -13 -67 -4 -43 -2 -50 23 -72 16 -13 40 -24 55 -24
14 0 30 -4 35 -9 6 -5 25 -12 44 -16 33 -7 34 -7 26 21 -5 16 -8 53 -8 82 l1
52 -44 0 c-24 0 -44 4 -44 9 0 9 127 22 147 14 19 -8 16 -20 -8 -26 -18 -5
-20 -12 -18 -56 2 -28 0 -54 -4 -57 -14 -14 -6 -23 26 -29 17 -4 44 -21 60
-38 15 -17 27 -25 27 -19 0 7 12 12 26 12 20 0 25 -4 20 -16 -3 -9 -6 -18 -6
-20 0 -2 -22 -4 -50 -4 -27 0 -50 -4 -50 -9 0 -9 28 -22 59 -27 8 -2 17 -7 20
-12 3 -5 16 -13 29 -16 28 -9 72 -77 72 -111 0 -16 6 -25 15 -25 8 0 15 -9 15
-19 0 -11 5 -23 11 -27 10 -6 43 -73 63 -128 5 -15 9 -17 18 -8 7 7 18 12 26
12 16 0 30 14 55 53 10 15 26 31 36 35 10 4 34 27 53 52 27 36 43 47 82 57 53
13 72 26 81 52 3 10 17 23 30 29 20 9 25 19 25 49 0 28 -3 34 -10 23 -9 -13
-10 -13 -10 1 0 8 4 19 10 25 5 5 12 23 14 39 6 48 17 69 27 53 6 -9 9 -4 9
15 0 15 5 27 10 27 6 0 10 7 10 15 0 8 11 17 25 21 14 3 25 12 25 20 0 8 4 14
8 14 4 0 14 16 21 35 7 19 18 35 24 35 7 0 6 4 -3 10 -8 5 -11 12 -7 16 3 4
13 1 21 -5 10 -9 16 -9 21 -1 5 8 13 6 26 -6 17 -16 24 -13 20 10 -1 4 20 6
47 3 31 -3 54 -1 62 6 10 9 14 9 17 0 3 -7 11 -13 19 -13 8 0 14 -9 14 -21 0
-11 4 -17 10 -14 6 4 17 1 25 -5 8 -7 15 -9 15 -6 0 10 44 -15 53 -30 4 -8 15
-14 22 -14 8 0 15 -6 15 -12 0 -9 4 -8 10 2 6 10 10 11 10 3 0 -7 7 -13 15
-13 9 0 27 -11 41 -25 14 -14 36 -25 50 -25 14 0 22 -4 19 -10 -3 -5 0 -10 8
-10 7 0 20 -11 27 -25 8 -15 21 -24 31 -23 10 2 31 -10 48 -26 17 -16 39 -30
48 -31 10 -1 31 -7 46 -14 16 -6 34 -11 42 -11 7 0 16 -9 20 -19 3 -11 15 -23
26 -26 19 -6 27 -35 9 -35 -6 0 -8 -23 -6 -55 3 -42 1 -55 -10 -55 -8 0 -14
-8 -14 -19 0 -10 -7 -24 -15 -31 -8 -7 -12 -16 -9 -22 3 -5 1 -15 -6 -23 -6
-7 -12 -24 -14 -37 -1 -13 -6 -30 -10 -37 -5 -8 3 -22 22 -39 16 -15 27 -33
25 -39 -3 -7 0 -13 5 -13 5 0 12 -12 14 -27 3 -16 9 -37 13 -47 7 -16 5 -18
-13 -14 -12 4 -25 2 -28 -3 -3 -5 -30 -9 -61 -9 -49 0 -76 -8 -150 -42 -11 -6
-26 -7 -32 -4 -21 13 -56 -6 -73 -40 -11 -22 -18 -58 -18 -95 0 -34 -7 -87
-15 -118 -8 -31 -18 -100 -23 -153 -8 -89 -11 -99 -38 -122 -24 -21 -37 -25
-74 -22 -25 2 -55 4 -67 5 -17 1 -21 5 -16 19 6 15 5 15 -10 3 -9 -7 -23 -11
-31 -8 -19 8 -29 -21 -13 -37 17 -18 77 -29 77 -14 0 6 3 8 6 5 12 -11 -18
-37 -42 -37 -12 0 -29 6 -36 13 -27 24 -57 36 -97 38 -23 2 -41 7 -41 12 0 5
-7 7 -15 3 -8 -3 -15 -2 -15 2 0 4 -21 14 -47 21 -58 17 -123 50 -123 62 0 5
-6 9 -13 9 -18 0 -21 -59 -3 -79 7 -9 16 -25 20 -36 3 -11 19 -29 35 -39 16
-11 36 -31 46 -45 9 -15 14 -18 11 -8 -3 10 -1 27 4 37 9 16 7 19 -17 17 -21
-2 -28 3 -33 23 -4 17 -8 21 -14 12 -12 -19 -26 -4 -26 28 0 34 18 49 34 29 6
-8 43 -25 81 -38 86 -30 157 -66 180 -91 10 -11 22 -17 27 -14 16 10 89 -7 95
-22 3 -8 -5 -35 -18 -59 -19 -35 -30 -45 -49 -45 -23 -1 -24 -2 -7 -14 10 -8
26 -12 36 -9 30 8 35 -16 6 -27 -41 -16 -113 -12 -142 8 -15 9 -46 17 -70 18
-39 0 -42 -2 -37 -22 3 -12 1 -25 -4 -28 -21 -13 -176 57 -232 104 -76 63
-140 84 -241 77 l-78 -5 -36 34 c-43 41 -108 168 -130 256 -19 74 -47 161 -56
168 -13 11 -79 132 -85 155 -3 14 -10 28 -15 31 -13 8 -11 62 2 70 8 5 10 31
6 82 -6 84 -27 125 -27 53 0 -47 0 -47 -67 -26 -34 11 -40 -19 -14 -71 11 -25
21 -51 21 -58 0 -8 4 -16 9 -18 13 -5 73 -118 62 -118 -5 0 -19 21 -32 48 -13
26 -36 59 -52 73 -17 15 -27 31 -23 38 4 6 2 19 -3 28 -9 16 -10 16 -11 -4 0
-16 -5 -20 -20 -16 -13 4 -20 0 -20 -10 0 -16 -20 -27 -51 -27 -10 0 -28 -13
-40 -30 -28 -37 -53 -48 -44 -20 5 16 2 20 -14 20 -33 0 -25 -30 19 -75 47
-48 36 -59 -17 -16 -38 29 -106 41 -119 20 -3 -5 4 -9 15 -9 32 0 25 -17 -9
-24 -17 -3 -31 -5 -33 -4 -5 2 -55 -47 -51 -51 2 -2 20 -7 41 -10 36 -6 60
-31 29 -31 -9 0 -16 -7 -16 -15 0 -8 -6 -12 -15 -9 -8 3 -24 -1 -37 -10 -12
-9 -42 -16 -65 -16 -27 0 -43 -5 -43 -12 0 -9 -3 -9 -12 0 -9 9 -14 6 -22 -11
-6 -12 -23 -27 -36 -34 -14 -7 -33 -22 -42 -34 -10 -12 -18 -16 -18 -10 0 17
-14 13 -44 -12 -23 -20 -25 -25 -13 -35 24 -20 223 -12 345 14 15 3 22 0 22
-12 0 -9 10 -24 23 -35 16 -14 18 -18 7 -19 -9 0 -21 5 -28 12 -9 9 -12 8 -13
-8 0 -10 -3 -13 -6 -6 -7 17 -30 15 -41 -4 -9 -16 -73 -43 -104 -44 -10 0 -18
-4 -18 -10 0 -5 -11 -10 -24 -10 -13 0 -29 -7 -36 -15 -11 -14 -15 -14 -37 0
-14 10 -33 13 -46 10 -12 -4 -17 -3 -11 2 12 9 39 72 33 77 -2 2 -20 5 -39 7
-45 3 -84 -16 -101 -50 -16 -30 -39 -56 -39 -44 0 4 -11 58 -24 120 -27 126
-22 143 31 126 21 -7 29 -18 35 -49 13 -64 15 -66 39 -53 19 10 21 17 16 59
-6 47 -5 48 24 54 17 3 39 1 49 -4 13 -7 21 -5 30 5 7 8 9 15 5 15 -4 0 -2 7
5 15 7 8 20 15 30 15 10 0 25 11 34 25 10 14 28 31 42 37 13 6 27 22 30 35 4
14 13 22 22 21 9 -2 18 5 20 16 2 11 0 16 -7 12 -15 -10 -14 0 3 27 10 15 12
34 7 62 l-7 40 -8 -52 c-6 -41 -19 -67 -59 -120 -69 -92 -65 -89 -177 -109 -8
-1 -58 -6 -110 -10 -80 -6 -109 -3 -184 15 -97 24 -115 32 -161 68 -80 62
-102 106 -109 213 -2 41 -10 90 -16 108 -7 18 -10 36 -6 39 3 3 2 11 -3 17
-10 12 -38 144 -46 218 -4 26 -1 57 5 68 9 17 8 20 -7 20 -10 0 -29 12 -42 25
-32 35 -36 26 -10 -26 36 -72 37 -79 48 -200 16 -167 15 -190 -7 -183 -14 5
-14 3 2 -10 20 -16 20 -16 0 -16 -35 1 -88 34 -95 60 -4 14 -8 45 -8 70 -1 25
-10 94 -21 154 -11 60 -20 114 -20 120 0 20 20 -19 31 -62 23 -87 19 -28 -4
75 -2 7 -10 19 -18 25 -9 7 -23 25 -32 41 -42 67 -45 10 -7 -102 11 -29 22
-81 25 -115 4 -33 8 -78 10 -98 3 -27 0 -38 -9 -38 -13 0 -85 52 -131 94 -14
13 -54 38 -90 55 -36 18 -65 36 -65 42 0 5 -9 9 -21 9 -23 0 -56 16 -77 37 -7
7 -24 13 -36 13 -34 0 -73 35 -80 72 -3 18 -6 60 -6 92 1 38 -3 62 -12 67 -22
14 -65 10 -72 -7 -8 -20 -8 -89 0 -97 3 -3 5 -67 5 -142 -2 -121 0 -139 16
-151 17 -13 17 -13 0 -14 -15 0 -17 -6 -11 -49 5 -40 2 -59 -16 -95 -23 -49
-36 -57 -43 -28 -3 9 -5 -2 -6 -25 -1 -56 21 -57 49 -4 11 22 26 44 34 48 7 4
21 23 30 41 9 17 19 32 22 32 7 0 -5 -58 -17 -80 -4 -8 -12 -30 -18 -47 -9
-30 -8 -33 13 -39 12 -3 44 -4 72 -2 47 3 49 4 48 33 -2 38 -31 192 -39 205
-3 6 -13 10 -21 10 -8 0 -14 4 -14 9 0 12 46 20 62 10 7 -5 25 -9 41 -9 15 0
27 -5 27 -11 0 -6 -7 -8 -16 -5 -35 14 -28 -6 20 -57 70 -74 163 -227 204
-337 7 -19 22 -55 33 -79 11 -24 23 -66 26 -92 5 -41 3 -48 -16 -54 -11 -3
-25 -3 -31 0 -5 3 -10 1 -10 -4 0 -6 4 -11 10 -11 5 0 16 -15 24 -33 7 -19 29
-46 47 -60 l34 -27 -32 0 c-23 0 -41 -9 -60 -29 -16 -15 -41 -35 -58 -44 -30
-16 -30 -16 30 -11 50 4 66 2 94 -16 42 -27 36 -33 -20 -21 -57 13 -126 14
-131 1 -3 -9 -18 1 -75 50 -25 21 -41 11 -40 -25 1 -20 6 -35 13 -35 18 0 37
-27 24 -35 -5 -3 -10 -17 -10 -31 0 -14 -6 -24 -15 -24 -15 0 -14 -10 10 -65
7 -16 16 -50 20 -75 4 -25 13 -67 21 -95 17 -62 19 -137 5 -190 -6 -22 -15
-69 -20 -104 -7 -42 -17 -72 -30 -85 -23 -22 -27 -12 -11 28 5 15 12 81 16
149 5 109 4 127 -14 167 -13 27 -21 37 -21 25 -1 -14 -4 -16 -13 -7 -8 8 -8
15 1 26 9 10 10 25 2 53 -5 21 -13 65 -17 98 l-8 60 -7 -45 c-4 -25 -5 -70 -2
-101 3 -34 1 -64 -6 -78 -12 -22 -5 -53 8 -33 4 6 12 7 20 3 11 -7 9 -13 -8
-30 -11 -11 -21 -30 -21 -42 0 -32 -46 -125 -77 -153 -18 -17 -23 -26 -13 -26
36 1 94 74 105 132 4 20 14 45 22 55 13 16 14 11 9 -46 -3 -45 -1 -60 6 -50
17 25 -1 -86 -22 -134 -26 -58 -40 -69 -79 -61 -41 9 -50 24 -13 24 34 0 64
29 87 84 20 48 10 60 -19 22 -11 -16 -32 -39 -45 -50 -63 -53 -71 -65 -71
-102 0 -49 -27 -152 -51 -193 -11 -19 -26 -57 -33 -85 l-13 -51 -11 70 c-31
193 -33 284 -13 460 10 83 9 109 -3 155 -11 41 -11 57 -3 62 22 14 25 8 21
-37 -4 -35 -1 -45 11 -45 12 0 15 -13 15 -61 0 -80 26 -173 47 -165 8 3 19 6
24 6 5 0 -3 19 -18 43 -24 36 -28 52 -28 117 0 71 1 75 24 78 l24 4 -24 12
c-21 10 -24 19 -26 71 -1 33 -7 90 -13 128 -11 64 -22 82 -34 55 -4 -9 -5 -8
-4 2 1 8 -3 26 -9 40 -6 14 -15 36 -21 50 -8 19 -11 -6 -11 -105 0 -71 5 -139
10 -150 9 -19 9 -19 5 1 -3 16 1 20 14 17 24 -6 14 -43 -11 -43 -18 0 -19 -36
-19 -1281 l0 -1281 32 5 c18 3 60 13 93 21 l60 14 -44 1 -45 1 21 19 c12 11
24 26 27 33 5 11 7 11 12 0 5 -10 9 -10 21 -1 19 16 33 -3 25 -34 -5 -18 -2
-19 34 -13 23 4 48 17 61 32 25 28 29 15 10 -30 -12 -27 -21 -31 -137 -57 -69
-16 -135 -31 -147 -34 -13 -3 -23 -9 -23 -14 0 -6 13 -6 33 0 17 5 75 18 127
29 52 11 102 22 110 25 13 4 15 -16 12 -148 -4 -143 -2 -157 22 -226 18 -52
23 -78 16 -87 -6 -6 -9 -18 -8 -25 2 -7 -7 -18 -19 -24 -13 -5 -23 -19 -23
-30 0 -18 -16 -25 -128 -54 -70 -18 -131 -38 -137 -43 -14 -15 63 -2 134 21
31 11 72 22 91 25 33 6 33 5 10 -6 -35 -17 -36 -18 -20 -28 17 -10 23 -7 -85
-39 -38 -12 -85 -24 -102 -27 -18 -4 -33 -10 -33 -15 0 -14 20 -11 110 16 47
14 87 24 91 23 4 -2 -27 -59 -70 -128 -42 -69 -89 -153 -104 -186 l-27 -62 0
-256 0 -256 1578 0 1578 0 12 33 c37 93 88 255 128 409 50 195 63 241 141 488
72 229 70 225 89 295 37 143 46 217 51 427 6 211 6 217 27 220 13 2 22 12 24
26 2 14 14 28 30 34 20 8 23 12 10 15 -9 2 -32 -3 -52 -11 -33 -14 -38 -14
-43 0 -8 22 -1 25 58 28 30 2 86 9 124 15 39 6 172 17 297 26 184 12 243 20
315 41 87 26 131 37 271 68 40 9 83 21 95 27 68 36 330 188 377 219 30 21 89
54 130 75 41 21 86 46 100 57 14 11 53 33 86 48 68 31 161 96 213 148 33 35
34 36 27 103 -5 60 -3 72 19 111 13 23 30 67 37 97 10 45 18 57 49 77 34 21
37 26 30 56 -5 19 -13 44 -20 57 -12 21 -8 28 63 95 l76 73 0 69 c1 41 7 79
15 94 8 14 14 39 13 55 l-1 30 -4 -28 c-3 -20 -14 -31 -37 -41 -19 -8 -37 -19
-40 -25 -4 -6 -12 -9 -17 -6 -5 4 -9 -1 -9 -9 0 -24 -19 -19 -30 8 -11 30 -22
37 -40 25 -13 -8 -13 -9 -1 -9 12 0 12 -3 3 -12 -7 -7 -12 -21 -12 -31 0 -14
-5 -18 -19 -14 -13 3 -18 0 -15 -8 3 -7 -6 -25 -20 -41 l-26 -29 -17 22 c-10
12 -31 25 -48 29 -16 4 -41 14 -55 23 -14 9 -43 24 -65 34 -22 10 -53 25 -68
33 -16 8 -46 14 -67 14 -21 0 -51 6 -67 14 -15 8 -47 23 -69 34 -47 21 -45 30
16 72 56 39 59 42 46 64 -8 14 -8 20 2 23 6 3 12 12 12 20 0 9 6 13 14 10 8
-3 20 1 26 9 7 8 20 14 30 14 9 0 29 11 44 25 15 14 40 32 57 40 16 9 27 20
24 24 -2 5 -31 -4 -62 -20 -32 -15 -65 -29 -74 -29 -8 0 -33 -13 -55 -29 -32
-24 -39 -36 -39 -63 0 -39 -19 -50 -23 -13 -5 42 -24 29 -20 -15 2 -24 -1 -40
-7 -40 -6 0 -16 -13 -22 -30 -10 -28 -15 -30 -61 -30 -28 0 -71 -9 -96 -19
-25 -11 -53 -20 -63 -20 -120 1 -142 -3 -182 -34 -23 -17 -41 -36 -41 -42 0
-13 -55 -42 -95 -49 -28 -6 -32 -3 -56 46 -16 34 -30 52 -40 49 -8 -2 -27 -6
-44 -9 -16 -3 -41 -12 -55 -21 l-25 -15 19 22 c35 41 -4 23 -50 -23 -61 -62
-97 -60 -167 6 -60 58 -140 99 -208 106 l-64 8 60 6 c182 20 348 67 405 115
18 15 196 34 318 34 99 0 140 17 194 83 44 53 57 57 236 66 99 5 135 10 142
21 12 20 1 33 -16 19 -11 -9 -14 -9 -14 0 0 8 -6 7 -16 -3 -21 -22 -194 -22
-254 -1 -65 23 -195 28 -215 9 -9 -10 -29 -15 -53 -13 -21 2 -43 0 -49 -4 -16
-10 -30 11 -43 65 -11 43 -10 49 9 69 24 25 13 51 -12 30 -21 -17 -29 21 -21
98 8 70 32 115 74 139 40 23 38 31 -7 26 -21 -2 -83 -6 -138 -9 -55 -2 -116
-7 -135 -11 -29 -5 -33 -4 -22 7 6 7 12 21 12 30 0 24 -97 59 -164 59 -31 0
-72 8 -96 19 -51 23 -63 20 -89 -25 -18 -30 -25 -34 -64 -34 -38 0 -49 5 -90
46 -40 39 -49 44 -67 34 -11 -6 -20 -18 -20 -28 0 -9 -7 -26 -15 -36 -13 -17
-15 -18 -21 -2 -4 9 1 36 10 59 9 24 16 56 15 72 l-1 30 -12 -35 c-6 -19 -18
-44 -26 -55 -15 -20 -95 -85 -104 -85 -3 0 -18 17 -33 37 -21 28 -28 49 -30
87 -2 66 -13 108 -31 122 -13 10 -14 18 -2 58 15 56 23 62 52 42 50 -35 52 -5
3 43 -28 27 -35 41 -35 74 0 32 3 37 13 28 8 -6 17 -8 20 -4 4 3 27 -2 53 -12
33 -12 42 -20 33 -26 -10 -6 -8 -9 7 -9 12 0 25 -8 28 -17 5 -12 10 -13 18 -5
6 6 17 7 27 2 9 -5 24 -11 34 -14 19 -6 24 -27 5 -24 -7 2 -12 -3 -10 -9 1 -7
-7 -13 -18 -13 -11 0 -20 5 -20 10 0 15 -39 12 -55 -4 -12 -12 -10 -14 14 -19
15 -3 44 -2 64 3 34 7 37 6 37 -15 0 -14 -7 -25 -20 -28 -16 -4 -20 -13 -19
-44 1 -21 4 -49 9 -63 9 -29 12 -22 31 60 17 78 78 252 93 270 17 19 46 118
40 135 -3 6 2 18 11 25 8 7 22 37 31 67 9 30 28 78 44 108 42 79 53 120 41
144 -7 13 -8 22 -1 26 5 3 11 0 11 -7 1 -7 5 5 8 27 4 24 1 58 -7 85 -8 25
-15 63 -17 85 -4 54 -42 168 -64 197 -10 13 -35 55 -55 93 -19 39 -47 81 -61
94 -14 13 -25 29 -25 36 0 16 -94 85 -116 85 -8 0 -13 4 -10 9 3 5 -6 12 -20
15 -14 4 -38 15 -53 26 -14 10 -44 22 -65 26 -34 6 -38 5 -33 -10 4 -10 3 -15
-3 -11 -6 3 -10 13 -10 20 0 18 -30 35 -55 31 -11 -2 -38 3 -60 9 -22 7 -73
12 -113 11 -59 -1 -72 1 -72 14 -1 12 -3 12 -14 -2 -17 -24 -26 -23 -26 3 0
16 -4 19 -20 14 -11 -3 -20 -3 -20 2 0 4 -24 9 -52 9 -55 2 -91 7 -120 19 -11
4 -18 3 -18 -4 0 -6 8 -12 18 -13 39 -4 48 -6 72 -16 22 -10 21 -11 -15 -6
-22 3 -53 10 -68 16 -22 9 -31 8 -37 -1 -5 -10 -9 -10 -14 -2 -4 6 -13 8 -19
4 -20 -13 -79 -13 -75 -1 2 6 28 12 57 14 31 1 60 9 70 18 10 9 20 14 22 12 2
-2 27 -7 54 -10 46 -4 48 -4 30 10 -16 12 -17 17 -7 23 10 6 7 10 -11 15 -24
6 -24 7 -12 43 8 24 10 44 4 55 -14 26 -12 43 4 29 18 -14 21 -102 5 -113 -10
-6 -9 -8 3 -8 9 0 24 9 34 20 18 20 45 27 45 13 0 -5 -7 -17 -15 -27 -8 -11
-15 -31 -15 -44 0 -20 4 -23 22 -19 14 4 29 0 41 -11 10 -9 18 -12 17 -7 -6
30 3 66 24 98 24 35 24 36 5 53 -23 21 -23 22 -3 70 l16 38 20 -32 c11 -18 25
-32 30 -32 6 0 5 6 -2 15 -10 12 -10 15 4 15 9 0 16 -4 16 -10 0 -5 7 -10 15
-10 10 0 15 10 14 33 -1 17 -3 24 -6 15 -3 -11 -10 -15 -21 -11 -25 9 -52 34
-51 47 5 39 -9 46 -37 19 -9 -10 -22 -18 -29 -19 -7 -1 -21 -5 -31 -8 -23 -7
-54 41 -54 84 0 17 -7 33 -17 39 -9 5 -18 20 -18 33 -1 12 -2 39 -3 58 l-2 34
-30 -34 c-16 -19 -29 -45 -30 -58 0 -17 -5 -23 -17 -20 -13 2 -19 14 -21 39
-3 34 0 38 42 63 59 34 64 69 12 86 -19 6 -42 23 -51 37 -16 23 -16 27 -2 35
9 4 25 34 37 66 19 50 20 62 9 94 -12 39 -26 47 -46 27 -8 -8 -13 -8 -17 0
-13 21 -23 11 -29 -28 -3 -22 -12 -54 -21 -72 -9 -18 -16 -46 -17 -63 -1 -29
-2 -29 -8 -7 -15 54 -26 27 -28 -67 -1 -67 1 -85 6 -59 8 40 25 65 34 50 8
-13 12 -102 4 -109 -4 -4 -7 -2 -7 4 0 7 -6 12 -14 12 -19 0 -54 -70 -62 -123
-4 -23 -11 -50 -16 -61 -7 -13 -6 -21 3 -27 24 -14 -14 -43 -45 -35 -38 9 -35
51 5 75 20 12 27 21 19 26 -6 4 -8 14 -5 24 21 48 25 93 12 119 -8 15 -26 53
-40 84 -22 47 -29 55 -46 51 -19 -5 -20 -2 -15 26 4 18 2 37 -5 45 -16 19 -48
9 -54 -16 -5 -16 -9 -18 -27 -8 -11 6 -30 8 -41 5 -14 -5 -25 -1 -33 11 -15
20 -10 54 8 51 6 -1 11 5 11 13 0 8 -5 15 -12 15 -17 0 -85 77 -76 86 4 3 18
10 30 14 18 5 25 1 35 -19 15 -34 32 -33 35 2 15 193 12 227 -15 200z m-75
-280 c-3 -7 -5 -2 -5 12 0 14 2 19 5 13 2 -7 2 -19 0 -25z m-77 -22 c0 -8 -4
-18 -10 -21 -5 -3 -10 3 -10 14 0 12 5 21 10 21 6 0 10 -6 10 -14z m580 7 c0
-5 -4 -14 -9 -21 -6 -10 -10 -9 -14 7 -3 14 0 21 9 21 8 0 14 -3 14 -7z m-489
-16 c-1 -12 -15 -9 -19 4 -3 6 1 10 8 8 6 -3 11 -8 11 -12z m-184 -43 c-9 -9
-28 6 -21 18 4 6 10 6 17 -1 6 -6 8 -13 4 -17z m640 -16 c-3 -7 -5 -2 -5 12 0
14 2 19 5 13 2 -7 2 -19 0 -25z m-586 15 c1 -13 8 -46 14 -70 4 -16 1 -23 -9
-23 -12 0 -26 46 -26 88 0 13 19 17 21 5z m99 -44 c0 -6 9 -8 20 -4 16 5 20 2
20 -19 0 -14 5 -28 10 -31 6 -3 10 -24 10 -45 0 -31 3 -38 15 -34 17 7 20 -13
5 -36 -6 -10 -10 -11 -10 -2 0 6 -5 12 -11 12 -7 0 -9 -10 -7 -25 3 -14 1 -25
-5 -25 -5 0 -2 -11 7 -25 20 -30 14 -45 -19 -45 -16 0 -28 -9 -37 -27 -32 -66
-60 -26 -30 44 18 42 18 47 3 62 -27 28 -55 87 -48 105 10 25 20 19 50 -31 15
-25 30 -43 34 -40 9 10 12 117 3 117 -5 0 -10 -6 -13 -12 -3 -9 -10 -8 -26 6
-26 23 -27 42 -3 55 22 13 32 14 32 0z m140 -32 c0 -7 -7 -22 -16 -33 -14 -17
-15 -17 -10 -1 3 10 6 25 6 33 0 8 5 14 10 14 6 0 10 -6 10 -13z m-460 -7 c0
-5 -4 -10 -10 -10 -5 0 -10 5 -10 10 0 6 5 10 10 10 6 0 10 -4 10 -10z m-70
-34 c0 -19 -5 -47 -11 -63 -10 -27 -11 -27 -25 -8 -15 20 -11 69 8 93 18 21
28 13 28 -22z m278 -9 c2 -10 -3 -17 -13 -17 -15 0 -15 -1 -1 -16 16 -15 13
-34 -4 -34 -8 0 -40 56 -40 71 0 8 29 18 45 14 6 -1 11 -9 13 -18z m-130 1
c16 -20 3 -68 -19 -68 -13 0 -19 -7 -19 -24 0 -23 -32 -42 -52 -30 -17 11 -8
43 14 46 12 2 24 9 26 17 3 9 0 12 -11 8 -8 -3 -23 1 -34 9 -17 14 -16 15 10
11 20 -3 27 0 27 13 0 9 3 20 7 23 11 11 40 8 51 -5z m452 -63 c0 -58 2 -65
20 -65 11 0 20 -7 20 -15 0 -18 -12 -19 -27 -4 -9 9 -18 5 -36 -15 l-25 -27
-11 32 c-15 44 -14 48 13 59 18 6 23 14 19 29 -7 26 4 71 17 71 6 0 10 -29 10
-65z m-295 -26 c4 -11 4 -23 1 -26 -3 -3 -1 -15 5 -25 8 -14 8 -23 0 -31 -6
-6 -11 -31 -11 -56 0 -81 38 -145 55 -91 8 25 52 60 77 60 11 0 16 -4 13 -10
-3 -5 -18 -10 -33 -10 -19 0 -23 -3 -13 -9 9 -6 10 -11 3 -15 -6 -4 -9 -13 -6
-20 5 -13 -18 -38 -32 -35 -11 3 -47 -12 -54 -21 -3 -4 -25 -21 -49 -38 -47
-34 -72 -42 -51 -17 7 8 19 15 26 15 21 0 17 18 -6 30 -11 6 -20 18 -20 26 0
9 9 18 20 21 15 4 20 14 20 42 0 21 -6 46 -14 56 -13 18 -14 18 -37 -6 -55
-55 -89 -82 -89 -70 0 12 28 39 95 95 l30 24 -20 24 c-12 12 -28 40 -38 61
-14 31 -14 37 -3 37 16 0 50 -44 66 -84 16 -44 30 -29 30 34 0 45 3 60 14 60
8 0 18 -9 21 -21z m371 -26 c-10 -10 -19 5 -10 18 6 11 8 11 12 0 2 -7 1 -15
-2 -18z m-176 3 c0 -8 -6 -16 -14 -19 -10 -4 -12 0 -9 14 6 22 23 26 23 5z
m-387 -37 c11 -15 12 -30 5 -62 -20 -91 -35 -122 -59 -125 -40 -5 -89 -23 -89
-32 0 -5 10 -12 22 -16 19 -6 19 -7 5 -16 -10 -5 -24 -5 -35 1 -14 7 -21 5
-31 -11 -12 -20 -11 -20 26 -14 l38 7 -35 -26 c-19 -14 -45 -28 -57 -32 -16
-4 -23 -13 -23 -30 0 -24 2 -25 43 -20 34 5 38 4 22 -5 -11 -6 -38 -13 -61
-16 -34 -3 -42 0 -46 15 -3 10 -9 27 -14 37 -5 14 -4 17 4 12 7 -4 21 -4 32
-1 16 5 20 15 20 47 0 38 26 98 42 98 4 0 8 6 8 14 0 7 8 20 17 27 10 8 14 9
10 2 -4 -6 -3 -14 3 -18 13 -8 80 13 80 25 0 4 -9 36 -20 71 -10 34 -17 66
-14 71 11 17 22 6 39 -39 10 -27 21 -52 25 -56 11 -12 22 57 14 87 -8 32 9 34
29 5z m707 -4 c7 -8 19 -15 26 -15 23 0 16 -37 -12 -59 -31 -24 -74 -28 -74
-6 0 8 9 19 20 25 15 8 18 17 13 40 -6 32 7 40 27 15z m-298 -21 c0 -13 1 -30
2 -36 1 -7 -7 -14 -18 -16 -10 -2 -16 0 -13 6 4 5 0 18 -8 28 -21 28 -18 39
10 40 20 2 25 -3 27 -22z m170 -4 c5 -34 -7 -41 -15 -8 -5 19 -2 38 7 38 2 0
6 -13 8 -30z m205 -61 c-5 -19 -2 -21 24 -17 16 3 29 1 29 -4 0 -4 -7 -8 -15
-8 -8 0 -15 -5 -15 -12 0 -6 -9 -3 -20 7 -21 19 -27 55 -9 55 7 0 9 -9 6 -21z
m-409 -28 c3 -8 -1 -12 -9 -9 -7 2 -15 10 -17 17 -3 8 1 12 9 9 7 -2 15 -10
17 -17z m145 -6 c4 -8 2 -17 -3 -20 -6 -4 -10 3 -10 14 0 25 6 27 13 6z m554
-37 c-3 -8 -6 -5 -6 6 -1 11 2 17 5 13 3 -3 4 -12 1 -19z m-1557 2 c0 -5 -4
-10 -10 -10 -5 0 -10 5 -10 10 0 6 5 10 10 10 6 0 10 -4 10 -10z m831 -29 c-6
-11 -21 -26 -34 -32 -18 -10 -17 -7 8 23 33 38 43 42 26 9z m-767 -16 c3 -8 3
-22 0 -30 -4 -8 1 -17 10 -21 9 -3 16 -13 16 -20 0 -8 10 -18 23 -23 25 -10
63 -59 52 -69 -3 -3 -17 6 -31 21 -14 15 -27 27 -31 27 -3 0 -3 -18 0 -40 4
-30 1 -42 -11 -49 -12 -7 -16 -22 -14 -53 1 -23 -1 -51 -4 -62 -10 -31 -24 3
-22 56 0 40 -4 51 -28 72 -29 25 -50 34 -39 17 3 -5 1 -12 -4 -16 -6 -3 -16 7
-24 21 l-14 28 -14 -25 c-7 -13 -23 -45 -36 -71 -21 -46 -43 -63 -43 -34 0 8
-7 22 -16 30 -14 15 -13 16 15 16 45 0 49 19 10 50 -29 24 -31 30 -20 44 13
15 16 15 36 -4 27 -25 35 -25 35 -1 0 24 18 37 32 23 6 -6 16 -8 24 -5 7 2 28
-7 47 -21 46 -35 58 -33 51 7 -10 55 -12 59 -35 52 -14 -5 -25 -1 -34 12 -21
26 -19 31 18 41 22 6 31 14 29 25 -4 21 14 22 22 2z m348 -27 c-6 -6 -15 -8
-19 -4 -4 4 -1 11 7 16 19 12 27 3 12 -12z m71 -6 c18 -37 7 -66 -35 -92 -40
-24 -58 -26 -35 -3 16 16 15 18 -14 30 -43 18 -27 33 34 34 29 0 45 3 37 6
-27 10 -39 24 -33 39 9 23 30 16 46 -14z m-570 7 c-8 -8 -16 -8 -30 0 -16 9
-14 10 12 11 21 0 26 -3 18 -11z m831 -51 c-44 -50 -45 -50 -64 -38 -13 8 -12
12 7 25 13 9 20 22 17 30 -4 8 -2 15 4 15 6 0 12 -6 15 -12 3 -10 10 -8 23 5
37 34 35 16 -2 -25z m-891 18 c6 -16 -2 -28 -14 -20 -12 7 -11 34 0 34 5 0 11
-6 14 -14z m115 -23 c4 -27 -5 -29 -30 -6 -24 22 -23 35 5 31 14 -2 23 -11 25
-25z m1368 -19 c-3 -9 -6 -23 -7 -32 -1 -10 -4 -7 -8 8 -9 28 -5 40 11 40 5 0
7 -7 4 -16z m-738 -20 c17 10 1 -32 -18 -49 -23 -21 -36 -14 -43 22 -7 39 10
59 34 37 10 -9 22 -13 27 -10z m-828 -54 c16 0 21 -5 18 -22 -2 -18 -11 -24
-35 -26 -23 -2 -33 -8 -33 -20 0 -13 -2 -14 -9 -3 -11 17 -23 -1 -15 -22 3 -8
1 -18 -4 -21 -5 -3 -12 11 -16 32 -3 20 -12 49 -20 64 -14 27 -14 27 22 30 21
2 45 0 54 -4 9 -5 26 -8 38 -8z m954 -5 c3 -8 1 -15 -4 -15 -6 0 -10 7 -10 15
0 8 2 15 4 15 2 0 6 -7 10 -15z m-44 -9 c0 -7 6 -19 13 -25 16 -12 21 -71 6
-71 -5 0 -9 7 -9 16 0 9 -9 27 -20 41 -24 30 -26 53 -5 53 8 0 15 -6 15 -14z
m400 -56 c7 -29 -10 -82 -25 -77 -5 2 -12 14 -13 28 -2 13 -8 28 -12 33 -13
13 9 48 28 44 9 -2 19 -14 22 -28z m-546 -20 c-4 -19 -2 -30 5 -30 7 0 11 -21
11 -55 0 -56 -13 -73 -24 -32 -8 30 -8 132 1 140 11 12 13 8 7 -23z m402 -4
c2 -14 2 -26 -1 -26 -9 0 -23 44 -18 53 7 12 13 3 19 -27z m-1215 -52 c-11
-30 -11 -38 2 -52 9 -11 11 -26 7 -42 l-6 -25 -16 30 c-14 25 -17 27 -23 13
-4 -10 -15 -18 -25 -18 -23 0 -53 34 -48 56 5 26 25 28 31 2 5 -18 9 -20 18
-11 10 10 10 18 1 38 -7 14 -12 34 -12 43 1 13 6 11 25 -10 l24 -28 7 23 c5
12 7 27 5 32 -1 6 3 4 10 -3 11 -10 11 -19 0 -48z m1085 32 c2 -6 5 -22 7 -36
4 -23 22 -32 22 -10 0 5 6 15 12 21 10 10 17 9 32 -5 10 -9 22 -13 25 -8 9 14
54 2 59 -16 3 -10 8 -24 11 -33 5 -12 -5 -25 -35 -48 -53 -38 -64 -39 -80 -2
-8 17 -16 26 -19 21 -8 -13 -82 8 -97 28 -16 19 -17 84 -2 99 12 12 59 5 65
-11z m344 4 c0 -5 -8 -10 -17 -10 -15 0 -16 2 -3 10 19 12 20 12 20 0z m-1316
-9 c3 -5 -1 -12 -10 -15 -10 -4 -14 -14 -11 -26 3 -10 -1 -24 -9 -31 -16 -13
-18 -1 -8 50 6 29 26 41 38 22z m1396 -17 c0 -2 -17 -4 -37 -3 -29 0 -33 2
-18 8 18 7 55 4 55 -5z m-785 -45 c8 -34 -5 -50 -35 -42 -12 3 -17 14 -16 34
1 28 16 43 16 15 0 -7 7 -19 15 -26 18 -15 21 1 5 31 -7 11 -7 19 -1 19 5 0
12 -14 16 -31z m637 9 c-3 -12 -7 -17 -10 -10 -2 6 -11 12 -20 13 -14 0 -13 2
3 9 31 13 34 12 27 -12z m723 -18 c3 -5 1 -10 -4 -10 -6 0 -11 5 -11 10 0 6 2
10 4 10 3 0 8 -4 11 -10z m-1439 -74 c0 -40 5 -60 18 -75 24 -27 61 -29 51 -3
-5 13 -3 14 5 6 7 -7 9 -21 5 -34 -6 -18 -9 -20 -16 -9 -6 9 -9 10 -9 2 0 -8
-9 -9 -27 -4 -16 4 -33 6 -39 4 -6 -2 -19 6 -29 17 -10 11 -28 20 -40 20 -27
0 -35 8 -28 26 6 17 33 19 33 2 0 -9 3 -9 12 0 9 9 15 9 26 0 11 -10 13 -7 11
18 -4 55 1 84 15 84 10 0 13 -15 12 -54z m155 -16 c10 -6 19 -21 20 -33 0 -21
1 -21 10 3 9 23 11 24 20 7 7 -13 14 -15 22 -8 9 7 11 -8 9 -65 -4 -75 8 -111
32 -97 6 3 8 3 4 -2 -6 -6 14 -35 24 -35 2 0 3 26 3 57 0 53 2 57 26 64 26 6
27 5 33 -45 4 -28 10 -68 13 -88 5 -32 3 -38 -12 -38 -9 0 -28 9 -42 20 -14
11 -29 18 -33 15 -4 -3 -28 6 -52 20 -23 14 -52 25 -64 25 -25 0 -65 41 -64
66 0 11 0 47 1 82 0 66 8 74 50 52z m332 -47 c-12 -32 -35 -63 -44 -58 -10 7
-1 33 20 56 21 23 32 23 24 2z m1204 1 c-3 -3 -12 -4 -19 -1 -8 3 -5 6 6 6 11
1 17 -2 13 -5z m-1664 -148 c14 -11 15 -15 4 -24 -7 -6 -22 -9 -32 -7 -11 2
-22 4 -25 4 -3 1 2 6 10 11 11 7 11 10 2 10 -7 0 -10 5 -7 10 8 14 26 12 48
-4z m-43 -50 c0 -11 -19 -15 -25 -6 -3 5 1 10 9 10 9 0 16 -2 16 -4z m286
-176 c8 0 14 -4 14 -8 0 -5 -13 -9 -30 -9 -25 0 -30 4 -30 24 0 22 1 23 16 9
8 -9 22 -16 30 -16z m468 -178 c-6 -4 -14 -17 -18 -29 -7 -23 -26 -32 -26 -13
0 6 4 10 9 10 5 0 11 9 14 20 3 11 11 20 19 20 9 0 9 -3 2 -8z m-2611 -74 c12
-7 24 -16 27 -19 3 -3 12 -9 20 -13 8 -3 2 -3 -15 0 -16 4 -37 7 -45 7 -15 0
-30 15 -30 30 0 11 17 9 43 -5z m122 -59 c4 -6 5 -12 2 -15 -7 -7 -37 7 -37
17 0 13 27 11 35 -2z m117 -81 c12 -7 28 -18 35 -25 11 -9 9 -11 -9 -10 -13 1
-31 10 -40 19 -29 29 -23 36 14 16z m-10 -60 c3 -22 17 -27 80 -29 10 0 22 -9
28 -19 5 -10 19 -21 29 -25 11 -3 29 -22 41 -42 17 -29 23 -34 31 -22 7 11 9
11 9 -3 0 -10 6 -18 13 -18 6 0 18 -13 25 -29 8 -17 19 -28 26 -25 21 8 110
-88 151 -162 22 -38 41 -71 45 -74 8 -7 37 -78 50 -125 6 -22 15 -49 19 -60
16 -41 42 -131 47 -165 10 -75 13 -293 3 -283 -5 5 -12 50 -14 98 -4 64 -10
97 -25 122 -22 37 -26 58 -10 48 6 -3 10 1 10 9 0 9 -8 16 -19 16 -19 0 -31
39 -31 100 0 14 -18 49 -40 79 -22 29 -40 64 -40 77 0 26 -15 33 -23 11 -3 -8
-1 -33 3 -58 8 -42 0 -147 -15 -199 -4 -14 7 2 25 35 18 33 35 64 40 68 21 23
28 -411 7 -462 -7 -17 -15 -29 -18 -27 -3 3 -5 -3 -5 -12 -1 -29 -15 -115 -20
-124 -6 -10 -13 -39 -21 -98 -3 -25 -11 -48 -16 -52 -6 -3 -10 -21 -9 -39 0
-19 -6 -49 -15 -67 -12 -25 -13 -36 -4 -45 6 -6 11 -19 11 -28 0 -10 5 -19 12
-21 8 -3 13 -38 15 -104 2 -106 -10 -95 -22 18 -5 47 -14 68 -46 110 -22 29
-46 52 -54 50 -7 -1 -16 2 -20 8 -3 6 0 7 9 4 27 -10 18 16 -18 52 -51 51
-100 132 -136 225 -20 51 -52 227 -44 240 2 3 4 49 5 103 1 53 3 96 5 96 15 0
83 -75 119 -131 25 -38 47 -69 50 -69 4 0 3 5 0 10 -7 11 -21 89 -35 195 -5
33 -11 74 -14 90 -5 26 -4 25 13 -10 11 -22 25 -79 31 -127 6 -48 18 -106 26
-130 l14 -43 -5 75 c-2 41 -4 110 -5 153 0 60 -3 77 -14 77 -15 0 -32 37 -22
48 3 3 13 -3 20 -14 14 -18 15 -18 21 11 4 17 15 53 25 80 10 28 24 68 31 90
6 22 18 52 27 66 13 23 13 30 -1 60 -9 19 -17 52 -19 74 -3 39 -4 40 -41 42
-44 1 -79 29 -107 83 -10 20 -30 42 -44 50 -16 8 -25 19 -21 27 3 8 0 11 -6 8
-6 -4 -7 -14 -3 -24 14 -34 44 -188 44 -232 0 -25 -5 -50 -12 -57 -14 -14 -32
-16 -24 -3 3 5 -14 49 -39 99 -25 50 -45 97 -45 105 0 8 -6 17 -14 20 -22 9
-59 247 -38 247 6 0 12 -10 14 -22z m94 -15 c-7 -7 -26 7 -26 19 0 6 6 6 15
-2 9 -7 13 -15 11 -17z m3423 -106 c12 -15 12 -17 -3 -11 -9 3 -16 13 -16 22
0 8 1 13 3 11 1 -2 9 -12 16 -22z m-3789 -37 c0 -5 -4 -10 -10 -10 -5 0 -10 5
-10 10 0 6 5 10 10 10 6 0 10 -4 10 -10z m3742 -108 c10 -10 7 -17 -13 -37
-24 -24 -27 -25 -65 -12 -22 8 -72 18 -112 22 -40 4 -71 9 -68 12 27 28 233
40 258 15z m-1835 -18 c-3 -3 -12 -4 -19 -1 -8 3 -5 6 6 6 11 1 17 -2 13 -5z
m-1417 -34 c0 -11 6 -40 12 -66 11 -40 11 -47 -3 -57 -9 -7 -18 -19 -21 -27
-2 -8 -8 5 -12 29 -4 25 -3 48 3 54 5 5 6 26 4 48 -4 25 -2 39 6 39 6 0 11 -9
11 -20z m3125 -40 c3 -5 -3 -10 -15 -10 -12 0 -18 5 -15 10 3 6 10 10 15 10 5
0 12 -4 15 -10z m82 -42 c-3 -8 -6 -5 -6 6 -1 11 2 17 5 13 3 -3 4 -12 1 -19z
m-2900 -27 c3 -11 24 -29 48 -40 37 -18 46 -28 64 -77 23 -59 62 -233 86 -374
8 -47 19 -86 25 -88 5 -2 10 -18 9 -35 -1 -31 -1 -31 -9 -7 -7 23 -8 23 -9 -9
-1 -25 -5 -32 -16 -27 -8 3 -15 0 -15 -6 0 -6 11 -8 30 -5 23 5 36 1 56 -18
17 -15 24 -30 20 -41 -7 -19 -26 -14 -40 12 -6 10 -12 21 -13 23 -2 2 -9 -2
-18 -9 -12 -10 -18 -10 -30 0 -8 6 -23 9 -35 5 -21 -7 -21 -6 -5 19 14 21 16
38 11 84 -9 73 -72 325 -91 362 -8 15 -19 50 -25 76 -9 39 -40 117 -67 167 -2
4 1 7 7 7 7 0 14 -9 17 -19z m-278 -77 c-14 -14 -17 -14 -29 0 -10 13 -10 19
0 32 12 14 15 14 29 0 14 -15 14 -17 0 -32z m-61 24 c14 -14 16 -48 4 -48 -8
0 -32 43 -32 55 0 9 16 5 28 -7z m575 -64 c15 -16 27 -43 30 -73 4 -25 9 -57
11 -70 3 -12 8 -44 11 -70 3 -25 8 -60 11 -77 4 -20 0 -43 -10 -63 -9 -17 -12
-31 -6 -31 5 0 10 -5 10 -11 0 -5 -4 -8 -10 -4 -5 3 -15 -7 -23 -22 l-15 -27
-6 35 c-18 88 -39 178 -51 219 -15 49 -35 162 -35 198 0 33 51 30 83 -4z
m-534 -42 c-31 -52 -33 -52 -26 -8 6 39 23 60 39 50 5 -3 -1 -22 -13 -42z
m-39 -38 c0 -13 -4 -24 -10 -24 -5 0 -10 6 -10 14 0 8 -5 16 -12 18 -7 3 -9
12 -5 22 6 15 10 16 22 6 8 -7 15 -23 15 -36z m78 3 c2 -10 -3 -17 -12 -17
-18 0 -29 16 -21 31 9 14 29 6 33 -14z m2872 -24 c0 -20 -17 -50 -24 -43 -2 3
-2 17 1 33 6 30 23 37 23 10z m-1457 -60 c-7 -2 -21 -2 -30 0 -10 3 -4 5 12 5
17 0 24 -2 18 -5z m-58 -143 c3 -5 2 -10 -3 -10 -5 0 -22 -11 -38 -25 -30 -26
-44 -31 -44 -16 0 12 26 32 33 25 3 -3 10 4 17 15 12 23 25 27 35 11z m1585
-62 c-24 -48 -66 -96 -125 -143 -45 -35 -85 -76 -85 -87 0 -5 -5 -8 -11 -8 -8
0 -8 4 1 15 6 8 9 19 6 24 -13 20 57 113 125 166 14 11 32 32 39 45 23 44 43
60 59 45 11 -11 10 -20 -9 -57z m750 62 c0 -5 -4 -10 -9 -10 -6 0 -13 5 -16
10 -3 6 1 10 9 10 9 0 16 -4 16 -10z m-835 -49 c-3 -6 -11 -11 -17 -11 -6 0
-6 6 2 15 14 17 26 13 15 -4z m-40 -21 c3 -5 0 -7 -8 -4 -9 3 -24 -6 -36 -22
-18 -23 -21 -24 -21 -7 0 35 49 60 65 33z m-1555 -8 c0 -4 -11 -19 -25 -34
-29 -32 -33 -64 -7 -72 27 -9 123 10 133 25 7 11 9 10 9 -3 0 -10 5 -18 10
-18 6 0 10 6 10 14 0 17 84 41 237 66 112 19 195 25 164 13 -11 -4 -8 -10 9
-23 l23 -17 -47 -7 c-25 -4 -46 -11 -46 -17 0 -17 -30 -9 -31 9 -1 16 -2 16
-6 0 -2 -10 -11 -18 -19 -18 -8 0 -13 -4 -9 -9 7 -13 -48 -51 -75 -51 -15 0
-20 -5 -17 -14 3 -8 -1 -17 -9 -20 -10 -4 -12 -2 -8 6 5 8 2 9 -9 5 -10 -4
-24 -10 -32 -13 -8 -3 -15 -1 -15 5 0 6 7 11 15 11 8 0 15 5 15 11 0 6 -3 9
-7 7 -5 -3 -23 -10 -40 -17 -18 -7 -33 -20 -34 -29 0 -14 -2 -14 -8 2 -7 17
-9 16 -28 -10 -12 -16 -25 -25 -29 -21 -10 10 7 37 32 51 10 6 22 16 26 21 5
6 8 4 8 -4 0 -8 2 -12 5 -9 10 10 -6 36 -25 41 -27 7 -62 -21 -55 -42 8 -26
-9 -69 -20 -51 -5 9 -4 15 3 18 15 5 15 29 0 38 -16 10 -83 24 -137 29 -53 5
-62 12 -37 31 17 12 17 14 4 14 -9 0 -20 5 -23 10 -4 6 -3 9 2 8 11 -4 63 37
63 50 0 9 9 15 28 21 1 1 2 -2 2 -7z m-1910 -46 c0 -3 -4 -8 -10 -11 -5 -3
-10 -1 -10 4 0 6 5 11 10 11 6 0 10 -2 10 -4z m3580 -26 c-22 -31 -40 -46 -40
-34 0 8 51 64 58 64 2 0 -6 -13 -18 -30z m-1800 12 c0 -5 -7 -9 -15 -9 -8 0
-12 4 -9 9 3 4 9 8 15 8 5 0 9 -4 9 -8z m-45 -13 c-4 -5 -32 -9 -63 -8 -40 1
-50 3 -32 8 39 11 101 11 95 0z m-128 -5 c-3 -3 -12 -4 -19 -1 -8 3 -5 6 6 6
11 1 17 -2 13 -5z m-67 -34 c0 -21 -15 -24 -60 -10 -24 7 -24 7 10 18 49 14
50 14 50 -8z m-1143 -52 c-3 -8 -6 -5 -6 6 -1 11 2 17 5 13 3 -3 4 -12 1 -19z
m1263 15 c0 -5 -5 -15 -10 -23 -9 -13 -12 -13 -23 1 -6 8 -25 15 -40 14 -15
-1 -30 2 -33 7 -3 4 20 8 50 8 31 0 56 -3 56 -7z m310 -35 c0 -19 -2 -20 -10
-8 -13 19 -13 30 0 30 6 0 10 -10 10 -22z m-372 -5 c2 -9 -7 -13 -27 -13 -31
0 -42 14 -18 23 19 8 40 3 45 -10z m-718 -33 c0 -11 -4 -20 -10 -20 -5 0 -10
9 -10 20 0 11 5 20 10 20 6 0 10 -9 10 -20z m1470 0 c-19 -12 -30 -12 -30 -1
0 10 31 20 40 14 2 -2 -2 -8 -10 -13z m-1938 -26 c-9 -7 -19 -9 -22 -6 -3 4
-9 10 -13 13 -4 3 6 6 23 6 26 0 27 -2 12 -13z m846 -4 c11 -18 10 -20 -14
-20 -22 0 -24 -3 -15 -14 9 -10 9 -16 1 -21 -8 -5 -6 -14 4 -30 14 -21 14 -26
0 -52 l-15 -28 6 35 7 35 -25 -29 c-13 -16 -31 -26 -38 -24 -10 3 -4 15 20 38
21 22 29 36 21 38 -9 3 -9 7 1 13 11 8 11 11 -4 20 -17 10 -16 12 5 35 28 29
30 29 46 4z m-320 -8 c2 -7 -3 -12 -12 -12 -9 0 -16 7 -16 16 0 17 22 14 28
-4z m2253 -2 c5 0 9 -4 9 -10 0 -16 -26 -12 -41 7 -12 15 -12 16 4 10 10 -4
23 -7 28 -7z m83 -38 c-15 -17 -33 -28 -41 -25 -9 4 -1 14 24 33 21 16 39 27
41 26 1 -2 -9 -17 -24 -34z m-2882 -7 c3 -13 1 -22 -3 -19 -9 5 -13 44 -5 44
2 0 6 -11 8 -25z m908 -4 c13 -25 13 -41 0 -21 -6 10 -10 11 -10 3 0 -7 -7
-13 -15 -13 -8 0 -15 5 -15 10 0 6 5 10 11 10 8 0 8 5 -1 15 -10 12 -10 15 3
15 9 0 21 -9 27 -19z m-417 -21 c-3 -11 -9 -20 -14 -20 -10 0 -12 33 -3 43 12
12 22 -3 17 -23z m-13 -50 c0 -11 -5 -20 -11 -20 -5 0 -7 -4 -4 -10 3 -5 0
-10 -8 -10 -19 0 -28 35 -14 49 18 18 37 13 37 -9z m530 14 c0 -20 -144 -103
-157 -90 -11 11 44 56 69 56 13 0 31 9 41 20 15 18 47 28 47 14z m3425 -23 c8
-14 -10 -22 -30 -15 -13 5 -14 8 -3 15 17 11 26 11 33 0z m-3921 -54 c-7 -21
-21 -37 -36 -37 -12 0 -10 17 8 58 13 32 17 35 25 19 6 -9 7 -27 3 -40z m596
39 c0 -3 -4 -8 -10 -11 -5 -3 -10 -1 -10 4 0 6 5 11 10 11 6 0 10 -2 10 -4z
m-58 -54 c-11 -11 -29 -23 -41 -27 -12 -3 -21 -14 -21 -24 0 -14 -6 -17 -25
-13 -30 5 -28 26 3 30 12 2 22 8 22 13 0 5 6 9 13 9 8 0 24 12 38 26 13 14 25
21 27 15 2 -5 -6 -19 -16 -29z m521 23 c-3 -9 -8 -14 -10 -11 -3 3 -2 9 2 15
9 16 15 13 8 -4z m-343 -10 c0 -8 -9 -15 -20 -15 -11 0 -20 -4 -20 -10 0 -5
-9 -10 -20 -10 -11 0 -20 -6 -20 -12 0 -13 -44 -38 -67 -38 -7 0 -13 5 -13 10
0 6 9 10 20 10 11 0 23 7 26 15 4 8 10 15 16 15 5 0 21 11 36 25 30 28 62 33
62 10z m-790 -4 c0 -6 -4 -13 -10 -16 -5 -3 -10 1 -10 9 0 9 5 16 10 16 6 0
10 -4 10 -9z m2657 -67 c-3 -3 -12 -4 -19 -1 -8 3 -5 6 6 6 11 1 17 -2 13 -5z
m-2584 -40 c-4 -77 -21 -153 -42 -187 -28 -45 -35 -47 -27 -7 3 19 2 29 -4 25
-6 -4 -10 7 -10 24 0 16 5 33 10 36 6 3 10 19 10 36 0 16 5 29 10 29 6 0 10
11 10 25 0 15 6 25 15 25 9 0 12 6 8 16 -4 12 -2 15 8 12 8 -3 13 -17 12 -34z
m421 11 c3 -9 0 -15 -9 -15 -8 0 -15 -4 -15 -10 0 -5 -7 -10 -16 -10 -9 0 -27
-9 -41 -20 -31 -24 -73 -27 -73 -5 0 8 9 15 20 15 11 0 23 7 26 15 4 8 14 15
23 15 9 1 27 7 41 15 32 18 37 18 44 0z m126 -15 c-8 -5 -24 -9 -35 -9 -16 1
-16 2 5 9 35 11 48 11 30 0z m-63 -32 c-3 -8 -6 -5 -6 6 -1 11 2 17 5 13 3 -3
4 -12 1 -19z m-750 -120 c-3 -8 -6 -5 -6 6 -1 11 2 17 5 13 3 -3 4 -12 1 -19z
m-441 -33 c3 -19 9 -37 13 -39 7 -5 -7 -282 -17 -314 -4 -12 -7 17 -7 65 -1
49 -6 106 -12 128 -6 22 -15 75 -18 118 -7 73 -6 77 13 77 16 0 23 -8 28 -35z
m3828 9 c9 -23 4 -24 -16 -2 -14 14 -15 18 -4 18 8 0 17 -7 20 -16z m-3767
-16 c-3 -8 -6 -5 -6 6 -1 11 2 17 5 13 3 -3 4 -12 1 -19z m283 -53 c0 -30 -4
-55 -10 -55 -5 0 -10 25 -10 55 0 30 5 55 10 55 6 0 10 -25 10 -55z m35 -13
c-8 -9 -25 20 -18 31 3 5 10 2 15 -7 6 -10 7 -20 3 -24z m4248 -4 c9 -31 2
-33 -11 -3 -6 14 -8 25 -3 25 5 0 11 -10 14 -22z m-482 -31 c-10 -9 -11 -8 -5
6 3 10 9 15 12 12 3 -3 0 -11 -7 -18z m199 2 c0 -6 -4 -7 -10 -4 -5 3 -10 11
-10 16 0 6 5 7 10 4 6 -3 10 -11 10 -16z m1245 -48 c-8 -27 13 -36 36 -15 10
9 20 13 20 8 3 -25 -5 -49 -22 -68 -17 -18 -21 -19 -29 -6 -8 13 -10 12 -10
-3 0 -10 -5 -15 -10 -12 -7 4 -7 12 0 25 15 28 12 32 -10 18 -11 -7 -18 -19
-15 -25 2 -7 0 -13 -5 -13 -6 0 -10 5 -10 11 0 6 -7 9 -15 5 -30 -11 -14 23
27 58 48 41 52 43 43 17z m-5645 -194 c6 -65 14 -135 16 -155 4 -31 3 -33 -5
-15 -14 31 -41 233 -40 296 1 46 2 48 9 22 5 -16 14 -83 20 -148z m4769 160
c18 -23 24 -72 9 -84 -22 -17 -67 -21 -85 -7 -11 8 -13 13 -5 14 6 0 12 12 12
27 0 25 1 25 18 10 23 -21 38 -22 46 -2 3 8 1 15 -5 15 -6 0 -7 5 -3 11 3 6 0
15 -7 20 -8 5 -9 9 -3 9 6 0 17 -6 23 -13z m-189 -7 c-36 -12 -70 -12 -70 0 0
6 21 10 48 9 38 -1 42 -2 22 -9z m-4193 -52 c-3 -8 -6 -5 -6 6 -1 11 2 17 5
13 3 -3 4 -12 1 -19z m5143 -20 c0 -6 -7 -5 -15 2 -8 7 -15 17 -15 22 0 6 7 5
15 -2 8 -7 15 -17 15 -22z m-5120 -29 c0 -5 -4 -9 -10 -9 -5 0 -10 7 -10 16 0
8 5 12 10 9 6 -3 10 -10 10 -16z m-375 -259 c3 -5 -1 -10 -9 -10 -9 0 -16 5
-16 10 0 6 4 10 9 10 6 0 13 -4 16 -10z m170 -185 c20 -9 24 -14 13 -14 -10
-1 -18 -5 -18 -10 0 -5 8 -12 18 -14 9 -3 -4 -2 -30 0 -27 3 -48 3 -48 -1 0
-7 50 -30 61 -28 3 0 10 -8 17 -19 10 -15 10 -19 0 -19 -9 0 -8 -3 2 -10 13
-8 13 -9 0 -13 -8 -2 -37 -12 -65 -21 -27 -10 -70 -20 -95 -22 -25 -2 -74 -9
-109 -15 -45 -7 -67 -7 -74 0 -6 6 -19 11 -29 11 -18 0 -20 11 -20 90 -1 28
25 48 86 69 88 29 244 38 291 16z m-190 -342 c14 -14 18 -14 26 -2 7 11 9 9 9
-8 0 -13 -4 -23 -9 -23 -5 0 -11 -13 -14 -30 -5 -24 -12 -30 -31 -30 -13 0
-31 -3 -39 -6 -10 -3 -17 1 -20 13 -2 11 -7 1 -12 -24 -13 -72 -33 -53 -34 31
l-1 74 32 5 c19 2 36 0 41 -7 5 -7 11 -6 18 7 12 21 14 21 34 0z m79 -5 c9
-34 7 -68 -3 -68 -11 0 -25 39 -17 47 3 3 1 14 -5 24 -7 14 -6 19 4 19 8 0 17
-10 21 -22z m-89 -123 c0 -15 -8 -20 -38 -22 -33 -2 -37 0 -27 12 7 8 16 12
21 9 5 -3 9 2 9 11 0 10 7 15 18 13 9 -2 17 -12 17 -23z m127 -389 c3 -5 1
-18 -5 -29 -10 -15 -9 -21 2 -25 11 -4 11 -6 0 -13 -11 -6 -11 -11 -2 -20 6
-6 9 -18 6 -26 -5 -12 -7 -12 -14 -1 -6 9 -9 2 -9 -19 0 -18 4 -33 9 -33 8 0
9 -20 2 -62 0 -4 -8 -5 -17 -1 -10 3 -12 8 -5 12 13 8 3 81 -11 81 -6 0 -7 22
-4 53 3 28 5 62 6 75 0 16 5 22 18 20 9 -2 20 -7 24 -12z m-125 -171 c2 -25
-1 -35 -12 -35 -10 0 -14 10 -13 35 2 45 22 45 25 0z m-49 -36 c4 -24 3 -24
-12 -4 -19 24 -20 38 -3 33 6 -3 13 -15 15 -29z m47 -19 c3 -5 -1 -10 -10 -10
-9 0 -13 5 -10 10 3 6 8 10 10 10 2 0 7 -4 10 -10z m-31 -62 c7 -5 5 -8 -5 -8
-18 0 -32 24 -21 35 4 3 8 0 11 -7 2 -7 9 -16 15 -20z m39 25 c-7 -2 -19 -2
-25 0 -7 3 -2 5 12 5 14 0 19 -2 13 -5z"/>
<path d="M2570 6223 c0 -5 4 -15 10 -23 11 -18 25 -7 17 15 -6 15 -27 21 -27
8z"/>
<path d="M2250 6010 c0 -11 4 -20 9 -20 5 0 7 9 4 20 -3 11 -7 20 -9 20 -2 0
-4 -9 -4 -20z"/>
<path d="M598 5093 c7 -3 16 -2 19 1 4 3 -2 6 -13 5 -11 0 -14 -3 -6 -6z"/>
<path d="M678 5024 c14 -27 39 -47 45 -37 2 4 -9 19 -26 32 -26 22 -28 22 -19
5z"/>
<path d="M750 4976 c0 -9 5 -16 10 -16 6 0 10 4 10 9 0 6 -4 13 -10 16 -5 3
-10 -1 -10 -9z"/>
<path d="M820 4838 c0 -9 5 -20 10 -23 13 -8 13 5 0 25 -8 13 -10 13 -10 -2z"/>
<path d="M795 4730 c-3 -5 -2 -10 4 -10 6 0 13 -23 17 -50 4 -28 9 -49 11 -46
3 2 2 29 -2 60 -7 53 -16 68 -30 46z"/>
<path d="M791 4694 c0 -11 3 -14 6 -6 3 7 2 16 -1 19 -3 4 -6 -2 -5 -13z"/>
<path d="M700 4172 c0 -5 7 -17 15 -28 8 -10 15 -27 15 -37 0 -10 7 -25 15
-33 8 -9 15 -33 15 -55 0 -21 4 -39 9 -39 13 0 20 36 10 51 -5 8 -9 24 -9 37
0 12 -5 21 -12 20 -8 -2 -14 10 -16 30 -2 17 -8 32 -13 32 -6 0 -8 4 -5 9 3 5
-1 11 -9 15 -8 3 -15 2 -15 -2z"/>
<path d="M601 3944 c0 -11 3 -14 6 -6 3 7 2 16 -1 19 -3 4 -6 -2 -5 -13z"/>
<path d="M153 2766 c14 -14 21 -16 30 -7 8 8 8 11 0 11 -6 0 -20 3 -30 7 -17
7 -17 6 0 -11z"/>
<path d="M2689 7395 c0 -16 -2 -63 -4 -102 -2 -55 0 -73 10 -73 19 0 54 -52
61 -89 4 -17 8 -31 9 -31 2 0 18 14 35 30 28 27 31 34 22 53 -6 12 -13 41 -15
65 -3 24 -8 46 -11 49 -3 3 -19 0 -36 -7 -17 -7 -33 -10 -36 -8 -2 3 -7 30
-11 59 -7 65 -22 99 -24 54z m101 -156 c0 -5 -4 -9 -10 -9 -5 0 -10 7 -10 16
0 8 5 12 10 9 6 -3 10 -10 10 -16z"/>
<path d="M2186 7376 c-4 -19 -12 -37 -19 -39 -7 -2 -9 -8 -4 -12 4 -5 12 -4
18 2 13 13 29 83 19 83 -4 0 -11 -15 -14 -34z"/>
<path d="M2644 7385 c-3 -14 -9 -23 -13 -21 -7 5 -9 -13 -13 -121 -2 -46 -7
-83 -12 -83 -5 0 -4 -6 2 -13 6 -7 9 -25 8 -40 -4 -37 20 -56 39 -31 19 25 18
34 -2 56 -14 16 -15 25 -5 66 17 65 25 212 12 212 -5 0 -12 -11 -16 -25z"/>
<path d="M2070 7305 c0 -30 5 -55 10 -55 6 0 10 5 10 11 0 6 10 9 23 7 12 -1
23 1 25 5 5 17 1 27 -12 27 -7 0 -19 14 -26 30 -19 45 -30 36 -30 -25z"/>
<path d="M2351 7334 c0 -11 3 -14 6 -6 3 7 2 16 -1 19 -3 4 -6 -2 -5 -13z"/>
<path d="M27 7318 c-7 -26 11 -54 26 -39 5 5 6 18 2 28 -5 10 -7 21 -7 26 4
18 -16 5 -21 -15z"/>
<path d="M1300 7326 c0 -8 -11 -17 -25 -20 -14 -4 -49 -30 -78 -58 -41 -41
-48 -52 -34 -55 22 -6 22 -15 -4 -36 -11 -10 -18 -21 -14 -25 4 -4 15 3 25 15
10 13 31 28 46 34 26 9 27 12 12 23 -15 11 -12 18 37 62 51 46 68 74 45 74 -5
0 -10 -6 -10 -14z"/>
<path d="M2130 7330 c0 -5 5 -10 11 -10 5 0 7 5 4 10 -3 6 -8 10 -11 10 -2 0
-4 -4 -4 -10z"/>
<path d="M1830 7315 c0 -8 5 -15 10 -15 6 0 10 7 10 15 0 8 -4 15 -10 15 -5 0
-10 -7 -10 -15z"/>
<path d="M1360 7311 c0 -6 -7 -11 -15 -11 -8 0 -15 -4 -15 -10 0 -15 26 -12
39 4 8 10 9 16 1 21 -5 3 -10 1 -10 -4z"/>
<path d="M1956 7305 c-3 -8 -1 -15 4 -15 6 0 10 7 10 15 0 8 -2 15 -4 15 -2 0
-6 -7 -10 -15z"/>
<path d="M4884 7274 c3 -9 6 -25 6 -35 0 -11 4 -18 8 -15 12 7 2 66 -10 66 -6
0 -7 -7 -4 -16z"/>
<path d="M3020 7270 c0 -5 5 -10 10 -10 6 0 10 5 10 10 0 6 -4 10 -10 10 -5 0
-10 -4 -10 -10z"/>
<path d="M3047 7268 c-4 -13 22 -68 33 -68 3 0 5 17 5 37 0 27 -5 39 -16 41
-10 2 -19 -3 -22 -10z"/>
<path d="M1776 7253 c-3 -10 -9 -24 -12 -31 -5 -11 -2 -12 14 -3 11 6 19 17
18 26 -3 23 -13 27 -20 8z"/>
<path d="M2330 7250 c0 -5 5 -10 10 -10 6 0 10 5 10 10 0 6 -4 10 -10 10 -5 0
-10 -4 -10 -10z"/>
<path d="M1946 7212 c-11 -22 -12 -32 -3 -41 8 -8 8 -11 -1 -11 -7 0 -21 -15
-32 -32 -21 -35 -27 -63 -10 -53 6 3 10 15 10 26 0 11 5 17 10 14 6 -3 10 -1
10 5 0 6 11 15 25 20 14 5 25 15 25 22 0 7 9 19 20 26 24 14 28 44 5 36 -8 -4
-22 -1 -30 6 -11 9 -17 6 -29 -18z m51 -8 c-3 -3 -12 -4 -19 -1 -8 3 -5 6 6 6
11 1 17 -2 13 -5z"/>
<path d="M1235 7220 c-3 -5 -2 -10 4 -10 5 0 13 5 16 10 3 6 2 10 -4 10 -5 0
-13 -4 -16 -10z"/>
<path d="M3120 7194 c0 -19 4 -33 8 -30 8 5 4 66 -4 66 -2 0 -4 -16 -4 -36z"/>
<path d="M1830 7200 c-14 -4 -20 -9 -15 -10 6 -1 17 -3 25 -5 8 -1 21 4 28 11
15 16 4 17 -38 4z"/>
<path d="M4900 7178 c0 -16 5 -28 10 -28 13 0 13 20 0 40 -8 12 -10 9 -10 -12z"/>
<path d="M1790 7169 c0 -5 5 -7 10 -4 6 3 10 8 10 11 0 2 -4 4 -10 4 -5 0 -10
-5 -10 -11z"/>
<path d="M16 7155 c-3 -8 -1 -15 4 -15 6 0 10 7 10 15 0 8 -2 15 -4 15 -2 0
-6 -7 -10 -15z"/>
<path d="M970 7141 c-25 -9 -56 -24 -70 -34 -13 -9 -32 -17 -42 -17 -12 0 -18
-8 -18 -21 0 -19 -4 -20 -39 -14 -35 6 -40 4 -46 -16 -5 -16 -2 -26 11 -36 23
-17 36 -13 49 15 5 12 17 22 26 22 9 0 22 7 29 15 7 8 17 12 23 8 6 -4 4 -11
-7 -18 -14 -11 -13 -13 11 -13 26 0 48 18 102 83 7 9 19 14 27 11 9 -3 14 2
14 14 0 23 -9 23 -70 1z"/>
<path d="M3110 7121 c0 -25 6 -27 13 -6 4 8 2 17 -3 20 -6 4 -10 -3 -10 -14z"/>
<path d="M4794 7103 c15 -55 18 -63 27 -63 12 0 12 37 -1 61 -13 24 -33 25
-26 2z"/>
<path d="M1005 7068 c-57 -42 -58 -63 -1 -26 33 21 55 48 38 48 -4 0 -20 -10
-37 -22z"/>
<path d="M1121 7074 c0 -11 3 -14 6 -6 3 7 2 16 -1 19 -3 4 -6 -2 -5 -13z"/>
<path d="M2784 7039 c8 -51 45 -141 56 -134 4 2 8 33 9 68 1 59 0 64 -28 85
-17 12 -33 22 -37 22 -4 0 -4 -19 0 -41z"/>
<path d="M3136 7044 c-9 -24 -7 -54 4 -54 6 0 10 12 10 26 0 17 4 23 13 18 8
-5 8 -2 -2 9 -17 21 -17 21 -25 1z"/>
<path d="M1106 6998 c-4 -29 -11 -73 -16 -98 -5 -25 -12 -63 -14 -85 -2 -22
-9 -74 -14 -115 -6 -41 -14 -118 -17 -170 -4 -52 -11 -113 -16 -135 -12 -52
-18 -296 -7 -289 4 3 8 49 8 104 0 97 0 98 23 93 12 -3 29 -11 37 -18 17 -13
50 -27 50 -20 0 2 -6 19 -14 37 -8 18 -18 42 -22 53 -6 19 -7 19 -13 -3 -6
-21 -7 -22 -28 -7 -29 20 -30 58 -3 92 11 14 20 31 20 37 0 6 -4 4 -10 -4 -16
-26 -22 -3 -7 27 9 16 18 47 21 68 4 31 3 34 -3 15 -8 -22 -9 -20 -10 18 -1
24 2 41 7 39 4 -3 7 17 7 45 0 27 5 54 12 60 8 6 10 27 7 59 -3 27 -2 54 2 60
11 19 20 177 9 187 -1 2 -6 -21 -9 -50z"/>
<path d="M1632 7013 c-18 -34 -23 -82 -13 -119 7 -27 7 -40 -2 -49 -16 -16
-57 -2 -57 20 0 30 -28 14 -44 -25 -13 -33 -14 -44 -4 -60 7 -11 16 -20 20
-20 5 0 8 -9 8 -19 0 -11 5 -23 10 -26 6 -4 10 10 10 35 0 37 2 41 20 35 12
-4 20 -2 20 5 0 14 25 40 39 40 6 0 8 -6 5 -14 -3 -8 0 -17 7 -22 8 -4 10 -3
5 4 -4 7 -2 12 5 12 7 0 9 8 6 21 -3 12 0 22 9 26 21 8 29 -4 14 -22 -10 -12
-10 -15 3 -15 8 0 17 6 20 13 6 20 -4 47 -19 47 -7 0 -20 10 -28 23 -17 26
-10 77 10 77 8 0 14 3 14 8 -1 13 -27 42 -38 42 -6 0 -15 -8 -20 -17z"/>
<path d="M3062 7008 c-17 -17 -15 -28 7 -28 14 0 19 6 18 20 -1 23 -8 25 -25
8z"/>
<path d="M4840 6991 c-12 -24 -14 -69 -1 -55 10 11 25 74 17 74 -3 0 -10 -9
-16 -19z"/>
<path d="M860 6980 c0 -5 5 -10 11 -10 5 0 7 5 4 10 -3 6 -8 10 -11 10 -2 0
-4 -4 -4 -10z"/>
<path d="M1809 6973 c-3 -30 -9 -48 -18 -51 -14 -5 -14 -22 -1 -22 8 0 40 61
40 76 0 8 -20 4 -21 -3z"/>
<path d="M1730 6870 c0 -5 4 -10 9 -10 6 0 13 5 16 10 3 6 -1 10 -9 10 -9 0
-16 -4 -16 -10z"/>
<path d="M1587 6763 c-3 -4 3 -19 14 -32 11 -13 19 -17 19 -10 -1 19 -27 52
-33 42z"/>
<path d="M1388 6708 c0 -7 -1 -20 -2 -28 -1 -8 -16 -19 -33 -25 -18 -5 -33
-14 -33 -20 0 -6 -9 -21 -21 -33 -25 -28 -16 -45 21 -37 22 5 29 2 33 -12 4
-16 5 -17 6 0 0 9 6 17 12 17 6 0 9 7 6 15 -4 8 -2 17 3 20 6 4 10 1 10 -4 0
-6 7 -11 15 -11 12 0 15 9 12 33 -2 18 -6 38 -10 44 -4 6 -3 14 2 18 5 3 13
-1 18 -8 7 -12 13 -12 41 0 46 19 41 37 -8 30 -22 -3 -40 -1 -40 4 0 14 -30
11 -32 -3z m-43 -78 c3 -5 1 -10 -4 -10 -6 0 -11 5 -11 10 0 6 2 10 4 10 3 0
8 -4 11 -10z"/>
<path d="M5075 6693 c-27 -8 -75 -19 -105 -24 -30 -6 -58 -14 -63 -18 -4 -4 4
-61 18 -127 42 -191 107 -514 116 -576 5 -32 15 -88 23 -125 8 -38 24 -120 36
-183 11 -63 25 -131 30 -150 5 -19 12 -57 15 -85 6 -45 18 -118 45 -260 5 -27
11 -72 14 -100 3 -27 12 -86 21 -130 8 -44 15 -92 15 -107 0 -24 4 -28 30 -28
38 0 38 -15 1 218 -5 31 -17 107 -25 167 -9 61 -21 130 -26 155 -5 25 -14 77
-21 115 -6 39 -18 103 -25 143 -8 40 -12 78 -8 83 3 5 2 15 -3 22 -5 7 -11 32
-12 57 -2 41 -14 132 -25 188 -3 14 0 22 9 22 9 0 12 -8 9 -25 -2 -14 0 -25 5
-25 5 0 10 -8 9 -17 0 -10 3 -33 6 -50 3 -18 8 -47 11 -64 2 -17 7 -38 9 -48
3 -9 10 -52 16 -96 11 -87 28 -205 35 -245 3 -14 12 -74 20 -135 9 -60 23
-150 31 -200 8 -49 20 -125 26 -167 10 -71 13 -79 54 -120 40 -39 42 -44 26
-56 -15 -12 -13 -12 13 -6 17 4 33 8 36 10 3 2 0 29 -7 61 -7 32 -24 135 -38
228 -99 652 -148 995 -176 1215 -64 506 -62 494 -80 497 -8 1 -37 -5 -65 -14z
m-43 -58 c-2 -14 -9 -25 -14 -25 -5 0 -6 5 -3 10 3 6 -1 13 -10 16 -13 6 -14
8 -3 15 24 16 35 10 30 -16z m9 -42 c1 -5 3 -18 4 -29 1 -12 5 -33 9 -48 4
-17 2 -26 -6 -26 -9 0 -9 -3 0 -12 7 -7 12 -19 12 -27 0 -30 -22 7 -27 45 -11
93 -12 104 -3 104 6 0 11 -3 11 -7z m29 -178 c0 -8 -6 -15 -12 -15 -9 0 -8 -3
2 -10 8 -5 11 -12 7 -17 -15 -15 -27 23 -18 55 3 10 21 -1 21 -13z m11 -67 c1
-7 2 -27 4 -45 1 -18 6 -44 9 -58 6 -22 5 -24 -7 -14 -7 7 -14 18 -14 24 0 5
-3 31 -7 58 -5 31 -4 47 3 47 6 0 11 -6 12 -12z m38 -175 c2 -2 -5 -3 -17 -3
-14 0 -22 6 -22 16 0 14 3 15 18 3 9 -7 19 -15 21 -16z m-5 -28 c3 -9 0 -15
-9 -15 -8 0 -15 7 -15 15 0 8 4 15 9 15 5 0 11 -7 15 -15z m6 -45 c0 -5 -7
-10 -15 -10 -8 0 -15 5 -15 10 0 6 7 10 15 10 8 0 15 -4 15 -10z m10 -80 c0
-20 5 -41 12 -48 9 -9 8 -12 -4 -12 -16 0 -34 62 -23 79 3 6 1 12 -5 16 -6 4
-7 11 -4 17 10 16 24 -13 24 -52z"/>
<path d="M1567 6634 c6 -15 23 -19 23 -5 0 5 -7 11 -14 14 -10 4 -13 1 -9 -9z"/>
<path d="M1200 6575 c0 -8 4 -15 10 -15 5 0 7 7 4 15 -4 8 -8 15 -10 15 -2 0
-4 -7 -4 -15z"/>
<path d="M1168 6555 c-25 -33 -22 -62 9 -91 27 -25 26 -47 -2 -24 -20 17 -32
5 -15 -15 7 -9 10 -18 6 -22 -3 -3 -6 -1 -6 6 0 7 -4 10 -10 6 -19 -12 1 -35
26 -29 21 6 24 3 24 -24 0 -34 -17 -52 -26 -28 -8 22 -34 20 -34 -1 0 -10 12
-31 26 -47 40 -45 48 -24 50 119 1 69 -3 125 -7 125 -5 0 -9 -7 -9 -15 0 -9
-6 -12 -15 -9 -8 4 -15 12 -15 20 0 8 7 14 15 14 16 0 19 9 7 26 -5 8 -13 4
-24 -11z"/>
<path d="M856 6505 c-20 -19 -26 -32 -22 -48 3 -12 6 -30 6 -39 0 -29 51 -23
74 8 14 20 16 28 6 34 -7 4 -9 13 -6 19 4 6 2 11 -4 11 -6 0 -14 9 -18 21 -8
20 -8 20 -36 -6z"/>
<path d="M3270 6523 c0 -5 11 -20 26 -33 21 -21 27 -22 34 -10 15 23 12 33 -6
26 -10 -4 -25 1 -35 10 -11 10 -19 13 -19 7z"/>
<path d="M12 6459 c6 -16 12 -28 14 -26 5 5 -13 57 -20 57 -3 0 0 -14 6 -31z"/>
<path d="M3361 6474 c0 -11 3 -14 6 -6 3 7 2 16 -1 19 -3 4 -6 -2 -5 -13z"/>
<path d="M3356 6441 c-4 -6 -3 -19 3 -28 9 -17 10 -17 17 0 8 21 -10 45 -20
28z"/>
<path d="M927 6403 c-28 -31 -28 -33 -8 -33 14 0 25 9 32 27 15 40 7 42 -24 6z"/>
<path d="M3293 6382 c-23 -3 -50 -29 -40 -38 3 -3 24 -8 46 -11 36 -5 41 -3
41 14 0 26 -19 40 -47 35z"/>
<path d="M2 6235 l1 -120 8 98 c4 55 4 108 -1 120 -6 14 -8 -19 -8 -98z"/>
<path d="M1244 6312 c-10 -47 -26 -82 -37 -82 -27 0 12 -20 51 -26 39 -6 43
-5 40 12 -2 10 -7 22 -13 27 -6 4 -5 10 3 15 7 5 10 16 6 26 -4 10 -2 21 4 25
7 4 -1 11 -18 18 -28 11 -30 10 -36 -15z"/>
<path d="M42 6125 l1 -205 28 0 29 0 -1 73 c0 39 -7 115 -15 167 -8 52 -17
112 -20 133 -4 20 -10 37 -15 37 -5 0 -8 -92 -7 -205z"/>
<path d="M940 6220 c0 -11 5 -20 10 -20 6 0 10 9 10 20 0 11 -4 20 -10 20 -5
0 -10 -9 -10 -20z"/>
<path d="M1049 6173 c-1 -10 -3 -25 -4 -33 -1 -8 -3 -30 -4 -47 -1 -35 -17
-45 -24 -15 -3 9 -5 3 -6 -14 -1 -32 23 -55 32 -31 3 7 9 1 14 -13 8 -18 10
-1 12 73 1 60 -2 97 -9 97 -5 0 -11 -8 -11 -17z"/>
<path d="M1770 6177 c0 -1 -4 -17 -9 -35 -12 -41 -7 -41 13 0 19 37 19 38 6
38 -5 0 -10 -1 -10 -3z"/>
<path d="M1110 6131 c0 -23 4 -41 8 -41 11 0 12 69 1 76 -5 3 -9 -13 -9 -35z"/>
<path d="M1620 6124 c0 -14 4 -23 10 -19 6 3 10 15 10 26 0 10 -4 19 -10 19
-5 0 -10 -12 -10 -26z"/>
<path d="M1665 6140 c3 -5 8 -10 11 -10 2 0 4 5 4 10 0 6 -5 10 -11 10 -5 0
-7 -4 -4 -10z"/>
<path d="M1187 6123 c-2 -4 -2 -24 1 -43 l6 -35 7 35 c7 32 -2 62 -14 43z"/>
<path d="M1793 6105 c4 -9 7 -21 7 -26 0 -5 7 -9 15 -9 21 0 19 12 -7 34 -19
16 -20 17 -15 1z"/>
<path d="M915 6100 c-3 -4 7 -15 21 -25 16 -10 25 -24 24 -38 -4 -41 2 -42 10
-2 5 23 4 45 -1 51 -12 15 -48 24 -54 14z"/>
<path d="M1250 6093 c0 -5 5 -15 10 -23 8 -12 10 -11 10 8 0 12 -4 22 -10 22
-5 0 -10 -3 -10 -7z"/>
<path d="M1310 6055 c0 -14 5 -25 10 -25 6 0 10 11 10 25 0 14 -4 25 -10 25
-5 0 -10 -11 -10 -25z"/>
<path d="M1360 6026 c0 -14 5 -26 10 -26 6 0 10 7 10 15 0 8 0 18 1 22 0 4 -4
9 -10 11 -6 2 -11 -8 -11 -22z"/>
<path d="M1857 6044 c-9 -10 2 -24 19 -24 8 0 14 7 14 15 0 15 -21 21 -33 9z"/>
<path d="M1000 5985 c0 -41 1 -42 18 -9 9 17 8 25 -3 34 -13 11 -15 7 -15 -25z"/>
<path d="M1490 5946 c0 -27 15 -42 25 -26 8 13 -3 50 -16 50 -5 0 -9 -11 -9
-24z"/>
<path d="M974 5925 c-4 -11 -9 -23 -11 -27 -2 -4 1 -9 6 -13 15 -8 31 28 21
45 -7 12 -10 11 -16 -5z"/>
<path d="M1550 5916 c0 -9 5 -16 10 -16 6 0 10 4 10 9 0 6 -4 13 -10 16 -5 3
-10 -1 -10 -9z"/>
<path d="M57 5884 c-12 -12 -8 -119 5 -132 14 -14 54 -16 62 -4 3 5 2 38 -2
73 -6 59 -9 64 -32 67 -14 2 -29 0 -33 -4z"/>
<path d="M953 5854 c-3 -8 -1 -20 6 -27 8 -8 11 -4 11 16 0 30 -7 35 -17 11z"/>
<path d="M3380 5770 c0 -5 5 -10 11 -10 5 0 7 5 4 10 -3 6 -8 10 -11 10 -2 0
-4 -4 -4 -10z"/>
<path d="M310 5750 c0 -5 7 -10 15 -10 8 0 15 -5 15 -11 0 -6 -7 -9 -15 -5 -9
3 -15 0 -15 -9 0 -7 10 -17 23 -21 21 -7 21 -7 2 -15 -19 -7 -19 -8 3 -8 12
-1 22 -5 22 -11 0 -5 15 -11 33 -11 l32 -2 -35 -7 -35 -6 36 -8 c29 -6 39 -15
49 -42 14 -36 25 -42 34 -21 3 6 4 -1 3 -17 -2 -25 3 -31 25 -37 16 -4 30 -3
34 2 3 5 0 9 -6 9 -6 0 -10 8 -8 18 1 9 -1 23 -6 31 -5 8 -4 16 4 21 8 5 3 9
-14 12 -14 3 -27 0 -29 -6 -3 -8 -8 -7 -18 2 -10 9 -10 12 0 12 7 0 10 4 7 9
-11 18 19 17 49 -1 16 -10 37 -18 45 -18 7 0 -24 25 -70 56 -47 31 -84 61 -82
66 1 5 -2 7 -8 3 -6 -4 -27 3 -46 14 -40 24 -44 25 -44 11z"/>
<path d="M251 5650 c6 -16 15 -30 21 -30 5 0 7 6 4 13 -3 6 -9 20 -12 30 -4 9
-10 17 -15 17 -4 0 -3 -13 2 -30z"/>
<path d="M215 5640 c-3 -5 -1 -10 4 -10 6 0 11 5 11 10 0 6 -2 10 -4 10 -3 0
-8 -4 -11 -10z"/>
<path d="M225 5599 c-12 -19 5 -23 22 -6 16 16 16 17 1 17 -9 0 -20 -5 -23
-11z"/>
<path d="M290 5556 c0 -31 6 -34 13 -6 3 11 1 23 -4 26 -5 3 -9 -6 -9 -20z"/>
<path d="M390 5532 c0 -9 6 -12 16 -8 9 3 21 6 26 6 19 0 -1 14 -22 15 -11 1
-20 -5 -20 -13z"/>
<path d="M833 5533 c9 -2 23 -2 30 0 6 3 -1 5 -18 5 -16 0 -22 -2 -12 -5z"/>
<path d="M930 5530 c0 -5 4 -10 9 -10 6 0 13 5 16 10 3 6 -1 10 -9 10 -9 0
-16 -4 -16 -10z"/>
<path d="M970 5530 c0 -5 5 -10 10 -10 6 0 10 5 10 10 0 6 -4 10 -10 10 -5 0
-10 -4 -10 -10z"/>
<path d="M370 5505 c0 -15 4 -24 10 -20 6 3 10 12 10 20 0 8 -4 17 -10 20 -6
4 -10 -5 -10 -20z"/>
<path d="M410 5511 c0 -6 5 -13 10 -16 6 -3 10 1 10 9 0 9 -4 16 -10 16 -5 0
-10 -4 -10 -9z"/>
<path d="M990 5493 c-83 -7 -179 -50 -165 -73 7 -12 36 -1 53 19 8 9 11 10 7
4 -4 -8 0 -13 9 -13 9 0 16 4 16 9 0 18 31 21 38 3 4 -9 17 -18 30 -19 15 -2
21 1 16 8 -4 8 0 9 15 4 22 -7 30 10 9 18 -7 3 -4 6 7 6 16 1 17 3 5 11 -20
12 -9 20 19 13 12 -3 20 -11 18 -18 -3 -6 4 -17 15 -24 12 -7 18 -20 15 -30
-7 -30 11 -51 43 -49 16 1 28 5 28 8 -1 17 4 21 15 12 19 -16 46 3 29 20 -6 6
-12 19 -12 27 0 10 10 5 30 -14 l30 -29 0 30 c0 32 24 44 34 17 3 -7 12 -13
21 -13 8 0 20 -11 25 -25 10 -26 24 -32 35 -15 12 20 25 9 25 -20 0 -24 4 -30
23 -30 18 0 19 2 7 10 -12 8 -12 10 5 10 26 -1 88 -57 79 -72 -4 -7 -3 -8 4
-4 19 11 15 21 -29 69 -56 64 -123 104 -210 126 -71 18 -215 30 -289 24z"/>
<path d="M310 5479 c0 -5 5 -7 10 -4 6 3 10 -1 10 -9 0 -9 5 -16 10 -16 6 0
10 9 10 20 0 13 -7 20 -20 20 -11 0 -20 -5 -20 -11z"/>
<path d="M380 5440 c8 -5 20 -10 25 -10 6 0 3 5 -5 10 -8 5 -19 10 -25 10 -5
0 -3 -5 5 -10z"/>
<path d="M920 5419 c0 -5 5 -7 10 -4 6 3 10 8 10 11 0 2 -4 4 -10 4 -5 0 -10
-5 -10 -11z"/>
<path d="M830 5371 c0 -6 4 -12 8 -15 5 -3 9 1 9 9 0 8 -4 15 -9 15 -4 0 -8
-4 -8 -9z"/>
<path d="M1121 5334 c0 -11 3 -14 6 -6 3 7 2 16 -1 19 -3 4 -6 -2 -5 -13z"/>
<path d="M1308 5333 c7 -3 16 -2 19 1 4 3 -2 6 -13 5 -11 0 -14 -3 -6 -6z"/>
<path d="M875 5320 c-3 -5 -1 -10 4 -10 6 0 11 5 11 10 0 6 -2 10 -4 10 -3 0
-8 -4 -11 -10z"/>
<path d="M980 5311 c0 -5 5 -13 10 -16 6 -3 10 -2 10 4 0 5 -4 13 -10 16 -5 3
-10 2 -10 -4z"/>
<path d="M1420 5299 c0 -5 5 -7 10 -4 6 3 10 8 10 11 0 2 -4 4 -10 4 -5 0 -10
-5 -10 -11z"/>
<path d="M900 5289 c0 -5 5 -7 10 -4 6 3 10 8 10 11 0 2 -4 4 -10 4 -5 0 -10
-5 -10 -11z"/>
<path d="M940 5290 c0 -5 5 -10 10 -10 6 0 10 5 10 10 0 6 -4 10 -10 10 -5 0
-10 -4 -10 -10z"/>
<path d="M3335 5279 c-19 -8 -19 -8 3 -15 12 -3 22 -14 22 -25 0 -14 7 -19 30
-19 17 0 30 -4 30 -10 0 -5 -5 -10 -12 -10 -6 0 -9 -2 -6 -5 9 -9 38 6 38 20
0 21 -35 46 -47 34 -8 -8 -15 -4 -25 14 -10 19 -17 23 -33 16z"/>
<path d="M851 5264 c0 -11 3 -14 6 -6 3 7 2 16 -1 19 -3 4 -6 -2 -5 -13z"/>
<path d="M900 5260 c0 -5 5 -10 10 -10 6 0 10 5 10 10 0 6 -4 10 -10 10 -5 0
-10 -4 -10 -10z"/>
<path d="M1440 5249 c0 -5 5 -7 10 -4 6 3 10 8 10 11 0 2 -4 4 -10 4 -5 0 -10
-5 -10 -11z"/>
<path d="M1367 5233 c-13 -12 -7 -25 8 -20 8 4 17 2 20 -3 4 -6 11 -10 17 -10
7 0 2 9 -10 20 -23 22 -26 23 -35 13z"/>
<path d="M3451 5196 c-8 -10 -9 -16 -1 -21 5 -3 13 1 16 10 9 22 -1 29 -15 11z"/>
<path d="M3085 5170 c-3 -5 -15 -10 -26 -10 -32 0 -12 -19 28 -26 20 -4 56
-21 80 -37 l43 -31 22 23 c20 22 22 23 34 6 18 -24 7 -38 -22 -31 -17 5 -24 2
-24 -8 0 -10 7 -12 22 -8 14 3 19 2 14 -6 -4 -7 -1 -12 8 -12 9 0 16 -6 16
-14 0 -18 65 -6 103 18 30 20 33 29 14 45 -10 8 -17 7 -25 -1 -9 -9 -12 -7
-12 9 0 14 -8 23 -25 27 -14 4 -25 11 -25 16 0 6 -7 10 -15 10 -8 0 -15 4 -15
9 0 5 -15 12 -32 16 -18 4 -42 8 -53 11 -11 2 -5 -3 14 -12 18 -8 32 -16 30
-18 -2 -2 -38 0 -79 4 -69 6 -73 9 -30 23 8 3 3 6 -12 6 -15 1 -30 -3 -33 -9z"/>
<path d="M1645 5160 c3 -5 8 -10 11 -10 2 0 4 5 4 10 0 6 -5 10 -11 10 -5 0
-7 -4 -4 -10z"/>
<path d="M1646 5114 c-10 -25 -7 -74 4 -74 6 0 10 20 10 45 0 47 -4 55 -14 29z"/>
<path d="M110 5020 c37 -12 122 -12 115 0 -3 6 -36 10 -73 9 -49 -1 -60 -3
-42 -9z"/>
<path d="M1621 5016 c-8 -9 -8 -16 -2 -20 6 -4 15 3 21 14 12 23 -2 27 -19 6z"/>
<path d="M3110 5024 c0 -17 17 -36 24 -26 3 5 -1 15 -9 22 -8 7 -15 9 -15 4z"/>
<path d="M7 5013 c7 -2 19 -2 26 0 6 3 1 5 -13 5 -14 0 -19 -2 -13 -5z"/>
<path d="M3310 4980 c-11 -11 -33 -20 -49 -20 -42 0 -48 -18 -9 -22 39 -4 108
26 108 47 0 21 -26 19 -50 -5z"/>
<path d="M3153 4963 c9 -2 17 -9 17 -14 0 -6 5 -7 11 -3 14 8 -8 24 -31 23
-11 -1 -10 -3 3 -6z"/>
<path d="M218 4953 c7 -3 16 -2 19 1 4 3 -2 6 -13 5 -11 0 -14 -3 -6 -6z"/>
<path d="M266 4945 c4 -8 12 -15 20 -15 8 0 11 6 8 15 -4 8 -12 15 -20 15 -8
0 -11 -6 -8 -15z"/>
<path d="M2361 4907 c-6 -8 -8 -17 -4 -20 7 -8 33 11 33 24 0 13 -16 11 -29
-4z"/>
<path d="M0 4879 c0 -10 28 -19 61 -19 17 0 28 4 25 9 -7 10 -86 20 -86 10z"/>
<path d="M1460 4880 c-13 -9 -13 -10 0 -9 8 1 26 5 40 9 l25 8 -25 1 c-14 0
-32 -4 -40 -9z"/>
<path d="M1647 4826 l-26 -23 30 0 c19 0 25 3 17 9 -10 6 -10 10 2 17 8 6 12
12 9 15 -3 3 -17 -5 -32 -18z"/>
<path d="M0 4821 c0 -5 7 -11 15 -15 8 -3 12 -12 9 -21 -4 -8 -1 -15 6 -15 6
0 14 9 17 20 3 11 11 20 18 20 8 0 17 -9 20 -20 3 -11 10 -20 15 -20 4 0 10 9
13 20 5 21 29 28 25 8 -2 -8 5 -12 17 -10 11 2 42 3 70 2 78 -2 46 10 -67 26
-122 16 -158 17 -158 5z"/>
<path d="M205 4753 c0 -30 0 -30 -79 -20 l-48 7 7 -33 c9 -42 10 -95 1 -129
-3 -15 -2 -29 3 -33 14 -8 43 39 36 57 -6 16 18 48 36 48 5 0 9 5 9 11 0 7
-10 9 -25 5 -14 -4 -25 -2 -25 4 0 5 7 10 15 10 8 0 15 4 15 9 0 15 51 23 66
11 18 -16 30 30 14 59 -15 29 -26 26 -25 -6z"/>
<path d="M360 4761 c0 -6 5 -13 10 -16 6 -3 10 1 10 9 0 9 -4 16 -10 16 -5 0
-10 -4 -10 -9z"/>
<path d="M3160 4753 c-8 -3 -28 -11 -45 -18 -16 -7 -77 -27 -135 -45 -57 -18
-112 -41 -121 -51 -10 -11 -18 -47 -22 -91 -4 -40 -10 -91 -13 -113 -4 -22 -4
-37 0 -34 4 4 9 28 12 55 8 73 30 151 46 168 8 8 62 28 119 45 57 18 112 36
121 41 10 6 25 10 33 10 8 0 15 5 15 10 0 6 9 10 20 10 11 0 20 5 20 10 0 11
-25 12 -50 3z"/>
<path d="M397 4736 c-4 -10 6 -22 29 -35 43 -26 65 -27 38 -3 -61 54 -61 54
-67 38z"/>
<path d="M3688 4733 c6 -2 18 -2 25 0 6 3 1 5 -13 5 -14 0 -19 -2 -12 -5z"/>
<path d="M5667 4663 c-4 -6 -5 -17 -2 -25 5 -16 -43 -87 -70 -102 -10 -6 -36
-21 -57 -33 -21 -13 -51 -23 -68 -23 -21 0 -29 -4 -24 -12 4 -6 -3 -4 -17 5
-31 22 -38 21 -32 -3 3 -11 0 -27 -7 -35 -21 -25 23 -18 97 15 117 53 193 36
193 -43 0 -47 -40 -79 -142 -116 -97 -35 -93 -39 10 -11 39 11 79 20 88 20 26
0 41 -24 39 -62 -2 -55 -39 -86 -116 -101 -60 -11 -61 -12 -26 -15 22 -2 53 1
69 7 17 6 42 11 55 11 16 0 23 5 20 13 -2 6 2 24 9 38 26 52 15 310 -15 332
-20 14 -20 22 -3 63 14 33 13 99 -1 77z"/>
<path d="M180 4651 c0 -5 7 -12 16 -15 14 -5 15 -4 4 9 -14 17 -20 19 -20 6z"/>
<path d="M5520 4598 c-22 -24 -35 -28 -97 -34 -49 -4 -73 -2 -73 5 0 6 -6 8
-14 5 -8 -3 -23 3 -34 14 -18 18 -23 19 -39 7 -10 -8 -31 -15 -47 -15 -21 0
-27 -4 -22 -15 3 -8 1 -15 -4 -15 -23 0 -8 -19 18 -22 18 -2 26 -8 23 -18 -2
-8 -3 -24 -3 -34 1 -10 -6 -28 -14 -40 -7 -11 -14 -27 -14 -35 0 -8 -7 -22
-16 -32 -23 -26 -25 -99 -2 -123 10 -11 18 -15 18 -9 0 6 12 8 28 6 26 -4 26
-4 8 11 -10 8 -24 17 -29 19 -6 2 -11 20 -11 41 0 30 6 44 28 62 15 13 36 24
48 24 19 0 20 1 4 25 -9 13 -16 33 -16 43 0 30 37 62 73 62 47 0 107 -12 103
-19 -3 -4 7 -7 22 -8 15 0 19 1 9 4 -21 6 -12 23 12 23 24 0 67 35 74 59 8 33
-7 38 -33 9z"/>
<path d="M210 4605 c0 -8 5 -15 10 -15 6 0 10 7 10 15 0 8 -4 15 -10 15 -5 0
-10 -7 -10 -15z"/>
<path d="M145 4590 c-3 -5 -1 -10 4 -10 6 0 11 5 11 10 0 6 -2 10 -4 10 -3 0
-8 -4 -11 -10z"/>
<path d="M175 4590 c-3 -5 -1 -10 4 -10 6 0 11 5 11 10 0 6 -2 10 -4 10 -3 0
-8 -4 -11 -10z"/>
<path d="M1560 4570 l-45 -7 40 -1 c22 0 51 4 65 8 32 10 5 10 -60 0z"/>
<path d="M140 4488 c0 -12 48 -10 55 2 3 5 -7 8 -25 7 -16 -1 -30 -5 -30 -9z"/>
<path d="M137 4462 c-13 -19 0 -46 34 -71 24 -18 33 -20 45 -11 11 10 17 10
29 0 9 -7 18 -10 22 -6 10 10 -4 18 -39 21 -17 1 -34 7 -36 14 -2 6 -12 11
-22 11 -13 0 -20 9 -22 28 -2 18 -6 23 -11 14z"/>
<path d="M214 4445 c-20 -15 -11 -18 20 -6 11 4 15 10 9 14 -5 3 -19 0 -29 -8z"/>
<path d="M88 4433 c7 -3 16 -2 19 1 4 3 -2 6 -13 5 -11 0 -14 -3 -6 -6z"/>
<path d="M278 4423 c7 -3 16 -2 19 1 4 3 -2 6 -13 5 -11 0 -14 -3 -6 -6z"/>
<path d="M300 4350 c0 -5 5 -10 11 -10 5 0 7 5 4 10 -3 6 -8 10 -11 10 -2 0
-4 -4 -4 -10z"/>
<path d="M5290 4334 c15 -39 12 -64 -7 -64 -17 -1 -17 -1 -1 -14 12 -9 40 -12
84 -10 63 3 104 14 53 14 -35 0 -70 11 -64 20 2 4 -7 20 -20 36 -14 16 -25 32
-25 37 0 4 -7 7 -15 7 -11 0 -12 -5 -5 -26z"/>
<path d="M3055 4340 c-3 -5 -1 -10 4 -10 6 0 11 5 11 10 0 6 -2 10 -4 10 -3 0
-8 -4 -11 -10z"/>
<path d="M6660 3861 l-1 -469 76 -4 76 -3 -3 73 c-1 40 -7 77 -13 81 -5 5 -25
12 -42 16 -19 4 -33 13 -33 21 0 8 -7 14 -15 14 -12 0 -13 4 -6 19 6 10 8 21
4 24 -3 4 -7 17 -8 29 -2 13 -6 40 -10 61 -5 25 -4 37 4 37 6 0 11 -7 11 -15
0 -8 5 -15 10 -15 6 0 10 5 10 10 0 6 9 10 19 10 17 0 20 8 23 48 2 26 -1 57
-6 70 -7 17 -5 26 10 37 19 14 19 14 0 15 -18 0 -18 1 -1 20 16 18 17 22 3 38
-13 13 -14 28 -8 67 9 55 -3 90 -26 81 -11 -4 -14 5 -15 42 -1 37 -3 42 -8 22
-7 -25 -8 -24 -15 7 -4 18 -7 45 -6 60 4 54 0 73 -14 73 -13 0 -15 -67 -16
-469z"/>
<path d="M3193 4285 c-13 -29 1 -34 17 -6 12 23 13 31 3 31 -5 0 -13 -11 -20
-25z"/>
<path d="M5320 4190 c0 -5 5 -10 11 -10 5 0 7 5 4 10 -3 6 -8 10 -11 10 -2 0
-4 -4 -4 -10z"/>
<path d="M5201 4164 c0 -11 3 -14 6 -6 3 7 2 16 -1 19 -3 4 -6 -2 -5 -13z"/>
<path d="M5307 4143 c-10 -12 -25 -23 -33 -23 -8 0 -12 -4 -9 -10 3 -5 17 -10
29 -10 21 0 25 -7 36 -66 10 -53 10 -70 0 -90 -8 -13 -17 -24 -22 -24 -4 0 -8
-7 -8 -16 0 -24 70 -13 159 25 72 31 121 40 121 22 0 -5 -6 -11 -12 -14 -7 -2
1 -2 17 1 47 7 118 36 123 50 2 6 -2 12 -10 12 -7 0 -19 4 -27 9 -12 8 -12 12
2 26 11 10 17 32 16 58 -1 28 -3 35 -7 22 -20 -61 -58 -82 -184 -99 -10 -1
-20 -5 -24 -9 -4 -4 -19 -4 -33 -1 -14 3 -36 7 -48 10 -13 2 -30 15 -38 28
-13 19 -13 28 -4 50 7 14 19 26 28 27 9 0 3 6 -13 13 -18 9 -24 15 -15 18 9 3
7 6 -7 10 -13 3 -25 -3 -37 -19z"/>
<path d="M4900 4110 c0 -5 5 -10 11 -10 5 0 7 5 4 10 -3 6 -8 10 -11 10 -2 0
-4 -4 -4 -10z"/>
<path d="M4778 3993 c7 -3 16 -2 19 1 4 3 -2 6 -13 5 -11 0 -14 -3 -6 -6z"/>
<path d="M5730 3970 c20 -13 33 -13 25 0 -3 6 -14 10 -23 10 -15 0 -15 -2 -2
-10z"/>
<path d="M5752 3923 c-10 -18 -9 -27 6 -52 9 -17 25 -31 34 -31 9 0 20 -4 23
-10 3 -5 10 -10 16 -10 14 0 11 20 -3 20 -26 1 -51 31 -57 67 -7 36 -8 37 -19
16z"/>
<path d="M5276 3865 c-3 -8 3 -16 14 -20 22 -7 96 11 105 25 4 6 -3 7 -18 1
-14 -6 -27 -8 -28 -7 -2 2 -18 6 -36 9 -22 4 -33 2 -37 -8z"/>
<path d="M5873 3806 c24 -19 28 -45 11 -78 -24 -47 -18 -84 19 -110 l32 -23
-22 29 c-26 32 -28 52 -11 107 13 46 -1 89 -29 89 -17 -1 -17 -1 0 -14z"/>
<path d="M116 3702 c-4 -35 -6 -66 -3 -69 8 -7 20 79 15 108 -2 13 -8 -4 -12
-39z"/>
<path d="M72 3728 c-7 -7 -12 -38 -11 -72 0 -69 12 -54 24 32 7 55 6 59 -13
40z"/>
<path d="M5795 3590 c4 -6 11 -8 16 -5 14 9 11 15 -7 15 -8 0 -12 -5 -9 -10z"/>
<path d="M5520 3535 c0 -8 34 -45 41 -45 4 0 2 11 -4 25 -10 21 -37 36 -37 20z"/>
<path d="M5680 3441 c0 -25 6 -27 13 -6 4 8 2 17 -3 20 -6 4 -10 -3 -10 -14z"/>
<path d="M6649 3084 c-1 -5 0 -47 0 -94 1 -47 3 -253 5 -458 2 -206 8 -378 12
-382 5 -5 38 -10 74 -11 l65 -3 3 466 2 466 -57 7 c-32 3 -68 9 -80 12 -13 3
-23 1 -24 -3z"/>
<path d="M6648 1374 c1 -251 6 -464 11 -472 5 -10 26 -17 52 -19 24 -2 55 -4
69 -5 l25 -3 3 466 2 467 -63 11 c-115 20 -102 76 -99 -445z"/>
<path d="M230 1060 c-8 -5 -10 -10 -5 -10 6 0 17 5 25 10 8 5 11 10 5 10 -5 0
-17 -5 -25 -10z"/>
<path d="M60 1020 c-20 -6 -21 -8 -5 -8 11 0 29 3 40 8 25 11 -1 11 -35 0z"/>
<path d="M145 990 c-8 -13 5 -13 25 0 13 8 13 10 -2 10 -9 0 -20 -4 -23 -10z"/>
<path d="M20 960 c-12 -8 -11 -10 8 -10 12 0 22 5 22 10 0 13 -11 13 -30 0z"/>
<path d="M140 920 c-13 -8 -13 -10 2 -10 9 0 20 5 23 10 8 13 -5 13 -25 0z"/>
<path d="M65 900 c-3 -5 3 -10 14 -10 12 0 21 5 21 10 0 6 -6 10 -14 10 -8 0
-18 -4 -21 -10z"/>
<path d="M6640 290 l0 -290 85 0 85 0 0 136 c0 125 -1 136 -17 130 -17 -6 -17
-5 0 8 15 12 17 28 15 135 l-3 122 -50 -26 c-48 -24 -86 -35 -56 -16 12 8 12
13 3 24 -10 11 -9 17 1 26 8 6 17 8 21 4 4 -4 4 0 1 9 -5 13 -45 28 -76 28 -5
0 -9 -130 -9 -290z"/>
</g>
</svg>
