<svg width="100" height="118" viewBox="0 0 100 118" fill="none" xmlns="http://www.w3.org/2000/svg">
<path d="M66.828 14.5811C65.6423 6.26987 58.408 0 49.9998 0C47.3233 0.00500189 44.6855 0.639592 42.2995 1.85249C39.9135 3.06539 37.8464 4.82258 36.265 6.98207C36.1073 7.19387 35.993 7.43484 35.9289 7.69104C35.8648 7.94724 35.8521 8.21361 35.8915 8.47475C35.931 8.73589 36.0217 8.98664 36.1586 9.2125C36.2955 9.43836 36.4757 9.63487 36.689 9.79067C36.9022 9.94647 37.1442 10.0585 37.401 10.1202C37.6578 10.182 37.9243 10.1922 38.185 10.1504C38.4458 10.1086 38.6957 10.0155 38.9203 9.87658C39.1449 9.73764 39.3397 9.55557 39.4935 9.3409C41.0165 7.25212 43.1275 5.66473 45.5569 4.78149C47.9864 3.89824 50.6239 3.75925 53.1327 4.38225C55.6415 5.00525 57.9077 6.36196 59.6418 8.27911C61.3758 10.1962 62.499 12.5868 62.8679 15.1454C62.9362 15.6216 63.1737 16.0574 63.5369 16.3729C63.9001 16.6883 64.3648 16.8625 64.8459 16.8633C64.9412 16.863 65.0363 16.8563 65.1307 16.8432C65.6556 16.7681 66.1293 16.4876 66.4475 16.0634C66.7658 15.6393 66.9026 15.1061 66.828 14.5811V14.5811Z" fill="url(#paint0_linear_31_65)"/>
<path d="M95.714 36.9702L89.7141 26.9693C89.5366 26.673 89.2852 26.4278 88.9847 26.2577C88.6841 26.0875 88.3445 25.9982 87.9991 25.9985H82.2494C81.9845 25.9947 81.7214 26.0437 81.4755 26.1425C81.2296 26.2413 81.0058 26.388 80.8171 26.574C80.6284 26.7601 80.4786 26.9818 80.3763 27.2262C80.2741 27.4707 80.2214 27.733 80.2214 27.998C80.2214 28.263 80.2741 28.5254 80.3763 28.7698C80.4786 29.0143 80.6284 29.236 80.8171 29.422C81.0058 29.6081 81.2296 29.7548 81.4755 29.8536C81.7214 29.9524 81.9845 30.0013 82.2494 29.9975H86.8672L90.4671 35.9975H9.53228L13.1322 29.9988H15.2502C15.5152 30.0025 15.7783 29.9536 16.0241 29.8548C16.27 29.756 16.4938 29.6093 16.6825 29.4232C16.8712 29.2372 17.0211 29.0155 17.1233 28.771C17.2256 28.5266 17.2783 28.2642 17.2783 27.9992C17.2783 27.7342 17.2256 27.4719 17.1233 27.2274C17.0211 26.983 16.8712 26.7613 16.6825 26.5752C16.4938 26.3892 16.27 26.2425 16.0241 26.1437C15.7783 26.0449 15.5152 25.9959 15.2502 25.9997H12.0002C11.6549 25.9993 11.3154 26.0884 11.0149 26.2584C10.7143 26.4283 10.4629 26.6733 10.2853 26.9693L4.28496 36.9702C4.10289 37.2737 4.00462 37.6201 4.00016 37.9741C3.9957 38.328 4.08521 38.6768 4.25957 38.9848C4.43393 39.2929 4.68688 39.5491 4.99262 39.7275C5.29836 39.9058 5.64594 39.9999 5.9999 40H93.9978C94.3518 39.9999 94.6994 39.9058 95.0051 39.7275C95.3109 39.5491 95.5638 39.2929 95.7382 38.9848C95.9125 38.6768 96.002 38.328 95.9976 37.9741C95.9931 37.6201 95.8948 37.2737 95.7128 36.9702H95.714Z" fill="url(#paint1_linear_31_65)"/>
<path d="M85.7441 18.529C85.6057 18.3056 85.4246 18.1118 85.2112 17.9585C84.9977 17.8053 84.7561 17.6957 84.5002 17.636L57.2371 11.2592C56.9814 11.1992 56.7163 11.1901 56.4571 11.2326C56.1979 11.2751 55.9496 11.3683 55.7264 11.5069C55.5033 11.6454 55.3096 11.8266 55.1565 12.0401C55.0034 12.2535 54.894 12.4951 54.8343 12.7509L52.7775 21.5402C52.6569 22.0566 52.7463 22.5999 53.0262 23.0504C53.3061 23.501 53.7535 23.8219 54.2699 23.9425C54.7864 24.0632 55.3297 23.9737 55.7802 23.6939C56.2307 23.414 56.5516 22.9666 56.6722 22.4501L58.273 15.6093L81.6416 21.0754L77.9696 36.7756C77.9096 37.0312 77.9007 37.2962 77.9432 37.5553C77.9858 37.8144 78.079 38.0626 78.2175 38.2857C78.3561 38.5088 78.5372 38.7024 78.7506 38.8554C78.9641 39.0084 79.2055 39.1178 79.4613 39.1774C79.6115 39.2124 79.7652 39.23 79.9194 39.2301C80.3702 39.2298 80.8076 39.0772 81.1605 38.7968C81.5135 38.5165 81.7612 38.1251 81.8635 37.6861L85.9913 20.0388C86.0516 19.7833 86.0608 19.5184 86.0184 19.2592C85.976 19.0001 85.8828 18.752 85.7441 18.529V18.529Z" fill="url(#paint2_linear_31_65)"/>
<path d="M51.0574 23.2568L49.2352 7.84331C49.1727 7.31651 48.9037 6.83607 48.4871 6.50755C48.0706 6.17904 47.5407 6.02935 47.0138 6.09137L13.5634 10.0456C13.0367 10.1081 12.5565 10.3772 12.2282 10.7937C11.8999 11.2103 11.7504 11.7401 11.8127 12.2668L14.8507 37.9737C14.9081 38.4598 15.1417 38.908 15.5073 39.2335C15.873 39.5589 16.3452 39.739 16.8347 39.7397C16.9142 39.7393 16.9936 39.7346 17.0726 39.7256C17.5992 39.6629 18.0793 39.3938 18.4076 38.9773C18.7359 38.5608 18.8854 38.0311 18.8234 37.5044L16.0198 13.7822L45.498 10.2982L47.0856 23.725C47.1496 24.2501 47.4192 24.7285 47.8351 25.0554C48.2511 25.3823 48.7797 25.5311 49.3051 25.4692C49.8305 25.4072 50.31 25.1397 50.6385 24.725C50.9671 24.3104 51.118 23.7824 51.0583 23.2568H51.0574Z" fill="url(#paint3_linear_31_65)"/>
<path d="M66.873 37.2398L62.9033 20.7317C62.842 20.4764 62.731 20.2356 62.5766 20.0232C62.4222 19.8108 62.2275 19.6309 62.0035 19.4938C61.7796 19.3568 61.5308 19.2652 61.2714 19.2243C61.012 19.1834 60.7471 19.1941 60.4919 19.2557L28.2726 27.0042C27.7571 27.1282 27.3118 27.4519 27.0348 27.9041C26.7578 28.3563 26.6717 28.9 26.7954 29.4157L28.7795 37.6668C28.8398 37.9232 28.9503 38.1651 29.1044 38.3787C29.2585 38.5923 29.4533 38.7733 29.6776 38.9114C29.9019 39.0495 30.1513 39.1419 30.4114 39.1834C30.6715 39.2248 30.9372 39.2145 31.1933 39.1529C31.4494 39.0914 31.6909 38.9799 31.9037 38.8248C32.1166 38.6697 32.2968 38.4741 32.4338 38.2491C32.5709 38.0242 32.6622 37.7744 32.7025 37.5141C32.7428 37.2538 32.7312 36.9882 32.6685 36.7323L31.1513 30.4255L59.4809 23.613L62.9829 38.1758C63.109 38.6895 63.4335 39.1324 63.8853 39.4075C64.3371 39.6826 64.8795 39.7675 65.3938 39.6437C65.9081 39.5199 66.3524 39.1975 66.6296 38.747C66.9068 38.2964 66.9942 37.7544 66.8728 37.2395L66.873 37.2398Z" fill="url(#paint4_linear_31_65)"/>
<path d="M95.9974 37.8977C95.9708 37.3857 95.7488 36.9034 95.3769 36.5503C95.0051 36.1973 94.512 36.0005 93.9993 36.0005H6.00074C5.48799 36.0004 4.99478 36.1972 4.62295 36.5502C4.25113 36.9033 4.02907 37.3857 4.00265 37.8977L0.00264906 115.898C-0.0113111 116.168 0.0300107 116.439 0.124099 116.694C0.218187 116.948 0.363074 117.181 0.549939 117.378C0.736804 117.574 0.961739 117.731 1.21105 117.838C1.46037 117.945 1.72884 118 2.00014 118H97.9983C98.2697 118 98.5383 117.945 98.7878 117.838C99.0373 117.732 99.2625 117.575 99.4495 117.378C99.6365 117.182 99.7816 116.949 99.8758 116.694C99.97 116.44 100.011 116.169 99.9974 115.898L95.9974 37.8977ZM4.10473 114L7.89975 40.0001H92.098L95.8931 114H4.10473Z" fill="url(#paint5_linear_31_65)"/>
<path d="M64.9989 43.9996C63.8123 43.9996 62.6522 44.3515 61.6656 45.0108C60.6789 45.6701 59.9099 46.6072 59.4557 47.7035C59.0016 48.7999 58.8828 50.0063 59.1143 51.1702C59.3458 52.334 59.9173 53.4031 60.7564 54.2423C61.5955 55.0814 62.6645 55.6528 63.8284 55.8843C64.9923 56.1158 66.1986 55.997 67.295 55.5429C68.3913 55.0888 69.3284 54.3197 69.9877 53.333C70.6469 52.3463 70.9988 51.1863 70.9988 49.9996C70.9972 48.4088 70.3645 46.8837 69.2397 45.7588C68.1148 44.634 66.5897 44.0013 64.9989 43.9996V43.9996ZM64.9989 52C64.6034 52 64.2168 51.8827 63.8879 51.6629C63.5591 51.4432 63.3028 51.1309 63.1514 50.7655C63.0001 50.4001 62.9605 49.998 63.0376 49.6101C63.1148 49.2222 63.3053 48.8659 63.5849 48.5862C63.8646 48.3065 64.2209 48.1161 64.6088 48.0389C64.9967 47.9618 65.3988 48.0014 65.7642 48.1527C66.1296 48.3041 66.4419 48.5604 66.6616 48.8892C66.8813 49.2181 66.9986 49.6047 66.9986 50.0002C66.9979 50.5303 66.787 51.0385 66.4121 51.4132C66.0372 51.7879 65.529 51.9987 64.9989 51.9991V52Z" fill="url(#paint6_linear_31_65)"/>
<path d="M34.9994 43.9996C33.8127 43.9996 32.6527 44.3515 31.666 45.0108C30.6794 45.6701 29.9103 46.6072 29.4562 47.7035C29.0021 48.7999 28.8833 50.0063 29.1148 51.1702C29.3463 52.334 29.9177 53.4031 30.7568 54.2423C31.5959 55.0814 32.665 55.6528 33.8289 55.8843C34.9928 56.1158 36.1991 55.997 37.2955 55.5429C38.3918 55.0888 39.3289 54.3197 39.9881 53.333C40.6474 52.3463 40.9993 51.1863 40.9993 49.9996C40.9977 48.4088 40.365 46.8837 39.2402 45.7588C38.1153 44.634 36.5902 44.0013 34.9994 43.9996ZM34.9994 52C34.6039 52 34.2173 51.8827 33.8884 51.6629C33.5596 51.4432 33.3033 51.1309 33.1519 50.7655C33.0006 50.4001 32.961 49.998 33.0381 49.6101C33.1153 49.2222 33.3057 48.8659 33.5854 48.5862C33.8651 48.3065 34.2214 48.1161 34.6093 48.0389C34.9972 47.9618 35.3993 48.0014 35.7647 48.1527C36.1301 48.3041 36.4424 48.5604 36.6621 48.8892C36.8818 49.2181 36.9991 49.6047 36.9991 50.0002C36.9983 50.5303 36.7873 51.0384 36.4125 51.4131C36.0376 51.7878 35.5294 51.9986 34.9994 51.9991V52Z" fill="url(#paint7_linear_31_65)"/>
<path d="M64.9988 49.9997H64.8446C64.3144 49.9999 63.8058 50.2106 63.4309 50.5856C63.0559 50.9606 62.8452 51.4691 62.8449 51.9994C62.8442 52.2641 62.8966 52.5264 62.9991 52.7705V62.9992C62.9991 66.4471 61.6294 69.7537 59.1915 72.1917C56.7535 74.6297 53.4469 75.9993 49.9991 75.9993C46.5513 75.9993 43.2447 74.6297 40.8068 72.1917C38.3688 69.7537 36.9992 66.4471 36.9992 62.9992V52C37.003 51.735 36.954 51.472 36.8552 51.2261C36.7564 50.9802 36.6097 50.7564 36.4237 50.5677C36.2376 50.379 36.0159 50.2291 35.7715 50.1269C35.527 50.0246 35.2647 49.9719 34.9997 49.9719C34.7347 49.9719 34.4724 50.0246 34.2279 50.1269C33.9834 50.2291 33.7618 50.379 33.5757 50.5677C33.3897 50.7564 33.243 50.9802 33.1442 51.2261C33.0454 51.472 32.9964 51.735 33.0002 52V62.9998C33.0002 67.5084 34.7912 71.8324 37.9792 75.0205C41.1673 78.2086 45.4912 79.9996 49.9997 79.9996C54.5083 79.9996 58.8322 78.2086 62.0202 75.0205C65.2083 71.8324 66.9993 67.5084 66.9993 62.9998V52C66.9991 51.4695 66.7883 50.9608 66.4132 50.5857C66.038 50.2106 65.5293 49.9998 64.9988 49.9997V49.9997Z" fill="url(#paint8_linear_31_65)"/>
<defs>
<linearGradient id="paint0_linear_31_65" x1="51.3585" y1="0" x2="51.3585" y2="16.8633" gradientUnits="userSpaceOnUse">
<stop stop-color="#F86237"/>
<stop offset="1" stop-color="#F86237"/>
</linearGradient>
<linearGradient id="paint1_linear_31_65" x1="49.9989" y1="25.9983" x2="49.9989" y2="40" gradientUnits="userSpaceOnUse">
<stop stop-color="#F86237"/>
<stop offset="1" stop-color="#F86237"/>
</linearGradient>
<linearGradient id="paint2_linear_31_65" x1="69.3848" y1="11.2063" x2="69.3848" y2="39.2301" gradientUnits="userSpaceOnUse">
<stop stop-color="#F86237"/>
<stop offset="1" stop-color="#F86237"/>
</linearGradient>
<linearGradient id="paint3_linear_31_65" x1="31.4349" y1="6.07764" x2="31.4349" y2="39.7397" gradientUnits="userSpaceOnUse">
<stop stop-color="#F86237"/>
<stop offset="1" stop-color="#F86237"/>
</linearGradient>
<linearGradient id="paint4_linear_31_65" x1="46.8332" y1="19.2" x2="46.8332" y2="39.6993" gradientUnits="userSpaceOnUse">
<stop stop-color="#F86237"/>
<stop offset="1" stop-color="#F86237"/>
</linearGradient>
<linearGradient id="paint5_linear_31_65" x1="50" y1="36.0005" x2="50" y2="118" gradientUnits="userSpaceOnUse">
<stop stop-color="#F86237"/>
<stop offset="1" stop-color="#F86237"/>
</linearGradient>
<linearGradient id="paint6_linear_31_65" x1="64.9989" y1="43.9996" x2="64.9989" y2="55.9996" gradientUnits="userSpaceOnUse">
<stop stop-color="#F86237"/>
<stop offset="1" stop-color="#F86237"/>
</linearGradient>
<linearGradient id="paint7_linear_31_65" x1="34.9994" y1="43.9996" x2="34.9994" y2="55.9996" gradientUnits="userSpaceOnUse">
<stop stop-color="#F86237"/>
<stop offset="1" stop-color="#F86237"/>
</linearGradient>
<linearGradient id="paint8_linear_31_65" x1="49.9996" y1="49.9719" x2="49.9996" y2="79.9996" gradientUnits="userSpaceOnUse">
<stop stop-color="#F86237"/>
<stop offset="1" stop-color="#F86237"/>
</linearGradient>
</defs>
</svg>
