<svg width="200" height="236" viewBox="0 0 200 236" fill="none" xmlns="http://www.w3.org/2000/svg">
<path d="M133.654 29.1617C131.283 12.5396 116.814 0 99.9982 0C94.6451 0.0100036 89.3695 1.27916 84.5975 3.70493C79.8256 6.13069 75.6912 9.64501 72.5285 13.9639C72.213 14.3875 71.9846 14.8695 71.8564 15.3818C71.7282 15.8942 71.7028 16.427 71.7816 16.9492C71.8605 17.4715 72.042 17.973 72.3157 18.4247C72.5895 18.8764 72.95 19.2694 73.3765 19.581C73.803 19.8926 74.287 20.1167 74.8006 20.2401C75.3141 20.3636 75.847 20.3842 76.3686 20.3005C76.8901 20.2169 77.3899 20.0307 77.8391 19.7529C78.2883 19.475 78.6779 19.1109 78.9856 18.6815C82.0315 14.504 86.2535 11.3293 91.1124 9.56283C95.9713 7.79637 101.246 7.51838 106.264 8.76436C111.282 10.0103 115.814 12.7237 119.282 16.558C122.75 20.3922 124.997 25.1732 125.734 30.2903C125.871 31.2428 126.346 32.1142 127.072 32.7452C127.799 33.3762 128.728 33.7244 129.69 33.7262C129.881 33.7255 130.071 33.712 130.26 33.686C131.31 33.5357 132.257 32.9747 132.894 32.1264C133.53 31.278 133.804 30.2117 133.654 29.1617Z" fill="url(#paint0_linear_31_65)"/>
<path d="M191.426 73.9391L179.427 53.9378C179.072 53.3452 178.569 52.8548 177.968 52.5145C177.367 52.1742 176.688 51.9956 175.997 51.9961H164.497C163.967 51.9886 163.441 52.0865 162.95 52.2841C162.458 52.4817 162.01 52.7751 161.633 53.1471C161.255 53.5192 160.956 53.9626 160.751 54.4515C160.547 54.9404 160.441 55.4651 160.441 55.9951C160.441 56.5251 160.547 57.0498 160.751 57.5387C160.956 58.0276 161.255 58.471 161.633 58.8431C162.01 59.2152 162.458 59.5085 162.95 59.7061C163.441 59.9037 163.967 60.0016 164.497 59.9941H173.733L180.933 71.9939H19.0631L26.2629 59.9965H30.499C31.0289 60.004 31.5551 59.9062 32.0468 59.7086C32.5386 59.511 32.9862 59.2176 33.3636 58.8455C33.741 58.4734 34.0407 58.03 34.2452 57.5411C34.4498 57.0522 34.5551 56.5275 34.5551 55.9975C34.5551 55.4676 34.4498 54.9429 34.2452 54.4539C34.0407 53.965 33.741 53.5216 33.3636 53.1496C32.9862 52.7775 32.5386 52.4841 32.0468 52.2865C31.5551 52.0889 31.0289 51.991 30.499 51.9985H23.9989C23.3084 51.9978 22.6294 52.176 22.0283 52.5159C21.4272 52.8558 20.9244 53.3456 20.569 53.9378L8.56845 73.9391C8.20432 74.5462 8.00777 75.239 7.99885 75.9469C7.98993 76.6548 8.16896 77.3523 8.51768 77.9684C8.86639 78.5844 9.37229 79.097 9.98378 79.4537C10.5953 79.8104 11.2904 79.9984 11.9983 79.9987H187.994C188.702 79.9984 189.397 79.8104 190.009 79.4537C190.62 79.097 191.126 78.5844 191.475 77.9684C191.824 77.3523 192.003 76.6548 191.994 75.9469C191.985 75.239 191.788 74.5462 191.424 73.9391H191.426Z" fill="url(#paint1_linear_31_65)"/>
<path d="M171.488 37.0576C171.211 36.6108 170.849 36.2231 170.422 35.9166C169.995 35.6101 169.512 35.3909 169 35.2715L114.474 22.5181C113.963 22.3981 113.433 22.38 112.914 22.465C112.396 22.55 111.899 22.7364 111.453 23.0135C111.007 23.2906 110.619 23.6529 110.313 24.0798C110.007 24.5068 109.788 24.9899 109.669 25.5015L105.555 43.0798C105.314 44.1127 105.493 45.1992 106.052 46.1003C106.612 47.0013 107.507 47.6431 108.54 47.8844C109.573 48.1257 110.659 47.9468 111.56 47.3871C112.461 46.8273 113.103 45.9326 113.344 44.8996L116.546 31.2183L163.283 42.1502L155.939 73.5501C155.819 74.0614 155.801 74.5914 155.886 75.1096C155.972 75.6278 156.158 76.1242 156.435 76.5704C156.712 77.0165 157.074 77.4037 157.501 77.7097C157.928 78.0157 158.411 78.2345 158.923 78.3537C159.223 78.4236 159.53 78.459 159.839 78.459C160.74 78.4586 161.615 78.1532 162.321 77.5926C163.027 77.032 163.522 76.2491 163.727 75.3712L171.983 40.0771C172.103 39.5661 172.122 39.0362 172.037 38.518C171.952 37.9998 171.766 37.5035 171.488 37.0576Z" fill="url(#paint2_linear_31_65)"/>
<path d="M102.113 46.5129L98.4689 15.6865C98.344 14.6329 97.8059 13.672 96.9728 13.015C96.1397 12.358 95.0799 12.0586 94.0262 12.1826L27.1253 20.091C26.072 20.216 25.1115 20.7542 24.4549 21.5872C23.7983 22.4202 23.4994 23.4799 23.6239 24.5333L29.6999 75.9462C29.8147 76.9185 30.2819 77.8149 31.0132 78.4658C31.7444 79.1167 32.689 79.4769 33.668 79.4782C33.827 79.4775 33.9858 79.4681 34.1438 79.4501C35.1969 79.3247 36.1572 78.7864 36.8137 77.9534C37.4702 77.1205 37.7693 76.0611 37.6453 75.0078L32.0382 27.5641L90.9946 20.5962L94.1697 47.4493C94.2978 48.4996 94.8369 49.4564 95.6688 50.1101C96.5008 50.7639 97.5579 51.0614 98.6087 50.9376C99.6595 50.8137 100.618 50.2786 101.276 49.4493C101.933 48.62 102.235 47.5642 102.115 46.5129H102.113Z" fill="url(#paint3_linear_31_65)"/>
<path d="M133.747 74.4785L125.808 41.4629C125.686 40.9522 125.464 40.4707 125.155 40.0459C124.846 39.6211 124.456 39.2614 124.009 38.9872C123.561 38.713 123.063 38.5299 122.544 38.4481C122.026 38.3664 121.496 38.3877 120.985 38.5108L56.5468 54.0076C55.5156 54.2557 54.6252 54.9031 54.0711 55.8075C53.5171 56.7119 53.3449 57.7992 53.5923 58.8305L57.5604 75.3325C57.6811 75.8453 57.902 76.3291 58.2102 76.7563C58.5185 77.1835 58.9081 77.5455 59.3567 77.8217C59.8053 78.0979 60.304 78.2827 60.8242 78.3656C61.3444 78.4485 61.8759 78.4278 62.3881 78.3048C62.9003 78.1817 63.3832 77.9587 63.8089 77.6485C64.2347 77.3383 64.595 76.947 64.8692 76.4972C65.1433 76.0474 65.3259 75.5478 65.4064 75.0272C65.487 74.5067 65.4639 73.9753 65.3385 73.4636L62.3041 60.8501L118.963 47.2254L125.967 76.3506C126.22 77.378 126.868 78.2637 127.772 78.8138C128.676 79.364 129.761 79.5339 130.789 79.2863C131.818 79.0388 132.706 78.3939 133.261 77.4928C133.815 76.5917 133.99 75.5078 133.747 74.4781L133.747 74.4785Z" fill="url(#paint4_linear_31_65)"/>
<path d="M191.995 75.7944C191.942 74.7704 191.497 73.8058 190.754 73.0997C190.01 72.3936 189.024 72 187.999 72H12.0015C10.976 71.9998 9.98957 72.3933 9.24591 73.0995C8.50225 73.8056 8.05814 74.7703 8.00529 75.7944L0.00529812 231.792C-0.0226221 232.334 0.0600215 232.875 0.248198 233.384C0.436374 233.893 0.726147 234.359 1.09988 234.752C1.47361 235.145 1.92348 235.458 2.4221 235.672C2.92073 235.886 3.45768 235.997 4.00027 235.996H195.997C196.539 235.997 197.077 235.887 197.576 235.673C198.075 235.46 198.525 235.146 198.899 234.753C199.273 234.36 199.563 233.894 199.752 233.385C199.94 232.876 200.023 232.334 199.995 231.792L191.995 75.7944ZM8.20946 227.996L15.7995 79.9992H184.196L191.786 227.996H8.20946Z" fill="url(#paint5_linear_31_65)"/>
<path d="M129.998 87.9979C127.625 87.9979 125.304 88.7017 123.331 90.0203C121.358 91.3388 119.82 93.2129 118.911 95.4056C118.003 97.5983 117.766 100.011 118.229 102.339C118.692 104.666 119.835 106.805 121.513 108.483C123.191 110.161 125.329 111.304 127.657 111.767C129.985 112.23 132.397 111.992 134.59 111.084C136.783 110.176 138.657 108.638 139.975 106.664C141.294 104.691 141.998 102.371 141.998 99.9977C141.994 96.8162 140.729 93.7659 138.479 91.5162C136.23 89.2665 133.179 88.0012 129.998 87.9979ZM129.998 103.998C129.207 103.998 128.434 103.764 127.776 103.324C127.118 102.885 126.606 102.26 126.303 101.529C126 100.799 125.921 99.9945 126.075 99.2187C126.23 98.4429 126.611 97.7302 127.17 97.1709C127.729 96.6116 128.442 96.2307 129.218 96.0764C129.993 95.9221 130.798 96.0013 131.528 96.304C132.259 96.6067 132.884 97.1193 133.323 97.777C133.763 98.4347 133.997 99.2079 133.997 99.9989C133.996 101.059 133.574 102.075 132.824 102.825C132.074 103.574 131.058 103.996 129.998 103.997V103.998Z" fill="url(#paint6_linear_31_65)"/>
<path d="M69.9988 87.9979C67.6255 87.9979 65.3054 88.7017 63.3321 90.0203C61.3587 91.3388 59.8207 93.2129 58.9125 95.4056C58.0042 97.5983 57.7666 100.011 58.2296 102.339C58.6926 104.666 59.8355 106.805 61.5137 108.483C63.1919 110.161 65.33 111.304 67.6578 111.767C69.9855 112.23 72.3983 111.992 74.5909 111.084C76.7836 110.176 78.6577 108.638 79.9763 106.664C81.2948 104.691 81.9986 102.371 81.9986 99.9977C81.9953 96.8162 80.73 93.7659 78.4803 91.5162C76.2306 89.2665 73.1803 88.0012 69.9988 87.9979ZM69.9988 103.998C69.2078 103.998 68.4346 103.764 67.7769 103.324C67.1192 102.885 66.6066 102.26 66.3039 101.529C66.0012 100.799 65.922 99.9945 66.0763 99.2187C66.2306 98.4429 66.6115 97.7302 67.1708 97.1709C67.7301 96.6116 68.4428 96.2307 69.2186 96.0764C69.9944 95.9221 70.7985 96.0013 71.5293 96.304C72.2601 96.6067 72.8847 97.1193 73.3242 97.777C73.7637 98.4347 73.9982 99.2079 73.9982 99.9989C73.9966 101.059 73.5747 102.075 72.825 102.825C72.0752 103.574 71.0589 103.996 69.9988 103.997V103.998Z" fill="url(#paint7_linear_31_65)"/>
<path d="M129.998 99.9978H129.689C128.629 99.9982 127.612 100.42 126.862 101.17C126.112 101.92 125.69 102.937 125.69 103.997C125.688 104.527 125.793 105.051 125.998 105.539V125.996C125.998 132.892 123.259 139.505 118.383 144.381C113.507 149.257 106.894 151.996 99.9983 151.996C93.1027 151.996 86.4895 149.257 81.6136 144.381C76.7377 139.505 73.9984 132.892 73.9984 125.996V103.998C74.0059 103.468 73.908 102.942 73.7104 102.451C73.5128 101.959 73.2195 101.511 72.8474 101.134C72.4753 100.756 72.0319 100.457 71.543 100.252C71.0541 100.048 70.5294 99.9423 69.9994 99.9423C69.4694 99.9423 68.9447 100.048 68.4558 100.252C67.9669 100.457 67.5235 100.756 67.1514 101.134C66.7793 101.511 66.486 101.959 66.2884 102.451C66.0908 102.942 65.9929 103.468 66.0004 103.998V125.998C66.0004 135.015 69.5824 143.663 75.9585 150.039C82.3346 156.415 90.9824 159.997 99.9995 159.997C109.017 159.997 117.664 156.415 124.04 150.039C130.417 143.663 133.999 135.015 133.999 125.998V103.998C133.998 102.937 133.577 101.92 132.826 101.17C132.076 100.42 131.059 99.998 129.998 99.9978Z" fill="url(#paint8_linear_31_65)"/>
<defs>
<linearGradient id="paint0_linear_31_65" x1="102.716" y1="0" x2="102.716" y2="33.7262" gradientUnits="userSpaceOnUse">
<stop stop-color="#F86237"/>
<stop offset="1" stop-color="#F86237"/>
</linearGradient>
<linearGradient id="paint1_linear_31_65" x1="99.9963" y1="51.9957" x2="99.9963" y2="79.9987" gradientUnits="userSpaceOnUse">
<stop stop-color="#F86237"/>
<stop offset="1" stop-color="#F86237"/>
</linearGradient>
<linearGradient id="paint2_linear_31_65" x1="138.77" y1="22.4124" x2="138.77" y2="78.459" gradientUnits="userSpaceOnUse">
<stop stop-color="#F86237"/>
<stop offset="1" stop-color="#F86237"/>
</linearGradient>
<linearGradient id="paint3_linear_31_65" x1="62.8684" y1="12.1552" x2="62.8684" y2="79.4782" gradientUnits="userSpaceOnUse">
<stop stop-color="#F86237"/>
<stop offset="1" stop-color="#F86237"/>
</linearGradient>
<linearGradient id="paint4_linear_31_65" x1="93.6679" y1="38.3994" x2="93.6679" y2="79.3974" gradientUnits="userSpaceOnUse">
<stop stop-color="#F86237"/>
<stop offset="1" stop-color="#F86237"/>
</linearGradient>
<linearGradient id="paint5_linear_31_65" x1="100" y1="72" x2="100" y2="235.996" gradientUnits="userSpaceOnUse">
<stop stop-color="#F86237"/>
<stop offset="1" stop-color="#F86237"/>
</linearGradient>
<linearGradient id="paint6_linear_31_65" x1="129.998" y1="87.9979" x2="129.998" y2="111.998" gradientUnits="userSpaceOnUse">
<stop stop-color="#F86237"/>
<stop offset="1" stop-color="#F86237"/>
</linearGradient>
<linearGradient id="paint7_linear_31_65" x1="69.9988" y1="87.9979" x2="69.9988" y2="111.998" gradientUnits="userSpaceOnUse">
<stop stop-color="#F86237"/>
<stop offset="1" stop-color="#F86237"/>
</linearGradient>
<linearGradient id="paint8_linear_31_65" x1="99.9993" y1="99.9423" x2="99.9993" y2="159.997" gradientUnits="userSpaceOnUse">
<stop stop-color="#F86237"/>
<stop offset="1" stop-color="#F86237"/>
</linearGradient>
</defs>
</svg>
