<svg width="498" height="588" viewBox="0 0 498 588" fill="none" xmlns="http://www.w3.org/2000/svg">
<path d="M332.549 72.558C326.649 31.2 290.649 0 248.808 0C235.489 0.0248903 222.362 3.18272 210.489 9.21832C198.616 15.2539 188.329 23.998 180.46 34.744C179.675 35.798 179.107 36.9971 178.788 38.272C178.469 39.5469 178.406 40.8724 178.602 42.1719C178.798 43.4714 179.25 44.7191 179.931 45.843C180.612 46.967 181.509 47.9448 182.57 48.7201C183.631 49.4954 184.835 50.0528 186.113 50.3601C187.391 50.6673 188.717 50.7184 190.015 50.5103C191.312 50.3022 192.556 49.839 193.673 49.1476C194.791 48.4562 195.761 47.5502 196.526 46.482C204.105 36.0878 214.61 28.1887 226.699 23.7935C238.789 19.3984 251.914 18.7067 264.398 21.8068C276.883 24.907 288.16 31.6583 296.789 41.1983C305.418 50.7383 311.007 62.634 312.843 75.366C313.183 77.7359 314.364 79.9043 316.172 81.4742C317.98 83.0442 320.292 83.9106 322.686 83.915C323.16 83.9132 323.634 83.8798 324.103 83.815C326.715 83.441 329.072 82.0453 330.656 79.9345C332.24 77.8238 332.921 75.1706 332.549 72.558Z" fill="url(#paint0_linear_31_34)"/>
<path d="M476.293 183.97L446.436 134.204C445.552 132.73 444.302 131.51 442.806 130.663C441.31 129.816 439.621 129.372 437.902 129.373H409.29C407.971 129.354 406.662 129.598 405.439 130.09C404.215 130.581 403.102 131.311 402.162 132.237C401.223 133.163 400.478 134.266 399.969 135.482C399.46 136.699 399.198 138.004 399.198 139.323C399.198 140.642 399.46 141.947 399.969 143.164C400.478 144.38 401.223 145.483 402.162 146.409C403.102 147.335 404.215 148.065 405.439 148.557C406.662 149.048 407.971 149.292 409.29 149.273H432.269L450.183 179.13H47.4309L65.3449 149.279H75.8849C77.2034 149.298 78.5125 149.054 79.7361 148.563C80.9597 148.071 82.0733 147.341 83.0123 146.415C83.9513 145.489 84.697 144.386 85.2059 143.17C85.7149 141.953 85.977 140.648 85.977 139.329C85.977 138.01 85.7149 136.705 85.2059 135.488C84.697 134.272 83.9513 133.169 83.0123 132.243C82.0733 131.317 80.9597 130.587 79.7361 130.096C78.5125 129.604 77.2034 129.36 75.8849 129.379H59.7119C57.9937 129.377 56.3044 129.821 54.8087 130.666C53.313 131.512 52.062 132.731 51.1779 134.204L21.3189 183.97C20.4129 185.481 19.9239 187.204 19.9017 188.966C19.8795 190.727 20.3249 192.462 21.1926 193.995C22.0602 195.528 23.319 196.803 24.8404 197.691C26.3619 198.578 28.0915 199.046 29.8529 199.047H467.753C469.514 199.046 471.244 198.578 472.765 197.691C474.287 196.803 475.546 195.528 476.413 193.995C477.281 192.462 477.726 190.727 477.704 188.966C477.682 187.204 477.193 185.481 476.287 183.97H476.293Z" fill="url(#paint1_linear_31_34)"/>
<path d="M426.685 92.204C425.996 91.0924 425.095 90.1276 424.033 89.365C422.971 88.6024 421.768 88.057 420.495 87.76L284.827 56.028C283.554 55.7292 282.235 55.6843 280.946 55.8958C279.656 56.1073 278.42 56.571 277.309 57.2604C276.199 57.9499 275.235 58.8515 274.473 59.9137C273.712 60.976 273.167 62.178 272.87 63.451L262.635 107.188C262.035 109.758 262.48 112.461 263.872 114.703C265.265 116.945 267.491 118.542 270.062 119.143C272.632 119.743 275.335 119.298 277.577 117.905C279.819 116.512 281.416 114.286 282.016 111.716L289.982 77.675L406.27 104.875L387.997 183.002C387.699 184.274 387.654 185.593 387.866 186.882C388.078 188.172 388.541 189.407 389.231 190.517C389.92 191.627 390.822 192.59 391.884 193.352C392.946 194.113 394.147 194.657 395.42 194.954C396.168 195.128 396.933 195.216 397.7 195.216C399.943 195.215 402.119 194.455 403.876 193.06C405.632 191.665 406.865 189.717 407.374 187.533L427.915 99.717C428.215 98.4454 428.261 97.1271 428.05 95.8377C427.839 94.5483 427.375 93.3134 426.685 92.204Z" fill="url(#paint2_linear_31_34)"/>
<path d="M254.071 115.73L245.003 39.03C244.692 36.4085 243.353 34.0178 241.28 32.383C239.208 30.7483 236.571 30.0034 233.949 30.312L67.4908 49.989C64.8701 50.3001 62.4801 51.6391 60.8464 53.7118C59.2127 55.7845 58.469 58.4211 58.7788 61.042L73.8968 188.964C74.1824 191.383 75.3449 193.613 77.1644 195.233C78.9839 196.853 81.334 197.749 83.7698 197.752C84.1655 197.75 84.5607 197.727 84.9538 197.682C87.5741 197.37 89.9634 196.031 91.5969 193.958C93.2304 191.886 93.9745 189.25 93.6658 186.629L79.7148 68.583L226.406 51.246L234.306 118.06C234.625 120.673 235.966 123.054 238.036 124.681C240.106 126.307 242.736 127.047 245.351 126.739C247.965 126.431 250.351 125.1 251.986 123.036C253.621 120.973 254.372 118.346 254.075 115.73H254.071Z" fill="url(#paint3_linear_31_34)"/>
<path d="M332.781 185.312L313.027 103.165C312.722 101.894 312.17 100.696 311.401 99.6395C310.633 98.5825 309.664 97.6874 308.549 97.0052C307.435 96.3231 306.197 95.8673 304.906 95.6639C303.615 95.4605 302.297 95.5136 301.027 95.82L140.696 134.378C138.13 134.995 135.915 136.606 134.536 138.856C133.158 141.106 132.729 143.812 133.345 146.378L143.218 187.437C143.518 188.713 144.068 189.917 144.835 190.98C145.602 192.042 146.571 192.943 147.687 193.63C148.804 194.318 150.044 194.777 151.339 194.984C152.633 195.19 153.956 195.139 155.23 194.832C156.504 194.526 157.706 193.971 158.765 193.199C159.825 192.428 160.721 191.454 161.403 190.335C162.085 189.216 162.54 187.973 162.74 186.677C162.94 185.382 162.883 184.06 162.571 182.787L155.021 151.403L295.996 117.503L313.423 189.97C314.051 192.526 315.665 194.73 317.914 196.099C320.162 197.468 322.861 197.891 325.42 197.275C327.98 196.659 330.191 195.054 331.57 192.812C332.949 190.57 333.384 187.873 332.78 185.311L332.781 185.312Z" fill="url(#paint4_linear_31_34)"/>
<path d="M477.707 188.586C477.575 186.038 476.47 183.638 474.62 181.881C472.77 180.124 470.316 179.145 467.764 179.145H29.8612C27.3096 179.144 24.8553 180.124 23.005 181.881C21.1547 183.637 20.0497 186.038 19.9182 188.586L0.0131824 576.727C-0.0562868 578.075 0.149341 579.424 0.617548 580.69C1.08575 581.956 1.80675 583.114 2.73664 584.092C3.66653 585.071 4.78586 585.85 6.0265 586.383C7.26715 586.915 8.60315 587.189 9.95318 587.189H487.664C489.015 587.191 490.352 586.917 491.593 586.385C492.835 585.853 493.955 585.074 494.886 584.095C495.817 583.117 496.538 581.958 497.007 580.692C497.476 579.425 497.682 578.076 497.612 576.727L477.707 188.586ZM20.4262 567.283L39.3112 199.048H458.303L477.188 567.283H20.4262Z" fill="url(#paint5_linear_31_34)"/>
<path d="M323.451 218.95C317.546 218.95 311.773 220.701 306.863 223.982C301.953 227.263 298.126 231.926 295.866 237.381C293.607 242.837 293.015 248.84 294.167 254.632C295.319 260.423 298.163 265.744 302.339 269.919C306.514 274.095 311.834 276.938 317.626 278.09C323.418 279.242 329.421 278.651 334.877 276.391C340.332 274.131 344.995 270.305 348.276 265.395C351.557 260.485 353.308 254.712 353.308 248.807C353.3 240.891 350.151 233.301 344.554 227.704C338.956 222.106 331.367 218.958 323.451 218.95ZM323.451 258.761C321.483 258.761 319.559 258.177 317.922 257.084C316.286 255.991 315.01 254.436 314.257 252.618C313.504 250.8 313.307 248.799 313.691 246.869C314.075 244.938 315.023 243.165 316.414 241.774C317.806 240.382 319.579 239.434 321.509 239.05C323.44 238.666 325.441 238.863 327.259 239.616C329.077 240.37 330.631 241.645 331.725 243.282C332.818 244.918 333.402 246.842 333.402 248.81C333.398 251.448 332.349 253.976 330.483 255.841C328.618 257.706 326.089 258.755 323.451 258.757V258.761Z" fill="url(#paint6_linear_31_34)"/>
<path d="M174.166 218.95C168.261 218.95 162.488 220.701 157.578 223.982C152.668 227.263 148.842 231.926 146.582 237.381C144.322 242.837 143.731 248.84 144.883 254.632C146.035 260.423 148.878 265.744 153.054 269.919C157.23 274.095 162.55 276.938 168.341 278.09C174.133 279.242 180.136 278.651 185.592 276.391C191.048 274.131 195.711 270.305 198.991 265.395C202.272 260.485 204.023 254.712 204.023 248.807C204.015 240.891 200.867 233.301 195.269 227.704C189.672 222.106 182.082 218.958 174.166 218.95ZM174.166 258.761C172.198 258.761 170.274 258.177 168.638 257.084C167.001 255.991 165.726 254.436 164.973 252.618C164.219 250.8 164.022 248.799 164.406 246.869C164.79 244.938 165.738 243.165 167.13 241.774C168.521 240.382 170.294 239.434 172.225 239.05C174.155 238.666 176.156 238.863 177.974 239.616C179.792 240.37 181.347 241.645 182.44 243.282C183.533 244.918 184.117 246.842 184.117 248.81C184.113 251.448 183.063 253.976 181.198 255.841C179.332 257.705 176.804 258.754 174.166 258.757V258.761Z" fill="url(#paint7_linear_31_34)"/>
<path d="M323.45 248.807H322.683C320.044 248.808 317.514 249.857 315.648 251.723C313.782 253.589 312.733 256.119 312.732 258.758C312.728 260.075 312.989 261.38 313.499 262.595V313.495C313.499 330.652 306.683 347.107 294.551 359.238C282.419 371.37 265.965 378.186 248.808 378.186C231.651 378.186 215.196 371.37 203.064 359.238C190.932 347.107 184.117 330.652 184.117 313.495V258.761C184.136 257.442 183.892 256.133 183.4 254.91C182.909 253.686 182.179 252.573 181.253 251.634C180.327 250.695 179.224 249.949 178.007 249.44C176.791 248.931 175.485 248.669 174.167 248.669C172.848 248.669 171.543 248.931 170.326 249.44C169.11 249.949 168.007 250.695 167.081 251.634C166.155 252.573 165.425 253.686 164.933 254.91C164.442 256.133 164.198 257.442 164.217 258.761V313.498C164.217 335.934 173.129 357.451 188.994 373.315C204.858 389.179 226.375 398.092 248.811 398.092C271.247 398.092 292.763 389.179 308.628 373.315C324.492 357.451 333.405 335.934 333.405 313.498V258.761C333.404 256.121 332.355 253.59 330.488 251.723C328.621 249.856 326.09 248.808 323.45 248.807Z" fill="url(#paint8_linear_31_34)"/>
<defs>
<linearGradient id="paint0_linear_31_34" x1="255.569" y1="0" x2="255.569" y2="83.915" gradientUnits="userSpaceOnUse">
<stop stop-color="#F86237"/>
<stop offset="1" stop-color="#F86237"/>
</linearGradient>
<linearGradient id="paint1_linear_31_34" x1="248.803" y1="129.372" x2="248.803" y2="199.047" gradientUnits="userSpaceOnUse">
<stop stop-color="#F86237"/>
<stop offset="1" stop-color="#F86237"/>
</linearGradient>
<linearGradient id="paint2_linear_31_34" x1="345.277" y1="55.7648" x2="345.277" y2="195.216" gradientUnits="userSpaceOnUse">
<stop stop-color="#F86237"/>
<stop offset="1" stop-color="#F86237"/>
</linearGradient>
<linearGradient id="paint3_linear_31_34" x1="156.424" y1="30.2437" x2="156.424" y2="197.752" gradientUnits="userSpaceOnUse">
<stop stop-color="#F86237"/>
<stop offset="1" stop-color="#F86237"/>
</linearGradient>
<linearGradient id="paint4_linear_31_34" x1="233.058" y1="95.5427" x2="233.058" y2="197.551" gradientUnits="userSpaceOnUse">
<stop stop-color="#F86237"/>
<stop offset="1" stop-color="#F86237"/>
</linearGradient>
<linearGradient id="paint5_linear_31_34" x1="248.813" y1="179.145" x2="248.813" y2="587.189" gradientUnits="userSpaceOnUse">
<stop stop-color="#F86237"/>
<stop offset="1" stop-color="#F86237"/>
</linearGradient>
<linearGradient id="paint6_linear_31_34" x1="323.451" y1="218.95" x2="323.451" y2="278.664" gradientUnits="userSpaceOnUse">
<stop stop-color="#F86237"/>
<stop offset="1" stop-color="#F86237"/>
</linearGradient>
<linearGradient id="paint7_linear_31_34" x1="174.166" y1="218.95" x2="174.166" y2="278.664" gradientUnits="userSpaceOnUse">
<stop stop-color="#F86237"/>
<stop offset="1" stop-color="#F86237"/>
</linearGradient>
<linearGradient id="paint8_linear_31_34" x1="248.81" y1="248.669" x2="248.81" y2="398.092" gradientUnits="userSpaceOnUse">
<stop stop-color="#F86237"/>
<stop offset="1" stop-color="#F86237"/>
</linearGradient>
</defs>
</svg>
