<svg width="414" height="736" viewBox="0 0 414 736" fill="none" xmlns="http://www.w3.org/2000/svg">
<rect width="414" height="736" fill="white"/>
<path d="M224.775 290.132C224.309 286.889 222.886 283.859 220.689 281.428C218.492 278.998 215.62 277.277 212.44 276.487C209.26 275.696 205.917 275.872 202.838 276.99C199.758 278.109 197.082 280.12 195.151 282.767C194.996 282.972 194.883 283.206 194.819 283.456C194.754 283.705 194.741 283.964 194.778 284.219C194.815 284.474 194.903 284.718 195.036 284.939C195.169 285.159 195.344 285.351 195.552 285.502C195.76 285.654 195.996 285.763 196.246 285.823C196.497 285.883 196.756 285.892 197.01 285.85C197.264 285.808 197.507 285.716 197.725 285.579C197.943 285.443 198.132 285.264 198.28 285.053C199.757 283.029 201.803 281.491 204.158 280.635C206.513 279.779 209.07 279.645 211.502 280.249C213.933 280.853 216.13 282.168 217.81 284.027C219.491 285.885 220.58 288.202 220.937 290.682C221.004 291.143 221.234 291.565 221.586 291.87C221.938 292.175 222.388 292.343 222.853 292.344C222.946 292.344 223.038 292.337 223.129 292.325C223.638 292.252 224.097 291.98 224.406 291.569C224.715 291.158 224.848 290.641 224.775 290.132Z" fill="#F86237"/>
<path d="M252.774 311.834L246.959 302.141C246.786 301.854 246.543 301.616 246.251 301.451C245.96 301.286 245.631 301.2 245.296 301.2H239.723C239.216 301.21 238.732 301.419 238.377 301.781C238.022 302.143 237.823 302.631 237.823 303.138C237.823 303.646 238.022 304.133 238.377 304.496C238.732 304.858 239.216 305.067 239.723 305.077H244.197L247.687 310.892H169.239L172.728 305.077H174.781C175.039 305.082 175.295 305.035 175.534 304.94C175.774 304.845 175.992 304.703 176.176 304.523C176.36 304.342 176.507 304.127 176.607 303.889C176.706 303.651 176.758 303.396 176.758 303.138C176.758 302.88 176.706 302.625 176.607 302.388C176.507 302.15 176.36 301.934 176.176 301.754C175.992 301.573 175.774 301.432 175.534 301.336C175.295 301.241 175.039 301.195 174.781 301.2H171.629C171.294 301.2 170.965 301.287 170.674 301.452C170.383 301.617 170.14 301.854 169.968 302.141L164.153 311.834C163.977 312.128 163.881 312.464 163.877 312.807C163.873 313.15 163.96 313.488 164.129 313.787C164.298 314.085 164.543 314.334 164.839 314.507C165.136 314.679 165.472 314.771 165.816 314.771H251.111C251.454 314.771 251.791 314.679 252.088 314.507C252.384 314.334 252.629 314.085 252.798 313.787C252.967 313.488 253.054 313.15 253.05 312.807C253.046 312.464 252.95 312.128 252.774 311.834Z" fill="#F86237"/>
<path d="M243.111 293.959C242.977 293.742 242.802 293.554 242.595 293.406C242.388 293.257 242.154 293.151 241.906 293.093L215.479 286.912C215.231 286.855 214.974 286.846 214.723 286.888C214.472 286.929 214.232 287.019 214.016 287.154C213.8 287.288 213.612 287.464 213.464 287.67C213.316 287.877 213.21 288.111 213.152 288.359L211.159 296.878C211.051 297.375 211.143 297.895 211.415 298.326C211.687 298.756 212.117 299.062 212.613 299.178C213.108 299.294 213.63 299.21 214.064 298.945C214.499 298.679 214.811 298.253 214.935 297.759L216.486 291.129L239.137 296.427L235.578 311.645C235.52 311.892 235.511 312.149 235.553 312.4C235.594 312.651 235.685 312.892 235.819 313.108C235.953 313.324 236.129 313.511 236.336 313.66C236.542 313.808 236.776 313.914 237.024 313.971C237.17 314.005 237.319 314.022 237.469 314.022C237.905 314.022 238.33 313.874 238.672 313.603C239.014 313.331 239.254 312.951 239.353 312.526L243.354 295.421C243.412 295.173 243.42 294.916 243.379 294.665C243.337 294.415 243.246 294.174 243.111 293.959Z" fill="#F86237"/>
<path d="M209.489 298.541L207.723 283.605C207.662 283.095 207.401 282.629 206.997 282.311C206.594 281.992 206.08 281.847 205.569 281.908L173.146 285.738C172.636 285.799 172.17 286.06 171.852 286.464C171.533 286.868 171.389 287.381 171.449 287.892L174.394 312.81C174.45 313.281 174.677 313.715 175.032 314.03C175.387 314.344 175.844 314.518 176.319 314.518C176.396 314.518 176.473 314.514 176.549 314.505C177.06 314.444 177.525 314.183 177.843 313.779C178.162 313.376 178.306 312.862 178.246 312.352L175.527 289.358L204.1 285.981L205.638 298.995C205.707 299.497 205.971 299.953 206.372 300.264C206.773 300.575 207.28 300.716 207.784 300.657C208.288 300.598 208.749 300.343 209.068 299.949C209.386 299.554 209.538 299.05 209.489 298.544V298.541Z" fill="#F86237"/>
<path d="M224.819 312.095L220.972 296.094C220.913 295.846 220.805 295.613 220.655 295.407C220.506 295.201 220.317 295.027 220.1 294.894C219.883 294.761 219.641 294.672 219.39 294.633C219.138 294.593 218.882 294.604 218.634 294.663L187.404 302.174C186.904 302.294 186.473 302.608 186.204 303.047C185.936 303.485 185.852 304.012 185.972 304.512L187.895 312.51C187.951 312.761 188.057 312.999 188.205 313.209C188.354 313.419 188.543 313.597 188.761 313.734C188.98 313.87 189.223 313.961 189.477 314.003C189.731 314.044 189.991 314.034 190.241 313.974C190.491 313.914 190.727 313.804 190.935 313.652C191.142 313.5 191.317 313.308 191.45 313.087C191.582 312.866 191.669 312.622 191.706 312.367C191.743 312.112 191.729 311.853 191.665 311.603L190.194 305.49L217.654 298.885L221.047 313.002C221.174 313.496 221.489 313.92 221.926 314.182C222.362 314.445 222.884 314.525 223.38 314.406C223.875 314.287 224.303 313.978 224.572 313.545C224.841 313.113 224.93 312.592 224.818 312.095H224.819Z" fill="#F86237"/>
<path d="M253.049 312.733C253.024 312.237 252.808 311.769 252.448 311.427C252.088 311.085 251.61 310.894 251.113 310.894H165.816C165.319 310.894 164.841 311.085 164.481 311.427C164.121 311.769 163.906 312.237 163.88 312.733L160.003 388.336C159.989 388.599 160.029 388.861 160.12 389.108C160.212 389.355 160.352 389.58 160.533 389.771C160.714 389.962 160.932 390.113 161.174 390.217C161.416 390.321 161.676 390.374 161.939 390.374H254.989C255.252 390.374 255.512 390.321 255.754 390.217C255.996 390.114 256.214 389.962 256.396 389.771C256.577 389.581 256.717 389.355 256.809 389.108C256.9 388.862 256.94 388.599 256.927 388.336L253.049 312.733ZM163.978 386.497L167.656 314.771H249.272L252.949 386.497H163.978Z" fill="#F86237"/>
<path d="M223.002 318.647C221.852 318.647 220.728 318.988 219.772 319.627C218.815 320.266 218.07 321.175 217.63 322.237C217.19 323.3 217.074 324.469 217.299 325.597C217.523 326.725 218.077 327.761 218.89 328.575C219.704 329.388 220.74 329.942 221.868 330.166C222.996 330.391 224.165 330.275 225.228 329.835C226.29 329.395 227.199 328.65 227.838 327.693C228.477 326.737 228.818 325.613 228.818 324.463C228.816 322.921 228.203 321.443 227.112 320.353C226.022 319.262 224.544 318.649 223.002 318.647ZM223.002 326.402C222.619 326.402 222.244 326.288 221.925 326.075C221.607 325.862 221.358 325.56 221.211 325.205C221.065 324.851 221.026 324.461 221.101 324.085C221.176 323.709 221.36 323.364 221.632 323.093C221.903 322.821 222.248 322.637 222.624 322.562C223 322.487 223.39 322.526 223.744 322.672C224.099 322.819 224.401 323.067 224.614 323.386C224.827 323.705 224.941 324.08 224.941 324.463C224.941 324.977 224.736 325.47 224.373 325.834C224.009 326.197 223.516 326.402 223.002 326.402Z" fill="#F86237"/>
<path d="M193.925 318.647C192.774 318.647 191.65 318.988 190.694 319.627C189.737 320.266 188.992 321.175 188.552 322.237C188.112 323.3 187.997 324.469 188.221 325.597C188.445 326.725 188.999 327.761 189.813 328.575C190.626 329.388 191.662 329.942 192.79 330.166C193.918 330.391 195.087 330.275 196.15 329.835C197.213 329.395 198.121 328.65 198.76 327.693C199.399 326.737 199.74 325.613 199.74 324.463C199.738 322.921 199.125 321.443 198.035 320.353C196.944 319.262 195.466 318.649 193.925 318.647ZM193.925 326.402C193.541 326.402 193.166 326.288 192.847 326.075C192.529 325.862 192.28 325.56 192.133 325.205C191.987 324.851 191.948 324.461 192.023 324.085C192.098 323.709 192.283 323.364 192.554 323.093C192.825 322.821 193.17 322.637 193.546 322.562C193.922 322.487 194.312 322.526 194.666 322.672C195.021 322.819 195.323 323.067 195.536 323.386C195.75 323.705 195.863 324.08 195.863 324.463C195.863 324.977 195.658 325.47 195.295 325.834C194.931 326.197 194.439 326.402 193.925 326.402Z" fill="#F86237"/>
<path d="M223 324.463H222.85C222.336 324.463 221.843 324.667 221.479 325.03C221.116 325.394 220.911 325.887 220.911 326.401C220.91 326.659 220.962 326.914 221.062 327.152V337.066C221.074 338.729 220.758 340.378 220.13 341.918C219.503 343.458 218.577 344.858 217.405 346.039C216.234 347.219 214.841 348.156 213.306 348.796C211.77 349.435 210.124 349.764 208.461 349.764C206.798 349.764 205.151 349.435 203.616 348.796C202.081 348.156 200.688 347.219 199.516 346.039C198.345 344.858 197.419 343.458 196.791 341.918C196.164 340.378 195.847 338.729 195.86 337.066V326.408C195.85 325.9 195.642 325.417 195.279 325.062C194.917 324.706 194.43 324.507 193.922 324.507C193.414 324.507 192.927 324.706 192.565 325.062C192.202 325.417 191.994 325.9 191.984 326.408V337.07C191.984 341.44 193.72 345.631 196.81 348.721C199.9 351.811 204.091 353.547 208.461 353.547C212.831 353.547 217.023 351.811 220.113 348.721C223.203 345.631 224.939 341.44 224.939 337.07V326.401C224.939 325.887 224.734 325.394 224.371 325.031C224.007 324.667 223.514 324.463 223 324.463Z" fill="#F86237"/>
<path d="M174.889 419.581C174.889 420.343 174.699 420.993 174.318 421.532C173.943 422.065 173.415 422.473 172.736 422.754C172.056 423.035 171.256 423.176 170.336 423.176C169.85 423.176 169.39 423.152 168.956 423.105C168.523 423.059 168.124 422.991 167.761 422.903C167.398 422.815 167.078 422.707 166.803 422.578V421.146C167.243 421.327 167.779 421.497 168.411 421.655C169.044 421.808 169.706 421.884 170.398 421.884C171.042 421.884 171.587 421.799 172.033 421.629C172.478 421.453 172.815 421.204 173.043 420.882C173.278 420.554 173.395 420.161 173.395 419.704C173.395 419.265 173.298 418.898 173.105 418.605C172.911 418.307 172.589 418.037 172.138 417.797C171.693 417.551 171.083 417.29 170.31 417.015C169.765 416.821 169.285 416.61 168.869 416.382C168.453 416.147 168.104 415.884 167.823 415.591C167.541 415.298 167.328 414.958 167.181 414.571C167.04 414.185 166.97 413.742 166.97 413.244C166.97 412.559 167.143 411.973 167.489 411.486C167.84 410.994 168.324 410.619 168.939 410.361C169.56 410.098 170.272 409.966 171.075 409.966C171.76 409.966 172.393 410.03 172.973 410.159C173.559 410.288 174.095 410.461 174.581 410.678L174.116 411.961C173.653 411.768 173.161 411.606 172.639 411.478C172.123 411.349 171.59 411.284 171.039 411.284C170.489 411.284 170.023 411.366 169.642 411.53C169.267 411.688 168.98 411.914 168.781 412.207C168.581 412.5 168.482 412.849 168.482 413.253C168.482 413.704 168.576 414.079 168.763 414.378C168.956 414.677 169.261 414.943 169.677 415.178C170.099 415.406 170.656 415.646 171.347 415.898C172.103 416.174 172.745 416.467 173.272 416.777C173.799 417.082 174.201 417.457 174.476 417.902C174.751 418.342 174.889 418.901 174.889 419.581ZM187.255 423H185.761V416.944H179.011V423H177.517V410.15H179.011V415.626H185.761V410.15H187.255V423ZM201.933 416.558C201.933 417.548 201.807 418.45 201.555 419.265C201.303 420.073 200.928 420.771 200.43 421.356C199.938 421.937 199.326 422.385 198.593 422.701C197.861 423.018 197.011 423.176 196.044 423.176C195.048 423.176 194.178 423.018 193.434 422.701C192.696 422.385 192.08 421.934 191.588 421.348C191.102 420.762 190.736 420.062 190.49 419.247C190.249 418.433 190.129 417.53 190.129 416.54C190.129 415.228 190.346 414.076 190.78 413.086C191.213 412.096 191.87 411.325 192.748 410.774C193.633 410.224 194.741 409.948 196.071 409.948C197.342 409.948 198.411 410.221 199.279 410.766C200.152 411.311 200.811 412.078 201.256 413.068C201.707 414.053 201.933 415.216 201.933 416.558ZM191.703 416.558C191.703 417.647 191.858 418.591 192.168 419.388C192.479 420.185 192.953 420.8 193.592 421.233C194.237 421.667 195.054 421.884 196.044 421.884C197.04 421.884 197.855 421.667 198.488 421.233C199.126 420.8 199.598 420.185 199.903 419.388C200.207 418.591 200.36 417.647 200.36 416.558C200.36 414.899 200.011 413.604 199.314 412.673C198.622 411.735 197.541 411.267 196.071 411.267C195.075 411.267 194.254 411.48 193.61 411.908C192.965 412.336 192.485 412.945 192.168 413.736C191.858 414.521 191.703 415.462 191.703 416.558ZM208.156 410.15C209.814 410.15 211.024 410.476 211.786 411.126C212.553 411.771 212.937 412.696 212.937 413.903C212.937 414.448 212.846 414.967 212.664 415.459C212.489 415.945 212.202 416.376 211.803 416.751C211.405 417.12 210.88 417.413 210.23 417.63C209.585 417.841 208.794 417.946 207.857 417.946H206.292V423H204.798V410.15H208.156ZM208.015 411.425H206.292V416.663H207.69C208.51 416.663 209.193 416.575 209.738 416.399C210.288 416.224 210.702 415.939 210.977 415.547C211.252 415.148 211.39 414.621 211.39 413.965C211.39 413.109 211.118 412.474 210.573 412.058C210.028 411.636 209.175 411.425 208.015 411.425ZM218.984 410.15C220.642 410.15 221.852 410.476 222.614 411.126C223.381 411.771 223.765 412.696 223.765 413.903C223.765 414.448 223.674 414.967 223.493 415.459C223.317 415.945 223.03 416.376 222.631 416.751C222.233 417.12 221.708 417.413 221.058 417.63C220.413 417.841 219.622 417.946 218.685 417.946H217.12V423H215.626V410.15H218.984ZM218.843 411.425H217.12V416.663H218.518C219.338 416.663 220.021 416.575 220.566 416.399C221.117 416.224 221.53 415.939 221.805 415.547C222.08 415.148 222.218 414.621 222.218 413.965C222.218 413.109 221.946 412.474 221.401 412.058C220.856 411.636 220.003 411.425 218.843 411.425ZM226.454 423V410.15H227.949V423H226.454ZM241.528 423H239.805L232.8 412.207H232.73C232.747 412.494 232.768 412.822 232.791 413.191C232.815 413.555 232.832 413.944 232.844 414.36C232.862 414.771 232.87 415.189 232.87 415.617V423H231.482V410.15H233.196L240.174 420.908H240.236C240.224 420.703 240.209 420.413 240.192 420.038C240.174 419.657 240.157 419.25 240.139 418.816C240.127 418.377 240.121 417.97 240.121 417.595V410.15H241.528V423ZM250.528 416.268H255.019V422.499C254.345 422.728 253.651 422.897 252.936 423.009C252.227 423.12 251.433 423.176 250.554 423.176C249.218 423.176 248.09 422.909 247.17 422.376C246.256 421.843 245.562 421.084 245.087 420.1C244.613 419.109 244.375 417.935 244.375 416.575C244.375 415.245 244.636 414.085 245.158 413.095C245.685 412.104 246.444 411.337 247.434 410.792C248.43 410.241 249.625 409.966 251.02 409.966C251.735 409.966 252.411 410.033 253.05 410.168C253.695 410.297 254.292 410.481 254.843 410.722L254.272 412.022C253.797 411.817 253.273 411.642 252.699 411.495C252.13 411.349 251.541 411.275 250.932 411.275C249.883 411.275 248.984 411.492 248.234 411.926C247.49 412.359 246.918 412.972 246.52 413.763C246.127 414.554 245.931 415.491 245.931 416.575C245.931 417.647 246.104 418.582 246.45 419.379C246.795 420.17 247.334 420.785 248.067 421.225C248.799 421.664 249.743 421.884 250.897 421.884C251.477 421.884 251.975 421.852 252.391 421.787C252.807 421.717 253.185 421.635 253.525 421.541V417.604H250.528V416.268Z" fill="#ADADAD"/>
<path d="M176.294 439.016C175.349 439.016 174.497 439.18 173.74 439.508C172.99 439.829 172.349 440.297 171.818 440.915C171.294 441.524 170.892 442.262 170.611 443.13C170.329 443.997 170.189 444.973 170.189 446.059C170.189 447.497 170.411 448.747 170.857 449.809C171.31 450.864 171.982 451.68 172.872 452.258C173.771 452.837 174.892 453.126 176.236 453.126C177.001 453.126 177.72 453.063 178.392 452.938C179.072 452.805 179.732 452.641 180.372 452.446V454.18C179.747 454.415 179.091 454.587 178.404 454.696C177.716 454.813 176.9 454.872 175.954 454.872C174.212 454.872 172.755 454.512 171.583 453.794C170.419 453.067 169.544 452.044 168.958 450.723C168.38 449.403 168.091 447.844 168.091 446.047C168.091 444.751 168.271 443.567 168.63 442.497C168.997 441.419 169.529 440.489 170.224 439.708C170.927 438.926 171.786 438.325 172.802 437.903C173.826 437.473 174.997 437.258 176.318 437.258C177.185 437.258 178.021 437.344 178.826 437.516C179.63 437.688 180.357 437.934 181.005 438.255L180.208 439.942C179.661 439.692 179.06 439.477 178.404 439.297C177.755 439.11 177.052 439.016 176.294 439.016ZM193.626 454.637H184.087V437.505H193.626V439.262H186.079V444.805H193.193V446.54H186.079V452.88H193.626V454.637ZM210.818 454.637H208.521L199.181 440.247H199.087C199.111 440.63 199.138 441.067 199.169 441.559C199.201 442.044 199.224 442.563 199.24 443.118C199.263 443.665 199.275 444.223 199.275 444.794V454.637H197.423V437.505H199.708L209.013 451.848H209.095C209.079 451.575 209.06 451.188 209.036 450.688C209.013 450.18 208.99 449.637 208.966 449.059C208.951 448.473 208.943 447.93 208.943 447.43V437.505H210.818V454.637ZM220.755 454.637H218.751V439.262H213.361V437.505H226.122V439.262H220.755V454.637ZM238.251 454.637H228.712V437.505H238.251V439.262H230.704V444.805H237.818V446.54H230.704V452.88H238.251V454.637ZM246.677 437.505C248.083 437.505 249.244 437.68 250.158 438.032C251.079 438.376 251.767 438.903 252.22 439.614C252.673 440.325 252.9 441.231 252.9 442.333C252.9 443.239 252.736 443.997 252.408 444.606C252.079 445.208 251.65 445.696 251.119 446.071C250.587 446.446 250.021 446.735 249.419 446.938L254.119 454.637H251.798L247.603 447.489H244.04V454.637H242.048V437.505H246.677ZM246.56 439.227H244.04V445.801H246.759C248.158 445.801 249.185 445.516 249.841 444.946C250.505 444.376 250.837 443.536 250.837 442.426C250.837 441.262 250.486 440.438 249.783 439.954C249.087 439.469 248.013 439.227 246.56 439.227Z" fill="#FD7A54"/>
</svg>
